<?xml version="1.0" encoding="UTF-8"?>
<svg id="Layer_2" data-name="Layer 2" xmlns="http://www.w3.org/2000/svg" viewBox="0 0 292.66 98.41">
  <g id="Layer_1-2" data-name="Layer 1">
    <path d="M138.67,10.07c.17-.58.44-.93.91-1.31l-1.96-1.51c-.48.79-.96,1.57-1.43,2.36-.85,1.4,1.24,2.54,2.16,1.26,1.43-1.99,4.25-1.85,6.4-1.48,2.38.41,4.67,1.25,6.92,2.12,4.6,1.78,9.27,3.76,14.31,3.37.86-.07,1.67-1.04,1.08-1.88-1.31-1.85-3.24-2.71-5.3-3.48l-.33,2.46c2.59.2,4.73,1.97,7.23,2.52,2.08.46,4.3.13,5.83-1.45.46-.47.5-1.3,0-1.77-.85-.8-1.92-.94-3.04-1.13-1.36-.23-2.74-.39-4.11-.55-2.77-.34-5.52-.74-8.11-1.81l-.66,2.41c4.25,1.12,8.63,1.44,13,1.72,2.17.14,4.35.27,6.52.53.5.06,1.85.09,2.12.64.37.77-.82,2.3-1.29,2.86-1.02,1.23.74,3.01,1.77,1.77,1.25-1.52,2.89-4.06,1.61-6.02-1.21-1.85-4.15-1.77-6.07-1.94-5.69-.51-11.44-.5-17-1.97-1.6-.42-2.11,1.82-.66,2.41,2.26.93,4.64,1.36,7.06,1.68,1.19.16,2.37.29,3.56.44.61.08,1.22.17,1.83.28.48.08,1.34.09,1.72.44v-1.77c-1.52,1.57-3.81.83-5.55.07-1.9-.83-3.65-1.71-5.75-1.87-1.5-.11-1.57,1.99-.33,2.46,1.38.52,2.92,1.08,3.81,2.34l1.08-1.88c-5.76.45-10.91-2.42-16.2-4.23-4.33-1.48-10.44-2.92-13.58,1.46l2.16,1.26c.48-.79.96-1.57,1.43-2.36.78-1.28-.92-2.38-1.96-1.51-.78.64-1.27,1.45-1.55,2.42-.45,1.55,1.96,2.21,2.41.66h0Z" fill="#e5f4f8"/>
    <g>
      <path d="M181.45,12.46c9.72.56,19.65,1.13,29.19,3.17,4.43.95,8.8,2.31,12.77,4.53,4.22,2.36,8.2,5.19,12.26,7.82l1.44-3.43c-2.53-.44-4.71-1.79-7.07-2.72-2.62-1.03-5.42-1.09-8.19-1.35-5.54-.52-10.43-3.32-15.16-6.04l-1.44,3.43c1.29.52,2.58,1.04,3.86,1.56.95.38,2.05-.42,2.31-1.31.31-1.07-.37-1.93-1.31-2.31-1.29-.52-2.58-1.04-3.86-1.56-2-.81-3.24,2.39-1.44,3.43,4.91,2.83,9.98,5.65,15.69,6.4,2.74.36,5.54.26,8.17,1.23s4.78,2.41,7.46,2.87c2.05.35,3.31-2.22,1.44-3.43-4.17-2.7-8.27-5.65-12.64-8.03-4.14-2.25-8.68-3.72-13.28-4.7-9.87-2.11-20.14-2.72-30.19-3.3-2.41-.14-2.4,3.61,0,3.75h0Z" fill="#e5f4f8"/>
      <g>
        <path d="M177.78,12.22c.1,4.8.03,9.59-.21,14.38-.07,1.34,1.2,2.51,2.5,2.5,12.48-.08,24.96-.16,37.44-.24,3.22-.02,3.22-5.02,0-5-12.48.08-24.96.16-37.44.24l2.5,2.5c.24-4.79.31-9.59.21-14.38-.07-3.21-5.07-3.22-5,0h0Z" fill="#e6f5f8"/>
        <path d="M181.89,15.54c12.21.02,23.5,5.43,33.44,12.1l1.93-4.57-8.85-2.27c-3.01-.77-6.01-1.67-9.1-2.03-1.43-.17-2.83-.14-4.26.03s-2.94.47-4.41.29c-1.03-.13-2.08-.46-3.02-.9-.87-.41-2.73-1.34-3.08-1.84l.34,1.26-.04-.35-.34,1.26-.08.12-1.1.64c.6-.24,1.9.24,2.72.56,1.22.49,2.38,1.14,3.55,1.73,2.55,1.29,5.11,2.58,7.66,3.87l1.93-4.57c-2.95-.45-5.9-.87-8.85-1.34-.76-.12-1.69-.19-2.27-.7-1.03-.92-1.42-1.95-2.94-2.27-1.26-.26-2.79.36-3.08,1.75-.37,1.78-.74,3.56-1.11,5.34-.29,1.39.68,3.39,2.41,3.16,5.52-.73,11.08-.38,16.62-.02,2.74.18,5.48.35,8.22.39,1.37.02,2.74,0,4.1-.07s2.76-.1,3.88-.91c1.53-1.11,1.68-3.24,0-4.32-4.57-2.94-9.77-4.59-15.17-5.03-1.35-.11-2.5,1.23-2.5,2.5,0,1.44,1.15,2.39,2.5,2.5,4.53.37,8.84,1.9,12.65,4.35v-4.32c-.65.47-2,.26-2.8.28-1.29.03-2.58.02-3.86-.01-2.66-.07-5.32-.26-7.98-.43-5.22-.34-10.45-.6-15.65.08l2.41,3.16c.37-1.78.74-3.56,1.11-5.34l-3.08,1.75c-.16-.03-.53-.63-.06-.03.13.17.27.35.41.52.41.52.87.97,1.43,1.33,1.02.67,2.25.96,3.44,1.16,2.94.47,5.9.9,8.85,1.34,1.23.19,2.45-.2,2.95-1.45.44-1.09.11-2.55-1.02-3.12-3.65-1.84-7.26-3.85-11-5.51-1.82-.81-3.88-1.6-5.91-1.36-2.28.28-3.86,2.65-2.53,4.76.91,1.45,2.9,2.53,4.4,3.29,1.74.89,3.56,1.49,5.5,1.72s3.99-.22,6.01-.37,3.77.18,5.64.63c4.7,1.13,9.37,2.39,14.05,3.59,2.82.72,4.25-3.01,1.93-4.57-10.66-7.16-22.89-12.76-35.96-12.79-3.22,0-3.22,4.99,0,5h0Z" fill="#e6f5f8"/>
        <path d="M176.32,9.5c.08,6.37.16,12.74.23,19.11,0,.69.57,1.23,1.25,1.25,11.84.35,23.69.37,35.54.06,1.61-.04,1.61-2.54,0-2.5-11.84.31-23.7.29-35.54-.06l1.25,1.25c-.08-6.37-.16-12.74-.23-19.11-.02-1.61-2.52-1.61-2.5,0h0Z" fill="#e6f5f8"/>
        <path d="M177.65,10.77c4.31.68,8.65.59,12.99.73s8.33.74,12.4,1.78c7.91,2.03,15.36,5.44,22.73,8.88,2.02.95,4.07,1.87,5.98,3.03s3.73,2.75,5.45,4.32c1.19,1.08,2.96-.68,1.77-1.77-3.05-2.78-6.17-5.01-9.9-6.79s-7.67-3.6-11.57-5.26c-7.58-3.21-15.45-5.85-23.7-6.53-5.15-.42-10.36,0-15.48-.82-1.57-.25-2.25,2.16-.66,2.41h0Z" fill="#e6f5f8"/>
        <path d="M177.71,10.6c12.65-.59,25.81,1.14,36.41,8.57,1.32.93,2.57-1.24,1.26-2.16-10.93-7.66-24.62-9.52-37.67-8.92-1.6.07-1.61,2.58,0,2.5h0Z" fill="#e6f5f8"/>
        <path d="M210.4,29.98c9.23.09,18.45.17,27.68.26,1.61.02,1.61-2.48,0-2.5-9.23-.09-18.45-.17-27.68-.26-1.61-.02-1.61,2.48,0,2.5h0Z" fill="#e6f5f8"/>
        <path d="M209,22.59c3.8,1.33,7.7,2.35,11.68,3.03,3.64.62,7.56.68,10.95,2.28l.96-2.28c-4.01-1.64-7.47-4.37-11.45-6.09-4.18-1.81-8.79-2.02-13.02-3.65-1.34-.52-2.17,1.6-.96,2.28,5.49,3.13,11.28,5.71,17.27,7.74,1.36.46,2.17-1.58.96-2.28-5.88-3.41-11.81-6.8-18.21-9.15-3.2-1.18-6.49-2.05-9.87-2.51s-6.74-.36-9.71-1.95l-.96,2.28c7.59,3.03,15.19,6.06,22.78,9.09,3.64,1.45,7.26,2.97,11,4.16,3.31,1.05,6.99,1.48,9.88,3.52l.63-2.33c-4.85-.33-9.7-.41-14.56-.24v2.5c3.95-.17,7.91-.35,11.86-.52,1.17-.05,1.79-1.73.63-2.33-3.26-1.68-6.7-2.9-10.3-3.62-1.41-.28-2.14,1.47-.96,2.28,1.58,1.1,3.33,1.95,5.17,2.52,1.23.38,3.64,1.23,4.86.47,1.56-.98.54-2.7-.49-3.58-1.69-1.45-3.43-2.86-5.15-4.29l-.88,2.13c5.21-.08,8.74,4.79,13.12,6.87l.96-2.28c-4.64-1.1-9.32-2.19-14.1-2.4s-9.6.53-14.35,1.03c-1.4.15-1.7,1.96-.33,2.46,3.31,1.2,6.81,1.42,10.26.76,1.19-.23,1.2-2.2,0-2.41-6.63-1.18-13.36-1.56-20.01-2.57-2.88-.44-6.28-.75-8.6-2.69-2.05-1.71-3.04-4.29-3.47-6.85-.26-1.58-2.67-.91-2.41.66.46,2.75,1.58,5.45,3.57,7.45,2.24,2.26,5.29,2.99,8.33,3.52,7.27,1.26,14.66,1.59,21.92,2.88v-2.41c-3.02.57-6.05.28-8.93-.76l-.33,2.46c4.59-.48,9.24-1.19,13.86-1.04s9.34,1.25,13.92,2.33c1.31.31,2.3-1.65.96-2.28-4.91-2.32-8.52-7.29-14.38-7.21-1,.01-1.75,1.41-.88,2.13.98.82,1.96,1.63,2.94,2.45.49.41.98.82,1.47,1.23.21.17,1.29.85,1.28,1.13l.37-.88c.15-.19-.36-.13-.6-.17-.35-.06-.69-.12-1.03-.2-.68-.16-1.36-.35-2.02-.59-1.35-.49-2.6-1.18-3.78-2l-.96,2.28c3.38.67,6.63,1.78,9.7,3.37l.63-2.33c-3.95.17-7.91.35-11.86.52-1.6.07-1.61,2.55,0,2.5,4.86-.16,9.71-.08,14.56.24,1.34.09,1.56-1.68.63-2.33-2.83-2-6.32-2.51-9.57-3.49-3.9-1.17-7.67-2.75-11.45-4.25-7.75-3.09-15.5-6.18-23.24-9.27-1.32-.53-2.19,1.62-.96,2.28,2.9,1.56,6.13,1.76,9.34,2.1,3.42.36,6.76,1.19,10,2.32,6.5,2.27,12.5,5.76,18.44,9.2l.96-2.28c-5.79-1.96-11.36-4.46-16.67-7.48l-.96,2.28c4.29,1.65,9,1.78,13.19,3.74,3.87,1.81,7.31,4.37,11.28,6,1.3.53,2.24-1.68.96-2.28-3.5-1.66-7.32-1.84-11.08-2.46-4.13-.68-8.19-1.73-12.14-3.11-1.52-.53-2.18,1.88-.66,2.41h0Z" fill="#e6f5f8"/>
      </g>
      <path d="M189.92,17.04c2.62,1.12,5.25,2.26,7.55,3.95l1.44-3.43c-.38-.15-.77-.3-1.15-.45-.18-.07-.36-.14-.53-.22-.1-.04-.2-.08-.3-.13.2.08.19.08,0,0-.7-.3-1.4-.61-2.1-.94-1.44-.67-2.85-1.39-4.24-2.15-.86-.47-2.08-.24-2.57.67s-.25,2.06.67,2.57c2.97,1.63,6.06,3.05,9.22,4.26.87.33,1.88-.3,2.21-1.09.39-.92,0-1.78-.77-2.34-2.3-1.7-4.94-2.83-7.55-3.95-.48-.21-.92-.33-1.44-.19-.43.12-.91.46-1.12.86-.43.81-.29,2.15.67,2.57h0Z" fill="#e5f4f8"/>
    </g>
    <path d="M141.23,6.14c-4.5,2.71-9.01,5.4-13.51,8.12-4.17,2.52-7.78,5.42-10.65,9.39-.76,1.05.09,2.39,1.12,2.75,6.42,2.29,13.24.83,19.73-.34,6.92-1.25,13.93-1.7,20.95-1.33,2.44.13,2.36-3.52,0-3.75-3.21-.31-6.44-.47-9.66-.45-2.9.02-5.98.01-8.52,1.59-1.71,1.06-.81,3.26.95,3.49,3.51.47,7.06.61,10.59.79s7.26.44,10.89.5c7.34.12,14.7-.8,22.01-1.42,1.65-.14,2.44-1.93,1.33-3.2-1.37-1.56-1.32-3.82-1.18-5.76s.92-4.74-.15-6.5c-.99-1.63-3.68-2.27-5.38-2.71-2.1-.54-4.29-.77-6.45-.88-4.75-.24-9.53-.12-14.29-.15-5.14-.03-10.29-.06-15.43-.09-2.43-.01-2.4,3.63,0,3.75,13.99.69,27.97,1.38,41.96,2.07v-3.75c-9.24-.36-18.52-.75-27.76-.23-7.72.43-15.9,1.66-22.39,6.19-3.25,2.27-6.95,7.14-11.41,6.42l.45,3.43c4.82-3.38,9.65-6.75,14.47-10.13.96-.67,1.97-1.6,3.08-2s2.38.45,3.42.76c2.61.76,5.38.79,8.08.8l-.5-3.68c-4.91,1.36-9.85,2.77-14.43,5.04-2.22,1.1-4.29,2.44-6.21,3.99-1.19.96-3.68,3.39-5.23,1.75l-.83,3.13c4.77-.98,9.7.1,14.47-.96,1.98-.44,4.88-1.59,3.89-4.19-.82-2.15-3.67-3.55-5.72-4.21-1.67-.53-2.79,1.37-2.12,2.75,1.05,2.15,2.86,3.84,5.07,4.75,2.36.97,5.53.77,6.59-1.95s-1.48-4.75-3.79-5.55-5.02-.53-7.23.66c-1.71.92-.83,3.41.95,3.49,3.56.16,7.18-.34,10.54-1.55,1.44-.52,3.35-1.09,3.8-2.78.19-.72.06-1.52-.31-2.16-.14-.26-.34-.48-.52-.71-.12-.15-.37-.63-.32-.18l-2.37,1.81c4.87,1.46,9.79,2.78,14.74,3.95,1.49.35,3.07-1.33,2.12-2.75-1.28-1.9-3.74-2.55-5.74-3.44-2.31-1.03-4.63-2.06-6.94-3.09-.86-.39-1.81-.31-2.42.48-.53.68-.57,1.86.15,2.46,4.63,3.87,9.26,7.74,13.89,11.61l2.27-2.94c-6.07-2.69-12.15-5.38-18.22-8.07-1.89-.84-3.79,1.29-2.27,2.94,3.36,3.68,7.32,6.79,11.68,9.2l1.44-3.43c-4.83-1.13-9.66-2.26-14.49-3.38l-1,3.62c9,1.36,18.04,2.42,27.1,3.14,1.57.12,2.55-2.18,1.33-3.2-3.9-3.28-8.02-6.29-12.33-9l-1.89,3.24c4.64,2.59,9.57,4.62,14.69,6.06,1.43.4,3.16-1.4,2.12-2.75-2.57-3.33-5.62-6.15-9.21-8.36l-1.89,3.24c1.64.9,3.29,1.79,4.93,2.69,1.28.7,2.68,1.35,3.52,2.6,1.54,2.3,2.05,5.07,4.66,6.5,1.31.72,2.71-.21,2.82-1.62.24-3.09-1.02-6.17-3.34-8.22-.94-.83-2.91-.68-3.13.83-.41,2.76-.07,5.32,1.11,7.85l2.57-2.57c-2.72-1.35-5.56-2.14-8.58-2.39-1.62-.14-2.47,2.14-1.33,3.2,3.35,3.1,7.66,4.63,12.12,5.28,1.13.17,2.27.3,3.42.39,1.03.08,2.2.3,3.19-.07,1.15-.44,1.56-1.51,1.59-2.65.04-1.43-.09-2.89-.13-4.32-.04-1.28-.08-2.56-.12-3.84s.07-2.74-.2-4.02c-.59-2.74-3.59-2.83-5.83-2.55-2.75.34-5.43,1.17-8.1,1.85s-5.59,1.41-8.39,2.09c-5.52,1.35-11.05,2.64-16.59,3.88-2.73.61-5.47,1.21-8.2,1.79-.64.14-1.29.27-1.93.41-.43.09-1.62.12-1.93.41l-.28.05.32.28c0-.14-.06-.35-.06-.51,0-.54.2-1.07.46-1.54,1.05-1.95,2.98-3.24,4.35-4.94.73-.91,1.36-1.86,1.76-2.96.18-.5.29-.98.35-1.51.03-.27.06-.54.05-.81,0-1.28-.71.25-.79.07.06.12,1.86.19,2.05.21.66.07,1.32.14,1.98.21,1.49.16,2.98.32,4.47.48,2.81.3,5.62.61,8.43.91,1.57.17,3.14.34,4.71.51.98.11,2.6-.13,3.04.9,1.09,2.54,1.56,5.62,1.89,8.35-.01-.1.08.47.06.52.13-.37-.47.13-.62.21-.67.37-1.34.74-2.02,1.09-1.21.63-2.43,1.25-3.69,1.76-2.8,1.11-5.86,1.78-8.86,1.17-2.36-.48-3.36,3.13-1,3.62,5.72,1.17,11.08-.96,16.05-3.62.97-.52,2.19-1.01,2.97-1.82.96-1.02.94-2.3.77-3.59-.36-2.82-.92-5.63-1.83-8.33-.36-1.07-.79-2.08-1.7-2.78-1.04-.81-2.32-.91-3.58-1.04-2.98-.32-5.95-.64-8.93-.96s-5.95-.64-8.93-.96c-1.49-.16-2.98-.33-4.47-.48-1.27-.13-2.5-.04-3.3,1.1-.74,1.05-.28,2.16-.57,3.3s-1.12,2.06-1.89,2.87c-1.65,1.74-3.5,3.3-4.44,5.56-.88,2.12-.86,5.38,1.7,6.31,1.14.42,2.35.06,3.5-.18,1.61-.34,3.22-.68,4.83-1.03,11.59-2.5,23.12-5.26,34.59-8.22,1.63-.42,3.27-.88,4.96-.97.29-.01.62.04.9-.01.13,0,.26.01.38.06-.25-.4-.34-.45-.3-.16-.22.32.06,1.89.07,2.32.05,1.68.1,3.36.15,5.05.02.8.05,1.6.07,2.4,0,.29-.03.69.03.96-.1.65.06.66.47.03.61-.38.63-.54.07-.47-.51-.21-1.38-.09-1.94-.14-.61-.05-1.23-.12-1.84-.2-1.29-.18-2.57-.43-3.82-.77-2.53-.69-4.9-1.79-6.84-3.58l-1.33,3.2c2.33.2,4.59.84,6.69,1.88,1.74.87,3.36-.86,2.57-2.57-.71-1.53-.98-3.29-.73-4.96l-3.13.83c1.65,1.46,2.41,3.38,2.24,5.57l2.82-1.62c-1.08-.59-1.57-1.71-2.08-2.78-.6-1.26-1.19-2.49-2.12-3.55-1.08-1.22-2.57-2.01-3.98-2.78-1.64-.9-3.29-1.79-4.93-2.69-2.12-1.16-3.95,1.97-1.89,3.24,3,1.86,5.7,4.22,7.86,7.02l2.12-2.75c-4.82-1.35-9.42-3.24-13.79-5.68-2.12-1.18-3.93,1.95-1.89,3.24,4.05,2.54,7.91,5.35,11.57,8.42l1.33-3.2c-8.74-.7-17.44-1.69-26.11-3.01-1.01-.15-2,.25-2.31,1.31-.27.95.33,2.08,1.31,2.31,4.83,1.13,9.66,2.26,14.49,3.38,2.01.47,3.37-2.37,1.44-3.43-4.11-2.27-7.76-5.15-10.92-8.62l-2.27,2.94,18.22,8.07c.87.38,1.81.31,2.42-.48.53-.68.57-1.86-.15-2.46-4.63-3.87-9.26-7.74-13.89-11.61l-2.27,2.94c2.02.9,4.03,1.8,6.05,2.7.97.43,1.94.87,2.91,1.3.6.27,2,.64,2.38,1.2l2.12-2.75c-4.95-1.18-9.86-2.49-14.74-3.95-1.06-.32-2.52.59-2.37,1.81.08.67.22,1.22.59,1.79.16.25.37.48.56.71.3.36.04.25.06.04l.26-.95c-.2.42-1.82.77-2.23.9-.94.3-1.89.55-2.86.74-1.92.38-3.87.47-5.83.38l.95,3.49c1-.54,2.13-.75,3.26-.57.52.08,1.02.25,1.49.48.24.12.47.36.72.44l.21.21c.03-.26.01-.34-.05-.24-2.1.51-4.08-1.62-4.93-3.35l-2.12,2.75c.71.23,1.35.53,1.98.93.27.18.52.37.77.58.14.12.63.84.49.45v-1l.28-.28c-.21.07-.41.14-.63.2-.35.1-.7.2-1.05.28-.62.14-1.24.23-1.87.29-1.39.13-2.79.13-4.18.13-2.83-.01-5.64-.03-8.42.54-1.44.3-1.74,2.17-.83,3.13,4.46,4.74,10-1.74,13.77-3.96,4.86-2.86,10.35-4.37,15.74-5.86,2.04-.56,1.63-3.67-.5-3.68-2.76-.01-5.5-.05-8.13-1.02-1.31-.48-2.59-.87-3.99-.51-1.33.33-2.44,1.15-3.54,1.92-5.1,3.57-10.19,7.13-15.29,10.7-1.17.82-1.29,3.15.45,3.43,4.36.71,7.9-1.53,11.11-4.22s6.21-4.69,10.07-5.97c8.04-2.66,16.88-2.58,25.25-2.51,5.38.04,10.76.25,16.14.46,2.42.09,2.4-3.63,0-3.75-13.99-.69-27.97-1.38-41.96-2.07v3.75c9.47.05,18.96-.09,28.42.19,1.99.06,3.98.19,5.93.6,1.03.22,2.05.51,3.03.9.39.16.86.32,1.2.57-.31-.53-.42-.5-.31.1,0,.31-.01.63-.03.94-.22,4.14-.97,8.3,2.01,11.7l1.33-3.2c-7.31.62-14.67,1.53-22.01,1.42-3.55-.06-7.1-.3-10.65-.49s-7.24-.33-10.83-.81l.95,3.49c2.19-1.36,5.12-1.09,7.6-1.08,2.9.01,5.8.17,8.69.45v-3.75c-6.9-.37-13.8.06-20.61,1.23-6.28,1.08-12.85,2.8-19.08.58l1.12,2.75c2.69-3.71,6.22-6.19,10.1-8.52,4.24-2.55,8.48-5.09,12.72-7.64,2.07-1.24.18-4.49-1.89-3.24h0Z" fill="#e5f4f8"/>
    <path d="M192.01,83.04c20.42.31,40.83.43,61.25.33,5.82-.03,11.64-.07,17.45-.13,3.22-.03,3.22-5.03,0-5-20.43.21-40.86.21-61.29.02-5.8-.06-11.61-.13-17.41-.22-3.22-.05-3.22,4.95,0,5h0Z" fill="#e95c46"/>
    <path d="M33.93,83.77c4.93.47,9.87.16,14.8-.16,1.35-.09,2.5-1.09,2.5-2.5,0-1.33-1.14-2.54-2.5-2.5-2.46.06-4.91.2-7.36.4-3.2.27-3.23,4.77,0,5,2.59.18,5.18.22,7.77.12,2.08-.08,3.4-2.72,1.77-4.27-.37-.35-.76-.63-1.2-.88-1.04-.59.16.15-.04.38.04-.04.03-.55.05-.65.05-.46.15-.91.25-1.36.33-1.53.8-3.05,1.48-4.47,1.38-2.88,3.36-5.54,5.91-7.5,1.07-.82,1.64-2.15.9-3.42-.61-1.05-2.34-1.73-3.42-.9-3.52,2.71-6.37,6.14-8.13,10.25-.86,2.01-1.52,4.08-1.83,6.25-.18,1.26-.34,2.48.19,3.68.3.68.77,1.22,1.39,1.65.16.11.32.2.48.3.03.02.58.36.44.23l1.77-4.27c-2.59.1-5.18.06-7.77-.12v5c2.45-.21,4.9-.34,7.36-.4v-5c-4.93.32-9.87.63-14.8.16-1.35-.13-2.5,1.24-2.5,2.5,0,1.46,1.15,2.37,2.5,2.5h0Z" fill="#ec008c"/>
    <path d="M85.1,84.31l14.12-.16c4.73-.05,9.43-.07,14.12-.8,1.34-.21,2.07-1.88,1.75-3.08-.39-1.42-1.74-1.95-3.08-1.75-4.38.68-8.86.58-13.28.63l-13.62.16c-3.22.04-3.22,5.04,0,5h0Z" fill="#e95c46"/>
    <ellipse cx="230.14" cy="79.37" rx="9.45" ry="9.18" fill="#a7a9ac" stroke="#a7a9ac" stroke-miterlimit="10" stroke-width="5"/>
    <g>
      <g>
        <path d="M99.53,44.7c7.13-6.58,15.27-11.39,24.11-15.29,9.33-4.12,18.7-8.14,28.58-10.78,5.52-1.47,11.14-2.57,16.81-3.27,1.58-.2,1.6-2.7,0-2.5-10.32,1.28-20.43,3.77-30.15,7.46-4.92,1.87-9.75,3.98-14.58,6.09s-9.24,4.1-13.57,6.72c-4.65,2.81-8.98,6.12-12.97,9.8-1.18,1.09.59,2.86,1.77,1.77h0Z" fill="#e5f4f8"/>
        <path d="M167.64,14.94c.1,9.4-.04,18.8-.4,28.19-.06,1.61,2.44,1.61,2.5,0,.36-9.39.5-18.79.4-28.19-.02-1.61-2.52-1.61-2.5,0h0Z" fill="#e5f4f8"/>
        <path d="M99.71,45.62c17.61-.53,35.23-.8,52.85-.78,5.05,0,10.09.03,15.14.08,2.41.02,2.42-3.73,0-3.75-17.62-.18-35.24-.08-52.85.3-5.04.11-10.09.24-15.13.39-2.41.07-2.42,3.82,0,3.75h0Z" fill="#e5f4f8"/>
      </g>
      <path d="M106.77,43.05c7.05-4.17,14.3-7.99,21.74-11.42s14.93-6.56,22.87-8.45c4.46-1.06,8.99-1.75,13.56-2.07l-1.88-1.88c0,5,.01,9.99.02,14.99,0,1.17,0,2.33,0,3.5,0,.06-.02.79,0,.8l.31-.44c.43-.35.45-.5.07-.45-.37-.24-1.75-.11-2.21-.14-2.37-.14-4.75-.23-7.13-.29-9.75-.23-19.5.25-29.19,1.33-5.4.6-10.93,1.3-16.35.51v3.62c10.3-1.43,20.66-2.92,30.46-6.57,1.89-.7,1.74-3.7-.5-3.68-5.37.04-10.73.6-16,1.64l1.44,3.43c4.1-2.53,8.38-4.78,12.83-6.64,1.94-.81,1.7-3.48-.5-3.68-6.74-.62-12.22,4-18.37,5.83-2.01.6-1.65,3.68.5,3.68,3.01,0,6.73-1.74,9.54-.17.48.27.91.61,1.2,1.08.05.09.29.76.29.76-.15-.06,1.57-.85-.07-.52-1.9.39-3.81.63-5.74.78l.5,3.68c11.94-2.02,23.89-4.18,35.02-9.15,1.32-.59,1.12-2.59,0-3.24-3.06-1.76-6.25-3.25-9.54-4.5-1.31-.5-2.76,1.02-2.31,2.31,1.4,3.98,3.44,7.64,6.17,10.85,1.23,1.45,2.89,2.93,4.94,2.29,1.85-.58,2.61-2.56,2.94-4.28l-3.68-.5c.03.37.26,1.75-.13,2.02.1-.07-1.21-.18-1.38-.19-.49-.03-.99-.06-1.48-.1-2.47-.16-4.95-.32-7.42-.49-.66-.04-1.32-.09-1.98-.13-.13,0-1.35-.2-1.22.06-.13-.27.59-1.37.79-1.7,1.06-1.76,2.42-3.29,3.92-4.69,2.92-2.71,6.42-5.15,9.9-7.08.44-.24.89-.48,1.36-.65.28-.1.56-.18.84-.25.31-.02.21-.15-.32-.4-.11.05-.03,2.77-.06,3.07-.18,2.29-.78,4.52-1.62,6.65l3.13-.83c-.77-.74-1.39-1.56-1.84-2.53-.32-.69-.93-2.01-.4-2.67.59-.74,1.95-1.24,2.75-1.73,1.22-.74,2.43-1.48,3.65-2.21l-2.75-1.12c.71,5.01.71,10.11.14,15.13-.12,1.01.94,1.88,1.88,1.88,1.11,0,1.76-.86,1.88-1.88.62-5.39.49-10.77-.27-16.13-.17-1.21-1.82-1.68-2.75-1.12-1.62.98-3.24,1.97-4.86,2.95-1.35.82-2.82,1.64-3.36,3.23-1.04,3.04,1.18,6.82,3.3,8.85,1.1,1.05,2.62.47,3.13-.83.94-2.38,1.51-4.87,1.74-7.42.18-2.03.57-5.09-1.53-6.27s-4.74.32-6.5,1.37c-1.99,1.19-3.93,2.52-5.81,3.89-3.57,2.59-7.1,5.64-9.18,9.6-.97,1.84-1.42,4.42.57,5.78.98.66,2.11.7,3.26.78,1.4.09,2.8.19,4.2.28,1.57.1,3.13.21,4.7.31,1.45.09,3.11.44,4.55.14,2.58-.54,3.11-3.34,2.94-5.58-.16-1.96-3.26-2.72-3.68-.5-.1.51-.31.99-.4,1.49,0-.02-.23.43-.11.24h.28c-.15-.09-.29-.19-.4-.32-.97-.84-1.77-2-2.5-3.05-1.55-2.23-2.79-4.66-3.69-7.22l-2.31,2.31c2.99,1.14,5.87,2.53,8.65,4.12v-3.24c-10.79,4.82-22.55,6.81-34.12,8.77-2.07.35-1.61,3.85.5,3.68,1.46-.11,2.91-.28,4.35-.5,1.18-.18,2.57-.25,3.64-.79,2.41-1.22,1.63-4.37.25-6.1s-3.39-2.55-5.48-2.78c-2.68-.29-5.3.72-7.98.72l.5,3.68c5.75-1.71,11.13-6.27,17.38-5.7l-.5-3.68c-4.76,1.99-9.34,4.31-13.73,7.02-1.86,1.15-.61,3.83,1.44,3.43,4.95-.98,9.96-1.47,15-1.51l-.5-3.68c-9.79,3.65-20.16,5.14-30.46,6.57-1.8.25-1.79,3.35,0,3.62,5.23.77,10.43.39,15.66-.18s10.57-1.09,15.88-1.34,10.49-.3,15.74-.16c2.62.07,5.25.19,7.86.36,1.16.08,2.37.18,3.28-.69.86-.83.84-2.06.84-3.16,0-6.08-.02-12.16-.02-18.24,0-.96-.86-1.95-1.88-1.88-8.36.59-16.61,2.32-24.48,5.21s-15.52,6.44-22.96,10.27c-4.28,2.2-8.49,4.53-12.63,6.98-2.08,1.23-.19,4.47,1.89,3.24h0Z" fill="#e5f4f8"/>
      <path d="M147.35,24.3c-3.59.56-7,1.99-9.95,4.1-1.27.91-1.2,2.96.45,3.43,4.38,1.23,8.76-.07,13.19.32,2.26.2,3.8,1.2,5.49,2.64,1.82,1.56,3.84,2.71,6.18,3.29,1.21.3,2.33-.58,2.37-1.81.12-3.22-1.44-6.65-.66-9.83.33-1.34,1.12-2.49,1.76-3.7.73-1.37,1.22-2.74,1.35-4.29.2-2.4-3.55-2.39-3.75,0-.11,1.31-.87,2.45-1.48,3.57-.76,1.37-1.43,2.76-1.66,4.32-.5,3.35.82,6.59.69,9.93l2.37-1.81c-2.3-.58-3.88-1.85-5.67-3.32s-3.83-2.36-6.18-2.66c-4.32-.55-8.76.91-13-.27l.45,3.43c2.73-1.95,5.74-3.2,9.06-3.72,1-.16,1.56-1.41,1.31-2.31-.3-1.07-1.3-1.47-2.31-1.31h0Z" fill="#e5f4f8"/>
    </g>
    <path d="M47.45,40.32c16.52,1.15,32.87-.61,48.94-4.48,3.13-.75,1.8-5.57-1.33-4.82-7.75,1.87-15.55,3.35-23.5,4.07s-16.08.79-24.11.23c-1.35-.09-2.5,1.22-2.5,2.5,0,1.43,1.15,2.41,2.5,2.5h0Z" fill="#e95c46"/>
    <path d="M242.05,59.46c2.2,2.9,4.92,6.07,5.97,9.64,1.11,3.82-.53,7.15,2.5,10.52,2.44,2.72,5.59,2.9,8.97,2.92,4.36.03,8.85-.03,13.21-.33,7.72-.53,13.88-3.9,16.16-11.65,2.39-8.15-1.73-14.86-7.62-20.15-7.17-6.43-17.81,4.14-10.61,10.61,1.97,1.76,6.33,5.31,2.08,6.2-2.29.48-5.06.13-7.41.19-2.89.07-5.92.41-8.79.06l5.3,2.2-.67-.64,2.2,5.3c.22-8.93-3-15.42-8.31-22.42-2.46-3.25-6.44-4.87-10.26-2.69-3.2,1.82-5.13,7.04-2.69,10.26h0Z" fill="#e95c46"/>
    <path d="M270.41,44.01c1.5.19,2.73.33,4.13.9l-3.31-1.93c-.52-.5-.15.71-.11,1.57.06,1.41.09,2.83.14,4.24.1,3.11.2,6.22.3,9.33.31,9.63,15.32,9.67,15,0-.21-6.43.51-13.82-1.25-20.06-2.06-7.3-8.4-8.21-14.9-9.05-4.02-.52-7.5,3.82-7.5,7.5,0,4.48,3.46,6.98,7.5,7.5h0Z" fill="#e95c46"/>
    <line x1="102.82" y1="32.12" x2="135.09" y2="5.58" fill="none" stroke="#e95c46" stroke-miterlimit="10" stroke-width="6"/>
    <line x1="145.18" y1="3.53" x2="204.61" y2="8.47" fill="none" stroke="#e95c46" stroke-miterlimit="10" stroke-width="5"/>
    <path d="M146.38,6.27c8.4,0,16.76.9,25.1,1.82,1.34.15,2.5-1.26,2.5-2.5,0-1.48-1.15-2.35-2.5-2.5-8.34-.92-16.7-1.82-25.1-1.82-3.22,0-3.22,5,0,5h0Z" fill="#e95c46"/>
    <path d="M135.61,8.82c.22-.18.23-.19.02-.03.12-.09.24-.18.36-.27.18-.13.37-.25.56-.37.44-.28.91-.53,1.38-.76.14-.07.27-.13.41-.19-.25.1-.24.1.03-.01.21-.08.42-.16.64-.24.5-.17,1-.32,1.52-.45.56-.14,1.12-.25,1.69-.34.8-.14-.48.04.32-.05.33-.04.66-.07.99-.09,1.16-.09,2.33-.09,3.5-.06,1.31.04,2.56-1.18,2.5-2.5-.06-1.39-1.1-2.46-2.5-2.5-5.37-.16-10.73.82-14.95,4.33-1.01.84-.93,2.68,0,3.54,1.07.99,2.46.89,3.54,0h0Z" fill="#ec008c"/>
    <path d="M148.67,6.27h2.48c.34.01.67-.06.96-.22.31-.1.58-.27.8-.52.24-.23.42-.49.52-.8.16-.3.23-.62.22-.96l-.09-.66c-.12-.42-.33-.79-.64-1.1-.49-.45-1.09-.73-1.77-.73h-2.48c-.34-.01-.67.06-.96.22-.31.1-.58.27-.8.52-.24.23-.42.49-.52.8-.16.3-.23.62-.22.96l.09.66c.12.42.33.79.64,1.1.49.45,1.09.73,1.77.73h0Z" fill="#e95c46"/>
    <path d="M196.32,10.3c1.36.26,2.63.21,3.99.12.56-.04,1.11-.03,1.67-.05s-.23-.1.27.03c.3.08.59.15.88.27-.47-.19.24.14.33.19.23.13.46.26.7.39.54.31,1.08.62,1.63.94,1.16.67,2.32,1.34,3.48,2s2.79.3,3.42-.9.31-2.72-.9-3.42-2.32-1.34-3.48-2-2.36-1.41-3.63-1.93-2.56-.62-3.88-.55c-.56.03-1.12.09-1.68.12-.32.02-.64.03-.95.02-.16,0-.32-.01-.47-.03.27.04.26.04-.04-.02-1.28-.25-2.76.36-3.08,1.75-.28,1.23.37,2.81,1.75,3.08h0Z" fill="#e95c46"/>
    <path d="M66,61.22c3.95,1.9,8.06,3.61,11.85,5.81,1.52.88,2.98,1.92,3.89,3.46.79,1.33,1.2,2.84,1.74,4.28.64,1.69,1.38,3.3,2.6,4.66,1.39,1.54,3.4,2.42,5.4,2.86,4.51.98,9.28,1.22,13.88,1.13,3.21-.06,3.22-5.06,0-5-4.26.08-8.78-.02-12.94-1.04-1.48-.37-2.61-.99-3.39-2.34s-1.15-2.83-1.7-4.25c-1.44-3.72-3.83-6.32-7.32-8.26-3.72-2.07-7.68-3.77-11.51-5.61-1.22-.58-2.7-.33-3.42.9-.64,1.09-.33,2.83.9,3.42h0Z" fill="#e95c46"/>
    <path d="M83.8,75.19c.3,2.38.72,4.73,1.33,7.05.27,1.04,1.33,1.86,2.41,1.84,10.79-.23,21.58-.46,32.37-.69s21.34-.28,31.98-1c6.07-.41,12.12-1.07,18.11-2.14,1.33-.24,2.08-1.86,1.75-3.08-.39-1.4-1.74-1.98-3.08-1.75-10.29,1.83-20.76,2.31-31.2,2.57s-21.17.46-31.76.69c-6.06.13-12.12.26-18.18.39l2.41,1.84c-.49-1.88-.9-3.79-1.15-5.73-.17-1.34-1.03-2.5-2.5-2.5-1.22,0-2.67,1.15-2.5,2.5h0Z" fill="#ec008c"/>
    <g>
      <path d="M7.8,55.6c1.11-1.36,2.46-2.52,3.81-3.65.1-.08.56-.42.2-.17.18-.13.37-.26.56-.38s.39-.22.59-.33c-.4.2.26-.08.3-.09.43-.13.86-.19,1.29-.3.18-.03.16-.03-.07,0,.12-.01.24-.03.36-.04.24-.02.48-.04.72-.04.44-.01.88.01,1.32.05-.51-.05.23.05.28.06.25.05.59.26.15,0l-.75-.92c-.03-.37-.05-.4-.04-.12l.04-.3c-.08.27-.06.24.07-.07,0,.12-.37.44-.11.21.12-.15.1-.15-.06.02.24-.18.29-.22.13-.12-.18.11.33-.06-.09.03-.22.05-.44.12-.66.17-.47.12-.95.23-1.42.34-.24.05-.48.1-.72.14-.1.02-.79.12-.29.06-.48.06-.96.08-1.45.08-1.31,0-2.56,1.15-2.5,2.5s1.1,2.5,2.5,2.5,2.87-.24,4.26-.56,2.74-.61,3.77-1.59,1.61-2.37,1.52-3.76c-.13-1.96-1.52-3.16-3.37-3.48-2.73-.47-5.88-.23-8.29,1.26-1.08.66-2.04,1.54-2.99,2.37s-1.82,1.65-2.6,2.6c-.83,1.01-1.06,2.56,0,3.54.92.84,2.65,1.08,3.54,0h0Z" fill="#fdf6b0"/>
      <path d="M4.11,52.37c-.59.9-1.07,2.12-.25,3.06.39.44.93.53,1.47.62s1.06.15,1.6.21c1.91.21,3.92.34,5.83.07.65-.09,1.06-.95.87-1.54-.23-.71-.84-.97-1.54-.87.11-.02.09-.02-.07,0-.09,0-.18.01-.27.02-.18,0-.37.01-.55.02-.35,0-.7,0-1.05,0-.73,0-1.45-.04-2.18-.1-.37-.03-.75-.07-1.12-.11-.34-.04-.57-.07-.86-.11-.18-.03-.37-.08-.55-.09-.52-.02.67.46.44.83.02-.07.04-.14.06-.21-.04.11-.03.1.04-.05.1-.16.18-.32.29-.48.36-.55.13-1.41-.45-1.71-.63-.33-1.33-.14-1.71.45h0Z" fill="#fdf6b0"/>
      <path d="M3.55,53.5c-.43,1.19,0,2.51,1.31,2.84,1.08.27,2.23-.03,3.3-.18.94-.13,1.88,0,2.83-.02,1.13-.01,2.27-.17,3.37-.45.65-.17,1.05-.9.87-1.54s-.88-1.04-1.54-.87c-.75.19-1.5.32-2.27.35s-1.59-.05-2.39-.04-1.61.19-2.42.29c-.17.02-.35.04-.52.05-.09,0-.6-.06-.65,0,.09-.09.36.32.32.24.02.46.05.55.1.27.03-.09.06-.19.1-.28.23-.63-.26-1.37-.87-1.54-.7-.19-1.3.24-1.54.87h0Z" fill="#fdf6b0"/>
      <path d="M4.82,56.3c2.53.65,5.15.12,7.72.14,2.16.02,5.37-.14,6.62-2.25.82-1.39-1.34-2.65-2.16-1.26-.35.59-1.44.72-2.05.86-1.04.22-2.11.14-3.17.15-2.09.01-4.24.48-6.3-.05-1.56-.4-2.22,2.01-.66,2.41h0Z" fill="#fdf6b0"/>
      <path d="M18.85,46.04l-.28-.06-.33,2.46c.46-.01,1.12.52,1.37.92.33.52.24,1.3.22,1.89-.05,1.33-1.01,2.17-2.22,2.59-1.49.51-3.13.63-4.68.75-1.69.13-3.42.22-5.1-.1-.66-.13-1.35.19-1.54.87-.17.61.21,1.41.87,1.54,2.26.43,4.54.33,6.82.1,2.08-.21,4.43-.4,6.17-1.68s2.34-3.19,2.15-5.34c-.09-1.07-.46-2.02-1.28-2.75-.77-.69-1.72-1.31-2.79-1.28-1.35.04-1.77,2.17-.33,2.46l.28.06c1.57.32,2.24-2.09.66-2.41h0Z" fill="#fdf6b0"/>
      <path d="M7.4,54.46c-.29,0-.58-.03-.86-.07l.33.04c-.38-.05-.76-.11-1.12-.25l.3.13c-.11-.05-.21-.1-.31-.18l.25.2c-.06-.05-.11-.1-.16-.16l.2.25c-.04-.06-.08-.12-.11-.19l.13.3c-.03-.07-.05-.13-.06-.21l.04.33c0-.07,0-.14,0-.21l-.04.33s.02-.09.04-.13l-.13.3s.03-.06.05-.09c.17-.26.21-.66.13-.96s-.3-.6-.57-.75c-.62-.33-1.33-.14-1.71.45-.66,1.02-.04,2.41,1,2.87.4.18.79.28,1.22.35.46.07.92.13,1.38.14.32,0,.66-.14.88-.37s.38-.57.37-.88c-.03-.69-.55-1.23-1.25-1.25h0Z" fill="#fdf6b0"/>
      <path d="M5.6,56.64c.79.38,1.66.44,2.52.51s1.65.07,2.47.02c1.6-.09,3.39-.25,4.78-1.12.57-.36.8-1.11.45-1.71s-1.14-.81-1.71-.45c-.97.61-2.32.72-3.52.78-.71.04-1.43.04-2.14,0-.33-.02-.66-.05-.99-.08,0,0-.48-.07-.26-.03-.09-.01-.18-.03-.26-.06-.15-.05-.17-.05-.07-.02-.61-.29-1.35-.17-1.71.45-.32.55-.16,1.42.45,1.71h0Z" fill="#fdf6b0"/>
    </g>
    <ellipse cx="66.48" cy="79.7" rx="9.45" ry="9.18" fill="#a7a9ac" stroke="#a7a9ac" stroke-miterlimit="10" stroke-width="5"/>
    <path d="M101.03,51.21c2.56,3.21,5.31,6.25,8.23,9.12l3.03-3.93c-4.39-1.96-8.56-4.36-12.45-7.18l-2.52,4.32c10.22,5.48,21.66,8.68,31.02,15.7l.6-4.57c-.9.35-1.67.46-2.57.05-1.05-.49-1.94-1.17-3.09-1.46-2.22-.56-4.57.13-6.74-.53-3.09-.93-4.41,3.89-1.33,4.82,1.31.4,2.67.46,4.03.43,1.07-.02,2.25-.17,3.26.28,1.13.5,2.07,1.25,3.3,1.53,1.49.34,3.05.25,4.47-.3,2.11-.82,2.37-3.24.6-4.57-9.36-7.02-20.81-10.22-31.02-15.7-2.89-1.55-5.09,2.46-2.52,4.32,3.9,2.82,8.06,5.22,12.45,7.18,1.14.51,2.43.42,3.23-.64.73-.98.71-2.39-.2-3.28-2.93-2.88-5.67-5.92-8.23-9.12-.84-1.06-2.66-.88-3.54,0-1.04,1.04-.85,2.48,0,3.54h0Z" fill="#e95c46"/>
    <path d="M36.43,79.9c9.65,0,9.67-15,0-15s-9.67,15,0,15h0Z" fill="#e95c46"/>
    <path d="M.82,65.15c2.22,5.94,4.76,12.19,10.43,15.64,2.9,1.77,6.12,2.1,9.45,2.15,3.54.05,7.08.22,10.6-.34,1.33-.21,2.08-1.88,1.75-3.08-.39-1.42-1.74-1.96-3.08-1.75-2.88.46-5.9.21-8.81.17-2.6-.04-5.1-.08-7.38-1.47-4.46-2.71-6.4-8.01-8.13-12.65-.47-1.26-1.69-2.13-3.08-1.75-1.21.33-2.22,1.8-1.75,3.08h0Z" fill="#e95c46"/>
    <path d="M223.84,41.8c4.02.25,8.04.36,12.06.34s7.5-3.43,7.5-7.5c0-4.36-3.45-7.14-7.5-7.5-1.12-.1-2.17-.12-3.3-.07-9.6.43-9.71,15.02,0,15,2.05,0,4.1,0,6.14-.01,9.65-.02,9.67-15.02,0-15-2.05,0-4.1,0-6.14.01v15c1.13-.05,2.17-.03,3.3.07v-15c-4.03.02-8.04-.09-12.06-.34s-7.5,3.63-7.5,7.5c0,4.27,3.44,7.25,7.5,7.5h0Z" fill="#e95c46"/>
    <path d="M227.94,41.76l8.9.03c3.92.01,7.68-3.46,7.5-7.5s-3.3-7.49-7.5-7.5l-8.9-.03c-3.92-.01-7.68,3.46-7.5,7.5s3.3,7.49,7.5,7.5h0Z" fill="#e95c46"/>
    <path d="M226.89,41.66c4.17.18,8.32.12,12.48-.18,3.9-.28,7.69-3.25,7.5-7.5-.17-3.82-3.31-7.8-7.5-7.5s-8.31.36-12.48.18c-3.92-.17-7.68,3.57-7.5,7.5.19,4.21,3.3,7.32,7.5,7.5h0Z" fill="#e95c46"/>
    <path d="M227.66,41.69c3.66-.05,7.31.04,10.96.28,3.92.26,7.67-3.63,7.5-7.5-.19-4.29-3.3-7.22-7.5-7.5-3.65-.24-7.3-.34-10.96-.28-3.92.06-7.68,3.41-7.5,7.5s3.3,7.56,7.5,7.5h0Z" fill="#e95c46"/>
    <path d="M133.03,2.92c-5.71,5.53-12.31,10.07-17.81,15.82-1.67,1.74.98,4.4,2.65,2.65,5.5-5.75,12.1-10.3,17.81-15.82,1.74-1.68-.92-4.33-2.65-2.65h0Z" fill="#e95c46"/>
    <g>
      <path d="M217.38,64.61c2.66-1.62,5.33-3.26,8.43-3.86s6.75-.48,9.9-.07c5.18.68,9.99,3.5,12.36,8.25l3.42-3.42c-4.81-3.58-10.49-6.04-16.39-7.09s-12.9-1.25-18.39,1.66c-2.54,1.35-.78,5.27,1.93,4.57,6.57-1.7,13.75-3.3,20.28-.53,5.57,2.36,9.5,7.31,10.67,13.21.26,1.33,1.84,2.09,3.08,1.75,1.38-.38,2.01-1.75,1.75-3.08-1.43-7.19-6.48-13.38-13.19-16.3-7.76-3.37-16-1.92-23.91.12l1.93,4.57c2.29-1.22,4.93-1.53,7.5-1.62s5.28.1,7.87.62c5.24,1.05,10.09,3.24,14.38,6.43.88.65,2.31.33,3.03-.39.82-.82.89-2.03.39-3.03-2.96-5.92-9.12-9.66-15.56-10.58-3.8-.54-7.84-.62-11.65-.02s-7.11,2.52-10.33,4.48c-2.74,1.68-.23,6,2.52,4.32h0Z" fill="#ec008c"/>
      <path d="M21.56,70.91c-1.73-2.43-4.8-5.56-2.82-8.33,1.62-2.27,6.38-3.27,8.83-4.1,9.18-3.11,18.4-6.15,27.8-8.52s18.69-3.7,28.3-4.35c5.01-.34,10.02-.66,15.04-.98,2.51-.16,5.03-.33,7.54-.49l3.77-.25c2.77.21,1.96-.8-2.42-3.03v-3.99c.34-1.36,1.36-.5-.19-.76-.97-.16-2.56.79-3.55,1.07-1.78.51-3.57.99-5.37,1.43-4.44,1.08-8.95,1.99-13.49,2.6-8.03,1.08-16.17.86-24.19,1.99-7.23,1.02-14.12,3.5-19.57,8.5-2.64,2.42-4.7,5.42-6.05,8.73-.51,1.25-1.05,2.54-1.19,3.89-.25,2.49-.11.14.46.39,1.22-1.29.78-1.59-1.32-.89l-1.99.16c-3.66.3-7.54.88-11.19.27-1.73-.29-5.33-1.96-5.02-3.4.2-.96,5.64-2.97,7.14-3.61,4.28-1.83,8.6-3.57,12.97-5.15,7.82-2.82,15.93-5.2,24.22-6.06s17.38-.6,26.06-.84c13.66-.37,38.42-5.86,45.42,10.53l-1.02-3.79c3.23-2.78,3.73-3.73,1.49-2.85-1.18.31-2.37.61-3.56.9-2.38.59-4.76,1.14-7.15,1.67-4.46.98-9.09,2.24-13.67,2.28-4.23.04-8.16-1.66-12.08-3.1-4.51-1.65-9.02-3.3-13.52-4.95l-3.99,14.46c4.3,1.46,7.97,6.33,7.28,11.06-.72,4.96,1.91,9.2,7.23,9.49,19.53,1.08,39.08.89,58.58-.57,6.72-.51,9.58-7.72,5.3-12.8-4.75-5.65-11.15-8.94-17.88-11.66-3.07-1.24-6.19-2.32-9.27-3.51-1.6-.61-3.17-1.26-4.7-2.02-.84-.41-1.66-.84-2.47-1.3-1.41-.84-1.59-.95-.54-.31l-.76,5.78c-1.81,1.28-1.95,1.74-.42,1.37.96-.1,1.93-.19,2.9-.28,1.29-.12,2.58-.23,3.86-.34,3.54-.29,7.09-.54,10.64-.73,6.78-.37,13.57-.54,20.36-.55,8.26-.02,10.44-12.87,1.99-14.73-11.34-2.5-22.67-5-34.01-7.5v14.46c9.82-2.2,19.87-1.75,29.86-1.33s9.63-14.59,0-15c-11.38-.48-22.67-.63-33.85,1.87-7.14,1.6-7.17,12.88,0,14.46,11.34,2.5,22.67,5,34.01,7.5l1.99-14.73c-10.35.03-20.69.43-31.01,1.28-4.65.39-10.68.06-14.91,2.21-4.62,2.35-6.38,7.5-4.61,12.27,2.74,7.41,12.97,10.34,19.64,12.83s13.7,4.82,18.53,10.55l5.3-12.8c-19.51,1.47-39.05,1.66-58.58.57l7.23,9.49c1.92-13.18-5.01-25.17-17.76-29.51-9.21-3.13-12.95,11.18-3.99,14.46,8.3,3.03,16.93,7.31,25.76,8.34,9.4,1.09,19.57-2.01,28.64-4.24,3.65-.9,7.49-1.73,10.24-4.5,3.42-3.45,3.54-8.29,1.53-12.47-3.47-7.25-10.41-12.16-17.71-15.04-8.34-3.28-17.5-3.47-26.34-3-9.66.52-19.28.73-28.95.97-19.95.48-37.7,6.08-55.91,13.88C7.44,47.32.09,51.93,0,60.61s6.6,15.51,14.5,17.77c4.2,1.2,8.65,1.17,12.96.9,4.7-.3,10.53-.03,14.88-2s5.35-5.49,6.26-9.65c.71-3.26,2.89-5.41,5.73-7.03,7.36-4.21,17-3.1,25.15-3.81,9.59-.83,19.13-2.5,28.38-5.15,7.47-2.14,18.78-7.96,13.13-17.68-4.58-7.88-16.85-4.69-24.16-4.21-10.9.71-21.84,1.19-32.62,3.02s-21.31,4.92-31.7,8.3c-8.11,2.64-18.04,4.75-24.35,10.92-8.03,7.85-5.37,18.3.48,26.51s18.57.32,12.95-7.57h0Z" fill="#ec008c"/>
      <path d="M272.95,59.89c1.58,1.24,3.28,2.31,3.89,4.25.31.99.15,2.44.16,3.47,0,.87-.02,1.74-.08,2.61-.14,1.07-.08,1.15.16.24l4.48-3.45c-2.94.53-6.82-.05-9.84-.02-8.78.09-9.76,11.92-1.99,14.73,2.85,1.03,5.9.96,8.9.97s6.48.42,9.29-1.07c5.31-2.82,4.56-9.37,4.71-14.46.18-5.66-.52-10.94-4.66-15.17s-9.56-4.85-14.35-7.58c-8.4-4.79-15.96,8.16-7.57,12.95,2.11,1.21,4.34,2.11,6.62,2.95,1.34.49,3.81,1.02,4.69,2.29,1.18,1.69.52,8.12.12,10.13l3.45-4.48-.59.42,3.79-1.02c-2.95.3-7.66.61-10.41-.39l-1.99,14.73c4.28-.04,9.71.78,13.82-.52,4.45-1.41,5.84-5.34,6.24-9.53.87-9.13-.79-16.87-8.23-22.67-3.22-2.51-7.46-3.08-10.61,0-2.62,2.57-3.19,8.12,0,10.61h0Z" fill="#ec008c"/>
      <path d="M233.87,36.93c9.26,3.82,19.26,3.39,29.06,4.14,2.51.19,4.88.79,7.35,1.14.39.05,1.93.82,1.31.08s-.16,1.14-.18,1.54c-.22,4.02.75,9.81-.78,13.58s1.67,8.21,5.24,9.23c4.28,1.22,7.71-1.5,9.23-5.24,1.18-2.9.85-6.52,1.04-9.62.17-2.94.42-5.89.25-8.84-.38-6.48-2.7-11.69-9.04-14.19-12.63-4.99-26.88-1.09-39.49-6.29-3.77-1.55-8.21,1.68-9.23,5.24-1.23,4.29,1.51,7.69,5.24,9.23h0Z" fill="#ec008c"/>
      <path d="M225.66,51.28c8.04-.44,17.29-1.33,23.24,5.15l5.3-12.8c-4.96.56-10.52-1.4-15.47-2.02-5.66-.71-11.11-.58-16.71.52-8.3,1.62-6.41,15.08,1.99,14.73,6.02-.25,12.93.15,17.22,4.9s4.4,12.34,8.93,16.97c5.15,5.27,12.71,2.81,18.74.77,6.48-2.19,10.9-6.88,7.45-13.93-2.48-5.07-10.37-4.7-12.95,0l.08-.16c-7.25,6.4,3.39,16.98,10.61,10.61.94-.83,1.66-1.79,2.26-2.88h-12.95l.35.72-.76-5.78c.68-2.01,6.18-4.4,1.12-2.79-1.05.33-2.11.65-3.17.95-5.01,1.42.84,1.64.24,2.35.17-.2-.71-2.16-.78-2.36-1.88-5.29-4.36-10.26-8.08-14.5-7.06-8.03-18.04-10.29-28.33-9.87l1.99,14.73c9.66-1.89,18.77,3.1,28.2,2.04,6.38-.72,9.99-7.7,5.3-12.8-8.79-9.57-21.7-10.2-33.84-9.55-9.6.52-9.66,15.52,0,15h0Z" fill="#ec008c"/>
      <path d="M186.96,81.24c5.14.67,12.29,2.84,17.35,1.41,5.59-1.58,6.58-7.78,9.34-12.06,5.61-8.73,15.41-13.47,25.62-13.67,7.01-.14,9.22-7.88,5.3-12.8-3.05-3.83-8.67-5.69-13.12-7.35-5.47-2.03-11.24-2.9-17.05-2.28s-10.98,1.33-16.63.95c-4.07-.27-11.63-.36-15.02-3.01l-5.3,12.8c19.31-1.13,38.64-1.04,57.94.27,9.64.66,9.59-14.35,0-15-19.3-1.32-38.63-1.41-57.94-.27-5.75.34-10.84,8.45-5.3,12.8,8.39,6.6,20.92,7.78,31.32,7.54,5.42-.12,10.87-1.72,16.29-1.29,4.03.31,11.62,2.17,14.22,5.44l5.3-12.8c-9.48.18-18.9,2.88-26.62,8.49-3.41,2.48-6.43,5.3-9.04,8.61-1.49,1.89-2.89,3.84-4.06,5.94-.74,1.32-1.49,4.3-2.53,5.15l5.3-2.2c-5.04.14-10.35-1.03-15.35-1.68-4.02-.52-7.5,3.82-7.5,7.5,0,4.49,3.46,6.98,7.5,7.5h0Z" fill="#ec008c"/>
      <line x1="108.23" y1="28.21" x2="239.75" y2="28.69" fill="none" stroke="#ec008c" stroke-miterlimit="10" stroke-width="4"/>
      <path d="M77.11,35.44l13-1.54c4.1-.49,8.41-.68,12.4-1.8s7.17-3.79,10.4-6.41c3.41-2.76,6.82-5.52,10.23-8.28,3.86-3.13,7.72-6.25,11.58-9.38,1.05-.85.88-2.65,0-3.54-1.04-1.04-2.48-.85-3.54,0-6.5,5.26-12.99,10.52-19.49,15.79-2.84,2.3-5.76,5.33-9.25,6.6s-7.42,1.44-11.1,1.88c-4.74.56-9.48,1.12-14.22,1.68-1.34.16-2.5,1.04-2.5,2.5,0,1.23,1.15,2.66,2.5,2.5h0Z" fill="#ec008c"/>
      <path d="M130.21,5.56l-.42.16,2.43,4.18c1.28-1.3,2.55-2.83,4.13-3.76,1.27-.74,2.74-1.06,4.2-1.12,3.96-.18,7.83,1.03,11.79.91,3.21-.1,3.22-5.1,0-5-4.3.13-8.52-1.31-12.83-.83-2.05.23-4.06.73-5.84,1.82-1.9,1.16-3.44,2.87-4.99,4.45-1.65,1.67,0,5.08,2.43,4.18l.42-.16c1.26-.47,2.13-1.69,1.75-3.08-.33-1.22-1.8-2.22-3.08-1.75h0Z" fill="#ec008c"/>
      <path d="M143.13,5.08c20.18,2,40.39,3.7,60.63,5.1,1.35.09,2.5-1.22,2.5-2.5,0-1.43-1.15-2.41-2.5-2.5-20.23-1.4-40.44-3.1-60.63-5.1-1.35-.13-2.5,1.24-2.5,2.5,0,1.46,1.15,2.37,2.5,2.5h0Z" fill="#ec008c"/>
      <line x1="185.05" y1="6.61" x2="185.05" y2="50.29" fill="none" stroke="#ec008c" stroke-miterlimit="10" stroke-width="7"/>
      <path d="M138.61,7.27c13.37.5,26.74.92,40.11,1.27,3.22.08,3.22-4.92,0-5-13.37-.35-26.74-.77-40.11-1.27-3.22-.12-3.21,4.88,0,5h0Z" fill="#ec008c"/>
      <path d="M45.56,80.53c-.07-6.71,2.47-13.5,9.27-15.87s14.48-1.57,21.03,1.06c3.62,1.45,6.97,3.64,9.8,6.3,2.06,1.94,5.32-.51,3.93-3.03-1.69-3.07-3.97-5.8-6.49-8.22s-5.28-4.97-8.31-6.69c-3.38-1.92-7.2-2.12-10.99-1.8s-7.82,1.16-11.54,2.54c-1.05.39-1.84,1.24-1.84,2.41,0,1.01.77,2.24,1.84,2.41,9.29,1.5,18.63,2.71,28,3.62,1.35.13,2.5-1.24,2.5-2.5,0-1.46-1.15-2.37-2.5-2.5-8.92-.87-17.81-2.02-26.67-3.45v4.82c3.14-1.16,6.41-2,9.74-2.32s6.46-.43,9.31,1.3c2.58,1.57,4.92,3.74,7.08,5.84s4.09,4.4,5.56,7.06l3.93-3.03c-6.18-5.81-14.18-9.31-22.61-10.05s-18.1,1.31-22.8,8.99c-2.38,3.89-3.27,8.59-3.23,13.1.03,3.22,5.03,3.22,5,0h0Z" fill="#ec008c"/>
      <path d="M2.8,54.92c-1.77,7.46-.01,16.32,4.92,22.3s13.14,6.08,20,6.41c4.18.21,8.45.38,12.63.13,2.3-.14,3.42-1.31,4.29-3.34.61-1.42,1.29-2.8,2.06-4.14,3.14-5.46,7.79-10.09,14.11-11.47,4.23-.93,8.81-.79,13.12-.74s8.71.48,12.86,1.98c1.27.46,2.74-.51,3.08-1.75.38-1.39-.47-2.62-1.75-3.08-7.16-2.57-15.18-2.41-22.67-1.99-3.69.21-7.27.8-10.65,2.35-2.86,1.31-5.44,3.32-7.59,5.6s-4.06,5.04-5.55,7.9c-.29.56-.57,1.12-.83,1.69s-.79,1.4-.89,2.04l-.16.31c.18-.13.37-.26.57-.37,0,.03-1.38.03-1.49.04-1.16.02-2.31.03-3.47.03-4.05,0-8.11-.15-12.15-.48-2.83-.23-5.84-.61-8.42-1.88-3.43-1.68-5.26-4.95-6.44-8.46-1.28-3.8-1.69-7.84-.76-11.76.74-3.13-4.08-4.46-4.82-1.33h0Z" fill="#ec008c"/>
      <path d="M106.13,83.96c26.71-.15,53.41-.3,80.12-.45l22.89-.13c1.45,0,2.37-1.14,2.5-2.5.88-9.37,5.56-18.1,12.64-24.24,1.02-.89.91-2.63,0-3.54-1.01-1.01-2.51-.89-3.54,0-8.12,7.04-13.11,17.12-14.11,27.78l2.5-2.5c-26.71.15-53.41.3-80.12.45-7.63.04-15.26.09-22.89.13-3.22.02-3.22,5.02,0,5h0Z" fill="#ec008c"/>
      <path d="M245.75,70.84c.81,1.62,1.44,3.3,1.87,5.06.2.82.37,1.65.47,2.49.12.97.02,2.02.45,2.92,1.04,2.18,3.58,1.88,5.62,1.92s4.12.07,6.18.07c4.21.01,8.41-.06,12.62-.22,2.06-.08,4.12-.17,6.18-.29,1.76-.1,3.99.08,5.55-.86,1.97-1.18,2.06-3.84,1.82-5.89-.26-2.24-1.02-4.32-2.3-6.18-.76-1.11-2.2-1.61-3.42-.9-1.1.64-1.66,2.3-.9,3.42s1.38,2.33,1.61,3.7c.11.68-.04,1.38.05,2.04.15,1-1.01-1.56.63-.54.04.03-.54.05-.58.05-3.37.23-6.76.38-10.14.48s-6.6.16-9.9.17c-1.73,0-3.46,0-5.19-.03-.82-.01-1.65-.03-2.47-.05-.65-.01-1.64.09-2.22-.09l1.1.64-.2-.2.64,1.1c-.05.27-.07.17-.06-.31-.02-.29-.05-.58-.08-.88-.05-.51-.12-1.03-.2-1.54-.14-.95-.33-1.89-.57-2.81-.53-2.02-1.33-3.96-2.27-5.83-1.45-2.88-5.76-.35-4.32,2.52h0Z" fill="#ec008c"/>
      <path d="M20.78,74c14.7.49,23.82-10.75,33.95-19.53,7.31-6.33-3.34-16.9-10.61-10.61-6.75,5.84-13.48,15.46-23.34,15.13s-9.64,14.68,0,15h0Z" fill="#ec008c"/>
      <path d="M115.44,42.89c6.27,1.72,12.78,2.6,19.28,2.59,9.65,0,9.67-15,0-15-5.25,0-10.23-.67-15.29-2.06-9.32-2.56-13.3,11.91-3.99,14.46h0Z" fill="#ec008c"/>
      <path d="M157.01,44.21c7.27.03,14.95-.63,22.16.19l-3.79-1.02.63.47-3.71-6.48c.14,3.15-10.01,4.41-12.58,4.84-6.11,1.02-14.11,1.24-19.55,4.32-3.14,1.78-3.98,5.17-3.45,8.47,1.26,7.74,10.37,15.3,16.94,18.67,8.43,4.33,17.87,4.03,26.58,7.59l3.99-14.46c-4.33-1.19-8.77-1.74-13.24-2.07-2.71-.2-9.04.57-11.21-.99l3.45,4.48s.43-3.04.36-4.12c.87-1.57.67-1.98-.59-1.23-1.43.36-1.31.51.36.44,3.32,1.39,7.93,2.17,11.47,2.98,4,.92,7.96,1.32,12.05.83,3.71-.44,7.79-1.98,11.54-1.4,2.45.38,5.59.28,7.3-1.93,2.3-2.97,4.65-5.06,7.96-6.83,6.31-3.38,3.72-14.64-3.79-13.98-5.13.46-10.26.92-15.39,1.37s-10.27,1.32-15.26.55c-9.35-1.44-13.41,11.48-3.99,14.46,6.4,2.03,8.36,10.3,13.83,13.69,6.93,4.3,17.17.25,16.67-8.73-.54-9.6-15.54-9.66-15,0l.06,1.06,1.02-3.79c1.05-2.07,5,.21,4.2-2.53-.21-.73-1.24-1.67-1.7-2.27-1.39-1.82-2.78-3.65-4.38-5.28-3.04-3.1-6.58-5.3-10.72-6.61l-3.99,14.46c11.41,1.76,23.22-.37,34.64-1.39l-3.79-13.98c-4.28,2.29-8.02,5.34-10.99,9.17l7.3-1.93c-4.93-.77-9.22-.3-14.11.54-4.62.79-8.25.4-12.75-.85-7.79-2.16-18.98-5.91-24.19,2.84-3.67,6.16-5.93,19.34,1.66,23.47,3.86,2.1,9.29,1.89,13.57,2.18,4.66.31,9.15.57,13.67,1.82,9.56,2.64,12.68-10.92,3.99-14.46-3.66-1.49-7.2-2.8-11.13-3.39-3.26-.48-6.45-.58-9.59-1.71-3.99-1.44-11.55-5.91-12.33-10.68l-3.45,8.47c2.42-1.37,7.52-1.36,10.28-1.84,3.49-.62,7.04-1.05,10.5-1.81,6.5-1.43,12.95-4.59,16.48-10.5s3.08-14.16-4.83-15.79c-7.21-1.48-15.81-.29-23.16-.33-9.65-.04-9.67,14.96,0,15h0Z" fill="#ec008c"/>
      <path d="M264.04,39.44l-.82-.58,2.69,2.69-.57-.83-6.48,11.29c.58-.02,1.2.03,1.77-.06l1.23.29-1.65-1.99c-.3.17-.45,5.67-.49,6.1-.42,4.47.25,8.33,2,12.44,2.98,7.02,14.2,3.22,13.98-3.79-.21-6.61-4.82-12.2-8.88-17.08-2.59-3.12-7.93-2.68-10.61,0-3.08,3.08-2.6,7.48,0,10.61,1.12,1.35,4.45,5.19,4.49,6.48,4.66-1.26,9.32-2.52,13.98-3.79-.8-1.89.08-4.97.27-6.91.32-3.23.49-6.48-.67-9.57-2.29-6.13-9.49-7.94-15.41-7.73-5.32.18-9.83,6.36-6.48,11.29,1.18,1.73,2.38,2.89,4.07,4.1,3.3,2.35,8.35.58,10.26-2.69,2.2-3.77.62-7.9-2.69-10.26h0Z" fill="#ec008c"/>
      <path d="M.58,64.21c.23,2.07,1,3.84,1.86,5.71.77,1.67,1.59,3.33,2.58,4.89,1.89,2.97,4.42,5.69,7.69,7.14,3.59,1.59,7.7,1.35,11.56,1.46,4.28.12,8.56.17,12.83.17,3.22,0,3.22-5,0-5-3.7,0-7.41-.04-11.11-.13-1.89-.05-3.78-.1-5.67-.17-1.55-.06-3.11-.05-4.61-.51-2.53-.77-4.57-2.79-6.01-4.94-.91-1.35-1.67-2.78-2.38-4.25-.65-1.34-1.58-2.89-1.75-4.39-.15-1.34-1.04-2.5-2.5-2.5-1.24,0-2.65,1.15-2.5,2.5h0Z" fill="#ec008c"/>
      <path d="M65.01,35.89c9.14.03,18.29.07,27.43.1,3.22.01,3.22-4.99,0-5-9.14-.03-18.29-.07-27.43-.1-3.22-.01-3.22,4.99,0,5h0Z" fill="#ec008c"/>
      <line x1="203.76" y1="8.31" x2="242.51" y2="28.45" fill="none" stroke="#ec008c" stroke-miterlimit="10" stroke-width="6"/>
      <path d="M116.23,21.75c3.29-2.46,6.62-4.88,9.76-7.54,2.87-2.43,5.36-5.38,8.47-7.52.83-.57,1.21-1.65.67-2.57-.48-.83-1.73-1.25-2.57-.67-3.21,2.2-5.78,5.14-8.71,7.67s-6.3,4.99-9.52,7.39c-.81.61-1.22,1.62-.67,2.57.47.8,1.75,1.28,2.57.67h0Z" fill="#ec008c"/>
      <path d="M131.68,3.56c-5.71,4.77-11.27,9.71-16.66,14.83-1.75,1.66.9,4.31,2.65,2.65,5.39-5.12,10.95-10.07,16.66-14.83.78-.65.67-1.98,0-2.65-.77-.77-1.87-.65-2.65,0h0Z" fill="#ec008c"/>
      <path d="M141.77,7.27c20.29,1.44,40.59,2.67,60.91,3.68,3.22.16,3.21-4.84,0-5-20.31-1.01-40.62-2.23-60.91-3.68-1.35-.1-2.5,1.22-2.5,2.5,0,1.43,1.15,2.4,2.5,2.5h0Z" fill="#ec008c"/>
    </g>
    <path d="M282.91,54.55c.29.47.54.96.76,1.47l-.25-.6c.14.33.26.67.37,1.01.19.61.59,1.17,1.15,1.49.29.18.6.28.93.3.33.07.66.06,1-.04l.6-.25c.38-.22.67-.52.9-.9l.25-.6c.12-.44.12-.89,0-1.33-.2-.63-.46-1.25-.73-1.85-.19-.42-.41-.83-.65-1.23-.16-.29-.37-.53-.64-.7-.24-.22-.52-.37-.85-.45-.33-.1-.66-.12-1-.04-.33.02-.64.11-.93.3l-.51.39c-.31.31-.52.68-.64,1.1l-.09.66c0,.45.12.87.34,1.26h0Z" fill="#c14b39"/>
    <g>
      <path d="M284.63,50.26c-1.7.27-3.36.87-4.87,1.7-.91.5-1.76,1.13-2.3,2.03s-.72,1.89-.8,2.9c-.13,1.74.48,3.7,1.78,4.9,1.44,1.33,3.33,1.63,5.22,1.69,2.01.06,4.04-.08,6.05-.14,1.26-.04,2.62-1.11,2.5-2.5-.31-3.57-2.32-7.1-5.7-8.59-.95-.42-1.92-.57-2.87-.02-.78.46-1.17,1.27-1.38,2.12-.28,1.12-.45,2.28-.53,3.44-.1,1.59.75,3.06,2.34,3.5,1.36.38,2.89-.06,3.86-1.09.55-.59.79-1.3.69-2.1-.09-.7-.5-1.53-1.19-1.83-2.15-.92-4.3-1.48-6.64-1.62l1.77.73c-.63-.52-1.34-.93-2.19-.89-.78.04-1.52.3-2.1.85-1.09,1.03-1.25,2.69-.45,3.94.99,1.55,3.24,1.94,4.6.62.43-.42.74-.92.91-1.5.26-.85.04-1.62-.3-2.4-.23-.54-.96-1-1.49-1.15-.6-.16-1.4-.09-1.93.25s-1,.86-1.15,1.49c-.16.7-.03,1.28.25,1.93l-.2-1.45.47-.79c2.38-.76,3.41-.32,3.07,1.31.24.67.05,1.13-.57,1.39-.4.56-.9.62-1.51.19-.99-.4-1.23-.41-.69-.06.46.36.94.48,1.51.54.28.03.57.05.86.07.36.02-.45-.07-.1-.02.16.03.31.05.47.08.53.1,1.06.22,1.58.37.28.08.55.17.82.26.15.05.3.11.45.17.12.05.56.23.03,0l-.51-3.93c-.19.19-.13.15.18-.11-.23.12-.17.1.2-.08l.38-.05c-.27,0-.19,0,.24.04.79.32,1.22.81,1.28,1.49.02.23.04.24.03.03.05-.22.03-.47.06-.7,0-.1.02-.2.03-.3-.05.33-.05.36,0,.07.04-.2.07-.4.1-.59.09-.44.18-.88.32-1.3l-.64,1.1.08-.11-1.1.64c-1.06.36-1.94-.43-1.18-.05.15.08.3.16.45.25.13.08.25.16.37.24.46.32-.21-.19-.03-.03.24.22.48.43.71.67.07.07.22.33.3.34l-.2-.27c.06.08.12.16.18.25.17.25.33.51.48.78.07.14.14.27.21.41.23.46-.16-.48-.01-.03.1.3.2.59.27.89.04.18.07.36.11.53.03.19.02.1-.03-.28.01.1.02.21.03.31l2.5-2.5c-1.88.06-3.76.17-5.64.15-.46,0-.91-.04-1.36-.06-.56-.03.58.12.03,0-.18-.04-.37-.07-.55-.12-.08-.02-.15-.04-.23-.07-.25-.09-.2-.07.16.07-.04-.04-.35-.22-.41-.24.29.23.34.26.15.09-.14-.15-.14-.14,0,.03.19.39-.08-.16-.13-.24-.26-.41.13.49.02.04-.03-.11-.07-.52-.14-.6l.05.36c-.01-.1-.02-.21-.02-.31,0-.16,0-.31,0-.47.02-.27.01-.21-.04.2.02-.11.04-.21.06-.32.02-.08.08-.47.14-.49-.15.34-.16.39-.04.15l-.19.23c.08-.09.16-.17.25-.24-.28.21-.31.24-.09.09.32-.17.63-.37.95-.53.22-.11.44-.23.67-.31-.62.22,0,.01.09-.02.81-.3,1.64-.51,2.5-.64.58-.09,1.21-.66,1.49-1.15.31-.54.45-1.33.25-1.93-.46-1.41-1.69-1.97-3.08-1.75h0Z" fill="#a6417d"/>
      <path d="M283.96,55c.2.13.39.26.58.41l-.51-.39c.66.52,1.25,1.11,1.77,1.78l-.39-.51c.54.72.99,1.49,1.35,2.32l-.25-.6c.37.88.62,1.8.75,2.75l-.09-.66c.02.19.05.38.04.58l.09-.66-.03.09.64-1.1-.06.07,1.1-.64-.09.04.66-.09h-.1c.22.02.44.05.66.08-1.2-.32-2.37-.81-3.51-1.28l.6.25c-.79-.34-1.58-.69-2.35-1.08-1.17-.58-2.76-.35-3.42.9-.6,1.13-.35,2.8.9,3.42,1.35.67,2.74,1.27,4.14,1.81.61.23,1.23.45,1.85.66.51.17,1.02.27,1.56.19,1.06-.14,1.95-.9,2.24-1.94.24-.85.03-1.79-.14-2.63-.11-.55-.26-1.09-.46-1.61-.43-1.16-.97-2.29-1.71-3.28-.94-1.26-1.99-2.31-3.31-3.18-1.1-.72-2.81-.26-3.42.9-.66,1.25-.27,2.65.9,3.42h0Z" fill="#a6417d"/>
      <path d="M283.46,56.6c.32-.19.65-.37.99-.52l-.6.25c.27-.11.53-.19.82-.23l-.66.09c.2-.02.4-.02.6,0l-.66-.09c.19.03.36.09.53.16l-.6-.25c.24.11.46.25.67.41l-.51-.39c.75.59,1.42,1.31,2.01,2.06l-.39-.51c.4.52.74,1.07,1,1.67l-.25-.6c.18.45.32.92.38,1.4l-.09-.66c.04.36.04.72,0,1.08l.09-.66c0,.08-.02.16-.04.24l3.08-1.75c-1.31-.34-2.59-.77-3.84-1.29l.6.25c-.6-.25-1.19-.53-1.78-.82s-1.26-.44-1.93-.25c-.58.16-1.21.61-1.49,1.15-.6,1.14-.35,2.79.9,3.42,1.98,1,4.07,1.81,6.22,2.37.61.16,1.39.1,1.93-.25s1.04-.86,1.15-1.49c.16-.94.17-1.71.03-2.65-.1-.71-.35-1.34-.64-2-.5-1.14-1.3-2.16-2.15-3.06-.93-.98-1.96-1.93-3.28-2.33-1.62-.49-3.22.13-4.62.94-1.13.66-1.63,2.29-.9,3.42s2.21,1.6,3.42.9h0Z" fill="#a6417d"/>
    </g>
    <g>
      <path d="M174.43,38.01h-.45v2.5h4.2c.54,0,1.04-.04,1.46-.43.5-.46.54-1.24.2-1.8-.42-.68-1.25-.94-1.99-1.07-1.38-.25-2.74-.1-4.03.46-.69.3-1.41.71-1.62,1.48-.14.54.07,1.14.46,1.53s.94.53,1.47.5c1.6-.08,3.21-.36,4.78-.68.61-.13.97-.79.9-1.37-.09-.64-.6-1.04-1.23-1.08-.95-.06-1.91-.07-2.86,0-.69.05-1.37.26-1.71.92-.39.74-.15,1.72.62,2.1.51.25,1.07.2,1.62.21.47,0,.95,0,1.42,0,.5,0,1.07.07,1.56-.08.82-.25,1.27-1.09,1.07-1.91s-.93-1.27-1.72-1.32c-.15-.01-.3.01-.45.03-.09.01-.18.02-.26.04-.21.03.03.02.04,0-.03.07-.45-.06-.04.03-.06-.01-.14-.06.01.01.13.07.26.14.34.28-.32-.57-1.15-.81-1.71-.45s-.8,1.1-.45,1.71c.33.57.91.85,1.54.91.19.02.37,0,.56-.03.09-.01.18-.02.26-.04.12-.02.13-.02.03,0-.1.01-.09.02.03,0l-.14-.03c-.16-.06-.31-.19-.39-.34-.24-.44.03-1.16.58-1.3.31-.07.08-.02-.03-.02s-.22,0-.33,0c-.42,0-.84,0-1.26,0s-.84,0-1.26,0c-.14,0-.32-.07.01.03l.17.08c.6.86.56,1.42-.12,1.67.22-.08-.18,0-.03,0,.11,0,.21-.01.32-.02.86-.05,1.72-.04,2.58.01l-.33-2.46c-.45.1-.91.18-1.37.26-.25.04-.49.08-.74.12-.11.02-.21.03-.32.05.29-.03-.03,0-.09.01-.46.06-.92.11-1.39.14-.07,0-.34.06-.39.02l.15.02c.2.06.35.18.45.35.2.56.13.96-.23,1.18-.09.06-.1.07-.01.01.09-.05.18-.11.27-.16s.18-.1.28-.14l.08-.04c.13-.06.11-.05-.05.02.05,0,.2-.08.25-.09.1-.03.2-.06.3-.09.19-.05.38-.09.57-.13.3-.06-.28.02.02,0,.1,0,.21-.02.31-.02.19,0,.39,0,.58,0,.06,0,.21-.01.27.02-.18-.03-.21-.03-.07,0,.04,0,.09.01.13.02.19.04.38.08.56.14.04.01.23.05.25.09-.17-.08-.19-.09-.08-.02-.34-.19-.46-.53-.37-1.02l.32-.55c.63-.18.81-.26.54-.26h-.17c-.07,0-.15,0-.22,0h-.61c-.39,0-.77,0-1.16,0h-2.32c-.65,0-1.28.57-1.25,1.25s.55,1.25,1.25,1.25h.45c.65,0,1.28-.57,1.25-1.25s-.55-1.25-1.25-1.25h0Z" fill="#c6168d"/>
      <path d="M173.5,37.8c-.28.17-.57.27-.81.52-.45.47-.61,1.15-.35,1.76.22.51.62.88,1.15,1.06.41.13.85.13,1.27.14.79.02,1.58.03,2.37.03s1.68.03,2.42-.32c1.04-.5,1.29-1.88.46-2.7-.54-.54-1.36-.84-2.11-.97-.85-.15-1.65-.12-2.5.02-.74.12-1.59.3-2.26.64-.55.28-.98.86-.93,1.5.05.68.49,1.18,1.09,1.46.88.42,1.8.33,2.74.19.65-.09,1.06-.95.87-1.54-.23-.71-.84-.97-1.54-.87-.31.05.29-.03-.03,0-.08,0-.15.02-.23.02-.17.01-.33.01-.5,0-.24,0,.17.05.02,0-.07-.02-.14-.04-.21-.05-.11-.04-.11-.04-.01,0,.1.04.09.04,0-.01l-.07-.05c.08.05.15.12.21.19l.17.63c-.03.32-.18.56-.44.74.04-.03.09-.05.13-.08-.19.08-.21.09-.05.04.07-.02.14-.04.21-.07.25-.08.5-.15.75-.21s.5-.11.76-.16c.15-.02.15-.02,0,0,.07,0,.15-.02.22-.02.1,0,.2-.01.31-.02.26,0,.53-.01.78.04-.33-.06,0,0,.05.02.13.03.25.06.38.1.06.02.12.04.18.06.13.05.12.05-.03-.01.09.01.18.1.26.13.11.07.1.06-.04-.05.1.1.08.08-.04-.06-.19-.4-.15-.75.13-1.05.16-.11.2-.14.11-.09-.08.04-.04.03.13-.05-.05.02-.09.03-.14.04-.11.02-.09.02.05,0-.07,0-.14.01-.21.02-.25.02-.49.02-.74.02-.56,0-1.12,0-1.67,0-.29,0-.58-.01-.87-.02-.12,0-.23,0-.35-.01-.07,0-.36.03-.41-.02.18.03.2.03.06,0,.1.03.18.08.26.16.3.31.27.87-.03,1.17-.25.24-.07.07.05,0,.09-.04.17-.09.26-.14.56-.34.82-1.13.45-1.71s-1.11-.81-1.71-.45h0Z" fill="#c6168d"/>
    </g>
    <g>
      <ellipse cx="67.01" cy="79.37" rx="15.47" ry="15.04" fill="none" stroke="#231f20" stroke-miterlimit="10" stroke-width="8"/>
      <ellipse cx="230.14" cy="79.37" rx="15.47" ry="15.04" fill="none" stroke="#231f20" stroke-miterlimit="10" stroke-width="8"/>
    </g>
    <g>
      <path d="M6.41,57.04c1.11-1.36,2.46-2.52,3.81-3.65.1-.08.56-.42.2-.17.18-.13.37-.26.56-.38s.39-.22.59-.33c-.4.2.26-.08.3-.09.43-.13.86-.19,1.29-.3.18-.03.16-.03-.07,0,.12-.01.24-.03.36-.04.24-.02.48-.04.72-.04.44-.01.88.01,1.32.05-.51-.05.23.05.28.06.25.05.59.26.15,0l-.75-.92c-.03-.37-.05-.4-.04-.12l.04-.3c-.08.27-.06.24.07-.07,0,.12-.37.44-.11.21.12-.15.1-.15-.06.02.24-.18.29-.22.13-.12-.18.11.33-.06-.09.03-.22.05-.44.12-.66.17-.47.12-.95.23-1.42.34-.24.05-.48.1-.72.14-.1.02-.79.12-.29.06-.48.06-.96.08-1.45.08-1.31,0-2.56,1.15-2.5,2.5s1.1,2.5,2.5,2.5,2.87-.24,4.26-.56,2.74-.61,3.77-1.59,1.61-2.37,1.52-3.76c-.13-1.96-1.52-3.16-3.37-3.48-2.73-.47-5.88-.23-8.29,1.26-1.08.66-2.04,1.54-2.99,2.37s-1.82,1.65-2.6,2.6c-.83,1.01-1.06,2.56,0,3.54.92.84,2.65,1.08,3.54,0h0Z" fill="#fdf6b0"/>
      <path d="M2.71,53.8c-.59.9-1.07,2.12-.25,3.06.39.44.93.53,1.47.62s1.06.15,1.6.21c1.91.21,3.92.34,5.83.07.65-.09,1.06-.95.87-1.54-.23-.71-.84-.97-1.54-.87.11-.02.09-.02-.07,0-.09,0-.18.01-.27.02-.18,0-.37.01-.55.02-.35,0-.7,0-1.05,0-.73,0-1.45-.04-2.18-.1-.37-.03-.75-.07-1.12-.11-.34-.04-.57-.07-.86-.11-.18-.03-.37-.08-.55-.09-.52-.02.67.46.44.83.02-.07.04-.14.06-.21-.04.11-.03.1.04-.05.1-.16.18-.32.29-.48.36-.55.13-1.41-.45-1.71-.63-.33-1.33-.14-1.71.45h0Z" fill="#fdf6b0"/>
      <path d="M2.16,54.93c-.43,1.19,0,2.51,1.31,2.84,1.08.27,2.23-.03,3.3-.18.94-.13,1.88,0,2.83-.02,1.13-.01,2.27-.17,3.37-.45.65-.17,1.05-.9.87-1.54s-.88-1.04-1.54-.87c-.75.19-1.5.32-2.27.35s-1.59-.05-2.39-.04-1.61.19-2.42.29c-.17.02-.35.04-.52.05-.09,0-.6-.06-.65,0,.09-.09.36.32.32.24.02.46.05.55.1.27.03-.09.06-.19.1-.28.23-.63-.26-1.37-.87-1.54-.7-.19-1.3.24-1.54.87h0Z" fill="#fdf6b0"/>
      <path d="M3.43,57.74c2.53.65,5.15.12,7.72.14,2.16.02,5.37-.14,6.62-2.25.82-1.39-1.34-2.65-2.16-1.26-.35.59-1.44.72-2.05.86-1.04.22-2.11.14-3.17.15-2.09.01-4.24.48-6.3-.05-1.56-.4-2.22,2.01-.66,2.41h0Z" fill="#fdf6b0"/>
      <path d="M17.46,47.48l-.28-.06-.33,2.46c.46-.01,1.12.52,1.37.92.33.52.24,1.3.22,1.89-.05,1.33-1.01,2.17-2.22,2.59-1.49.51-3.13.63-4.68.75-1.69.13-3.42.22-5.1-.1-.66-.13-1.35.19-1.54.87-.17.61.21,1.41.87,1.54,2.26.43,4.54.33,6.82.1,2.08-.21,4.43-.4,6.17-1.68s2.34-3.19,2.15-5.34c-.09-1.07-.46-2.02-1.28-2.75-.77-.69-1.72-1.31-2.79-1.28-1.35.04-1.77,2.17-.33,2.46l.28.06c1.57.32,2.24-2.09.66-2.41h0Z" fill="#fdf6b0"/>
      <path d="M6.01,55.9c-.29,0-.58-.03-.86-.07l.33.04c-.38-.05-.76-.11-1.12-.25l.3.13c-.11-.05-.21-.1-.31-.18l.25.2c-.06-.05-.11-.1-.16-.16l.2.25c-.04-.06-.08-.12-.11-.19l.13.3c-.03-.07-.05-.13-.06-.21l.04.33c0-.07,0-.14,0-.21l-.04.33s.02-.09.04-.13l-.13.3s.03-.06.05-.09c.17-.26.21-.66.13-.96s-.3-.6-.57-.75c-.62-.33-1.33-.14-1.71.45-.66,1.02-.04,2.41,1,2.87.4.18.79.28,1.22.35.46.07.92.13,1.38.14.32,0,.66-.14.88-.37s.38-.57.37-.88c-.03-.69-.55-1.23-1.25-1.25h0Z" fill="#fdf6b0"/>
      <path d="M4.2,58.07c.79.38,1.66.44,2.52.51s1.65.07,2.47.02c1.6-.09,3.39-.25,4.78-1.12.57-.36.8-1.11.45-1.71s-1.14-.81-1.71-.45c-.97.61-2.32.72-3.52.78-.71.04-1.43.04-2.14,0-.33-.02-.66-.05-.99-.08,0,0-.48-.07-.26-.03-.09-.01-.18-.03-.26-.06-.15-.05-.17-.05-.07-.02-.61-.29-1.35-.17-1.71.45-.32.55-.16,1.42.45,1.71h0Z" fill="#fdf6b0"/>
    </g>
    <path d="M132.1,5.29c-4.1,2.84-7.94,5.82-11.65,9.15-1.69,1.51-3.54,2.8-5.35,4.16-2.06,1.55-4.09,3.15-6.08,4.8-1.04.86-.89,2.64,0,3.54,1.03,1.03,2.49.87,3.54,0,3.61-3,7.57-5.58,11.1-8.67,1.72-1.51,3.36-3.1,5.17-4.5s3.84-2.8,5.79-4.15c1.11-.77,1.62-2.19.9-3.42-.64-1.1-2.3-1.67-3.42-.9h0Z" fill="#ec008c"/>
    <path d="M135.22,4.71c-8.36,7.96-17.57,14.95-25.86,22.99-1.74,1.68.92,4.33,2.65,2.65,8.28-8.04,17.5-15.03,25.86-22.99,1.75-1.67-.9-4.32-2.65-2.65h0Z" fill="#ec008c"/>
    <path d="M131.5,12.67c1.62-1.42,3.26-2.8,4.93-4.16.81-.66,1.63-1.31,2.45-1.95.21-.16.41-.32.62-.48-.19.14.1-.08.16-.12.1-.08.21-.16.31-.24.44-.34.88-.67,1.33-1,.78-.59,1.26-1.65.67-2.57-.5-.77-1.73-1.3-2.57-.67-3.62,2.71-7.15,5.56-10.55,8.53-.74.65-.71,2,0,2.65.79.73,1.86.69,2.65,0h0Z" fill="#ec008c"/>
    <path d="M135.74,9.02c1.4-1.06,2.78-2.15,4.24-3.13.41-.27.73-.64.86-1.12.12-.45.07-1.05-.19-1.44s-.64-.75-1.12-.86-1.03-.09-1.44.19c-1.46.98-2.84,2.07-4.24,3.13-.22.12-.39.28-.53.48-.17.18-.28.39-.34.64-.12.45-.07,1.05.19,1.44s.64.75,1.12.86,1.05.11,1.44-.19h0Z" fill="#ec008c"/>
    <path d="M137.26,7.29c1.19-.01,2.37-.03,3.56-.04s2.47-.06,3.66-.38c.95-.26,1.62-1.35,1.31-2.31s-1.29-1.58-2.31-1.31c-.32.09-.64.15-.97.2l.5-.07c-.92.12-1.86.11-2.79.12l-2.96.04c-.98.01-1.92.85-1.88,1.88s.82,1.89,1.88,1.88h0Z" fill="#ec008c"/>
    <path d="M104.37,57.11c9.65,0,9.67-15,0-15s-9.67,15,0,15h0Z" fill="#ec008c"/>
    <path d="M104.37,57.11c9.65,0,9.67-15,0-15s-9.67,15,0,15h0Z" fill="#ec008c"/>
    <path d="M40.16,80.41c1.09-1.28,2.06-2.66,2.81-4.16.18-.29.28-.6.3-.93.07-.33.06-.66-.04-1-.16-.58-.61-1.21-1.15-1.49-.58-.31-1.28-.46-1.93-.25-.6.19-1.2.57-1.49,1.15-.53,1.06-1.16,2.06-1.88,2.99l.39-.51c-.17.22-.35.45-.54.66-.24.23-.42.49-.52.8-.16.3-.23.62-.22.96,0,.61.27,1.35.73,1.77s1.1.76,1.77.73c.63-.03,1.34-.23,1.77-.73h0Z" fill="#ec008c"/>
    <path d="M255.46,61.02c1.86,3.92,3.6,7.93,5.61,11.77.61,1.16,2.32,1.61,3.42.9,1.18-.76,1.55-2.18.9-3.42-2.02-3.84-3.76-7.85-5.61-11.77-.56-1.19-2.35-1.58-3.42-.9-1.22.79-1.5,2.15-.9,3.42h0Z" fill="#ec008c"/>
    <path d="M226.11,24.97c1.29.45,2.52,1.01,3.71,1.68l.32-1.16c-2.52.02-5.02-.5-7.32-1.53-.31-.14-.67-.09-.86.22-.16.27-.09.72.22.86,2.5,1.12,5.2,1.73,7.95,1.7.61,0,.86-.86.32-1.16-1.28-.72-2.62-1.32-4.01-1.8-.76-.26-1.09.94-.33,1.21h0Z" fill="#e5f4f8"/>
  </g>
</svg>