<?xml version="1.0" encoding="UTF-8"?>
<svg id="Layer_2" data-name="Layer 2" xmlns="http://www.w3.org/2000/svg" viewBox="0 0 323.6 136.65">
  <g id="Layer_1-2" data-name="Layer 1">
    <g>
      <path d="M305.05,37.22l5.25-.17c.8-.03,1.59-.05,2.39-.08l.48-.02c.42.08.52.05.3-.09-.23-.04-.32-.11-.27-.22l.1.3c-.03.34.33,1.03.43,1.36.14.45.28.91.41,1.37.22.76.44,1.52.65,2.29.45,1.68.86,3.38,1.22,5.09,1.42,6.73,2.08,13.61,1.96,20.49-.05,2.83-.28,5.65-1.21,8.34-.41,1.17-1.01,2.33-1.79,3.31,0,.01-.55.61-.55.61-.13-.31,1.09.11,1.03.25-.02.06-.46-.94-.5-1.08-.89-3.37-1.35-6.94-1.85-10.39s-.87-6.98-1.13-10.49c-.3-4.01-.26-8.07-.77-12.07s-1.71-7.68-3.6-11.19l-2.82,3.67c1.25.49,2.6.6,3.93.73.71.07,1.87.14,2.2.53.72.84.76,2.75.97,3.8.35,1.75.66,3.51.94,5.28,1.08,6.84,1.6,13.76,1.65,20.69l4.91-.66c-1.11-4.86-1.13-9.86-1.45-14.82s-1.06-10.21-3.17-14.98c-.5-1.12-2.1-1.47-3.12-1.02-1.16.51-1.73,1.71-1.45,2.95,2.65,11.46,3.88,23.18,3.71,34.94l1.84-2.41.06-.03,1.26.34c-.38-.19-.52-1.99-.57-2.48-.15-1.36-.1-2.75-.01-4.11.17-2.68.55-5.35.54-8.04-.01-5.45-1.24-10.75-3.38-15.75-.53-1.24-2.36-1.52-3.42-.9-1.28.75-1.43,2.17-.9,3.42,2.32,5.42,3.01,11.26,2.51,17.1-.26,2.98-.63,5.96-.27,8.95.35,2.81,1.64,7.52,5.5,6.32,1.07-.33,1.82-1.28,1.84-2.41.18-12.19-1.14-24.39-3.89-36.27l-4.57,1.93c1.91,4.31,2.3,9.12,2.56,13.77.28,4.97.43,9.96,1.55,14.83.63,2.77,4.93,2.13,4.91-.66-.06-7.86-.76-15.71-2.07-23.46-.32-1.92-.69-3.84-1.09-5.75-.35-1.66-.85-3.26-2.2-4.39-2.34-1.96-5.35-1.21-8-2.25-2.16-.85-3.77,1.92-2.82,3.67,1.77,3.29,2.81,6.86,3.12,10.58.35,4.11.38,8.23.74,12.34s.88,8.21,1.54,12.28c.32,2.01.69,4.01,1.08,6,.33,1.67.68,3.38,1.85,4.7,1.26,1.41,3.23,1.91,4.96,1.05,1.55-.77,2.69-2.4,3.54-3.85,1.79-3.07,2.46-6.62,2.73-10.13.58-7.7-.26-15.65-1.74-23.2-.44-2.26-.96-4.49-1.56-6.71-.54-2-.98-4.29-1.97-6.12-1.2-2.22-3.34-2.35-5.61-2.28l-6.92.22c-3.21.1-3.22,5.1,0,5h0Z" fill="#2f2f2f"/>
      <path d="M308.37,35.74c-.18-.22-.29-.51-.44-.75-.19-.32.01-.69-.17-.16l-1.15,1.49c-.71.12-.75.17-.1.13.31,0,.62,0,.92,0,.62,0,1.23,0,1.85,0,1.17,0,2.39-.1,3.56.01,1.88.18,2.57,2.27,3.18,3.83,1.64,4.16,2.02,8.67,2.29,13.1.3,4.94.49,9.92,0,14.85-.28,2.83-.67,9.83-4.78,9.78-3.22-.04-3.22,4.96,0,5,5.42.06,8.12-4.96,9.04-9.62,1.04-5.33,1.17-10.77.95-16.18-.2-4.98-.43-10.08-1.63-14.94-.59-2.37-1.45-4.73-2.67-6.85-1.34-2.33-3.27-3.68-5.96-3.94-1.39-.13-2.81-.05-4.2-.04s-2.88-.2-4.17.17c-3.78,1.1-1.63,5.69-.04,7.67.85,1.05,2.65.88,3.54,0,1.04-1.04.85-2.48,0-3.54h0Z" fill="#2f2f2f"/>
      <path d="M303.68,36.16c2,8.48,2.93,17.14,3.76,25.8.41,4.33.81,8.65,1.31,12.97.24,2.02.28,4.25,1.24,6.09s2.87,3.17,4.98,3.03c1.01-.06,2.22-.72,2.41-1.84.89-5.13,1.79-10.26,2.68-15.38.23-1.33-.36-2.69-1.75-3.08-1.21-.33-2.84.41-3.08,1.75-.89,5.13-1.79,10.26-2.68,15.38l2.41-1.84c-.44-.01-.47.02-.1.1l-.31-.18c-.1-.18-.2-.36-.28-.55-.24-.63-.29-1.4-.37-2.06-.24-2-.46-4-.67-6-.4-3.92-.75-7.85-1.15-11.78-.8-7.97-1.77-15.95-3.61-23.76-.74-3.13-5.56-1.81-4.82,1.33h0Z" fill="#2f2f2f"/>
      <path d="M306.71,32.7l.79,1-2.41,3.16c1.38-.14,2.76-.23,4.14-.25.65-.01,1.29,0,1.94,0,.37,0,.74.05,1.11.04.28.02.24.01-.13-.03.56.17.29-.06-.8-.71l.9-3.42c1.24.03,1.62-.02,1.12-.16-.14-.05-.13-.04,0,.01.18.07.14.06-.1-.05l-.6-.25c-.35-.14-.72-.24-1.09-.3-.87-.15-1.74-.21-2.62-.18-.75.03-1.49.09-2.24.1-.39,0-.78-.02-1.17-.04.25.01.21.04-.02,0s-.45-.11-.67-.18l.6,4.57c.48-.36-.43.08.14-.11.52-.17-.48.01.23-.04.45-.04.89-.07,1.34-.09.98-.03,1.97,0,2.94.13-.4-.05.4.07.39.07.26.05.53.1.79.15.4.09.79.18,1.18.3.2.06.39.14.59.2-.5-.14.04.02.16.08.15.08.29.18.44.26.15.1.11.07-.11-.09.08.06.15.13.21.21.18.14-.14-.34.03.05.27.62-.04-.38.09.29.09.45.18.89.25,1.34.16.99.3,1.99.44,2.99.02.18.02.18,0,.02l.04.27c.04.27.07.54.11.82.06.5.12,1,.18,1.5.12,1.04.23,2.09.33,3.14.13,1.3,1.06,2.56,2.5,2.5,1.25-.06,2.63-1.11,2.5-2.5-.24-2.5-.54-4.99-.89-7.48-.33-2.33-.41-5.08-2.33-6.74s-4.4-2.07-6.76-2.36c-1.15-.14-2.31-.19-3.47-.13-1.27.07-2.77.11-3.83.91-.83.62-1.34,1.41-1.19,2.49.13,1,.83,1.78,1.79,2.08,1.86.58,3.75.33,5.66.29.42,0,.85,0,1.27.04-.45-.04.06.02.23.06.06.01.63.18.35.09-.15-.07-.11-.05.1.04l.6.25c.2.08.38.14.59.18.82.17,1.74.1,2.43-.41,1.02-.75,1.73-2.22.9-3.42-.67-.96-1.54-1.51-2.7-1.67-.87-.12-1.75-.12-2.63-.13-1.75-.01-3.5.08-5.25.26s-2.71,1.45-2.41,3.16c.15.83.78,1.59,1.51,1.99,1.15.63,2.78.32,3.42-.9s.33-2.75-.9-3.42h0Z" fill="#2f2f2f"/>
    </g>
    <path d="M8.47,103.02c2.55,1.88,5.84,2.13,8.9,2.19,3.54.08,7.09.13,10.63.19,1.09.02,2.12-.79,2.41-1.84.27-.98-.15-2.38-1.15-2.82-3.67-1.63-7.42-2.66-11.4-3.16-1.34-.17-2.5,1.27-2.5,2.5,0,1.49,1.15,2.33,2.5,2.5,2.99.37,6.09,1.24,8.88,2.47l1.26-4.66c-3.33-.06-6.66-.12-9.98-.18-2.66-.05-4.95,0-7.02-1.52-1.09-.8-2.79-.18-3.42.9-.74,1.27-.19,2.62.9,3.42h0Z" fill="#044f59"/>
    <path d="M4.91,101.31c2.94,3.07,7.14,4,11.24,4.17,4.5.19,9.03.04,13.53-.05,3.21-.06,3.22-5.06,0-5-4.08.08-8.16.15-12.24.08-3.18-.05-6.67-.31-9-2.74s-5.77,1.21-3.54,3.54h0Z" fill="#044f59"/>
    <g>
      <path d="M127.39,26.15c12.87,0,12.89-20,0-20s-12.89,20,0,20h0Z" fill="#044f59"/>
      <path d="M270.52,27.74c-1.73,9.46-3.04,19.01-2.92,28.65l19.64-2.66c-2.02-7.89-4.05-15.78-6.07-23.68-3.2-12.46-22.49-7.18-19.29,5.32,2.02,7.89,4.05,15.78,6.07,23.68,2.8,10.9,19.79,8.67,19.64-2.66-.1-7.89.79-15.58,2.2-23.33.97-5.31-1.45-10.78-6.98-12.3-4.85-1.33-11.33,1.64-12.3,6.98h0Z" fill="#044f59"/>
    </g>
    <rect x="21.61" y="56.35" width="277.25" height="46.92" fill="#044f59"/>
    <rect x="128.7" y="1.97" width="141.31" height="66.53" transform="translate(-.91 5.62) rotate(-1.61)" fill="#044f59"/>
    <path d="M21.81,92.66c-1.45-4.33-3.97-11.39-.29-15.4,2.3-2.5,6.82-3.1,9.98-3.52,13.53-1.8,27.39-.7,41-1.34,13.08-.61,26.52-2.13,36.76-11.07s16.84-21.64,23.59-32.61c6.76-10.99-10.53-21.05-17.27-10.09-3.83,6.22-7.86,12.32-12,18.35-3.24,4.72-6.61,9.88-12.01,12.33s-12.15,2.75-18.13,3.06c-7.35.38-14.71.33-22.07.42-12.73.16-28.25-.52-39.39,6.71C-1.2,68.06-2.07,84.32,2.52,97.98c4.08,12.14,23.4,6.93,19.29-5.32h0Z" fill="#044f59"/>
    <path d="M133.48,6.41c-15.64-5.02-22.85,15.39-28.81,25.79-5.53,9.66-12.32,19.2-23.9,21.42-5.31,1.02-8.33,7.39-6.98,12.3,1.53,5.55,6.98,8,12.3,6.98,11.29-2.16,20.75-9.5,27.71-18.39,3.77-4.82,6.92-9.98,9.88-15.32,1.58-2.85,3.11-5.72,4.72-8.54.73-1.28,1.48-2.56,2.25-3.82l.94-1.5c1.19-1.57.05-1.45-3.43.36,12.28,3.95,17.54-15.36,5.32-19.29h0Z" fill="#044f59"/>
    <path d="M263.74,20.37c5.45-.54,11.06-1.64,14.55,3.36,4,5.74,5.18,14.11,6.69,20.79,1.76,7.78,2.75,15.68,4.3,23.5.69,3.51,1.65,6.93,2.62,10.37.84,2.99,2.47,7.03,1.51,10.12l2.57-4.41c2.82-2.34-.7-.57-2.03-.36-.82.13-1.65.18-2.47.21-2.89.13-5.75-.05-8.59-.59-6.49-1.22-12.71-3.66-18.81-6.14-5-2.04-10.99,2.21-12.3,6.98-1.57,5.72,1.96,10.26,6.98,12.3,13.73,5.58,29.09,10.15,43.85,5.71,18.66-5.61,8.28-27.23,5.79-40.41-2.71-14.35-4.34-29.2-10.13-42.75-2.68-6.27-6.82-12.14-12.87-15.57-6.67-3.78-14.23-3.86-21.65-3.13-5.37.53-10,4.22-10,10,0,5,4.59,10.53,10,10h0Z" fill="#044f59"/>
    <path d="M114.81,38.45c-4.26,13.03,6.29,22.43,17.17,26.92,11.37,4.69,23.43,6.95,35.45,9.29,24.63,4.8,49.26,9.6,73.89,14.39,5.3,1.03,10.79-1.5,12.3-6.98,1.35-4.9-1.66-11.26-6.98-12.3-20.79-4.05-41.58-8.1-62.37-12.15-4.76-.93-51.61-9.41-50.16-13.85,4.01-12.26-15.3-17.52-19.29-5.32h0Z" fill="#044f59"/>
    <path d="M143.89,81.13c3.22,0,3.22-5,0-5s-3.22,5,0,5h0Z" fill="#044f59"/>
    <g>
      <ellipse cx="259.45" cy="112.13" rx="19.17" ry="18.52" fill="none" stroke="#231f20" stroke-miterlimit="10" stroke-width="12"/>
      <circle cx="259.13" cy="112.54" r="8.51" fill="#a7a9ac" stroke="#a7a9ac" stroke-miterlimit="10" stroke-width="14"/>
    </g>
    <g>
      <ellipse cx="51.13" cy="112.01" rx="19.17" ry="18.52" fill="none" stroke="#231f20" stroke-miterlimit="10" stroke-width="12"/>
      <circle cx="50.81" cy="112.41" r="8.51" fill="#a7a9ac" stroke="#a7a9ac" stroke-miterlimit="10" stroke-width="14"/>
    </g>
    <g>
      <path d="M9.59,68.13c1.11-1.36,2.46-2.52,3.81-3.65.1-.08.56-.42.2-.17.18-.13.37-.26.56-.38s.39-.22.59-.33c-.4.2.26-.08.3-.09.43-.13.86-.19,1.29-.3.18-.03.16-.03-.07,0,.12-.01.24-.03.36-.04.24-.02.48-.04.72-.04.44-.01.88.01,1.32.05-.51-.05.23.05.28.06.25.05.59.26.15,0l-.75-.92c-.03-.37-.05-.4-.04-.12l.04-.3c-.08.27-.06.24.07-.07,0,.12-.37.44-.11.21.12-.15.1-.15-.06.02.24-.18.29-.22.13-.12-.18.11.33-.06-.09.03-.22.05-.44.12-.66.17-.47.12-.95.23-1.42.34-.24.05-.48.1-.72.14-.1.02-.79.12-.29.06-.48.06-.96.08-1.45.08-1.31,0-2.56,1.15-2.5,2.5s1.1,2.5,2.5,2.5,2.87-.24,4.26-.56,2.74-.61,3.77-1.59,1.61-2.37,1.52-3.76c-.13-1.96-1.52-3.16-3.37-3.48-2.73-.47-5.88-.23-8.29,1.26-1.08.66-2.04,1.54-2.99,2.37s-1.82,1.65-2.6,2.6c-.83,1.01-1.06,2.56,0,3.54.92.84,2.65,1.08,3.54,0h0Z" fill="#fdf6b0"/>
      <path d="M5.9,64.89c-.59.9-1.07,2.12-.25,3.06.39.44.93.53,1.47.62s1.06.15,1.6.21c1.91.21,3.92.34,5.83.07.65-.09,1.06-.95.87-1.54-.23-.71-.84-.97-1.54-.87.11-.02.09-.02-.07,0-.09,0-.18.01-.27.02-.18,0-.37.01-.55.02-.35,0-.7,0-1.05,0-.73,0-1.45-.04-2.18-.1-.37-.03-.75-.07-1.12-.11-.34-.04-.57-.07-.86-.11-.18-.03-.37-.08-.55-.09-.52-.02.67.46.44.83.02-.07.04-.14.06-.21-.04.11-.03.1.04-.05.1-.16.18-.32.29-.48.36-.55.13-1.41-.45-1.71-.63-.33-1.33-.14-1.71.45h0Z" fill="#fdf6b0"/>
      <path d="M5.34,66.03c-.43,1.19,0,2.51,1.31,2.84,1.08.27,2.23-.03,3.3-.18.94-.13,1.88,0,2.83-.02,1.13-.01,2.27-.17,3.37-.45.65-.17,1.05-.9.87-1.54s-.88-1.04-1.54-.87c-.75.19-1.5.32-2.27.35s-1.59-.05-2.39-.04-1.61.19-2.42.29c-.17.02-.35.04-.52.05-.09,0-.6-.06-.65,0,.09-.09.36.32.32.24.02.46.05.55.1.27.03-.09.06-.19.1-.28.23-.63-.26-1.37-.87-1.54-.7-.19-1.3.24-1.54.87h0Z" fill="#fdf6b0"/>
      <path d="M6.61,68.83c2.53.65,5.15.12,7.72.14,2.16.02,5.37-.14,6.62-2.25.82-1.39-1.34-2.65-2.16-1.26-.35.59-1.44.72-2.05.86-1.04.22-2.11.14-3.17.15-2.09.01-4.24.48-6.3-.05-1.56-.4-2.22,2.01-.66,2.41h0Z" fill="#fdf6b0"/>
      <path d="M20.64,58.57l-.28-.06-.33,2.46c.46-.01,1.12.52,1.37.92.33.52.24,1.3.22,1.89-.05,1.33-1.01,2.17-2.22,2.59-1.49.51-3.13.63-4.68.75-1.69.13-3.42.22-5.1-.1-.66-.13-1.35.19-1.54.87-.17.61.21,1.41.87,1.54,2.26.43,4.54.33,6.82.1,2.08-.21,4.43-.4,6.17-1.68s2.34-3.19,2.15-5.34c-.09-1.07-.46-2.02-1.28-2.75-.77-.69-1.72-1.31-2.79-1.28-1.35.04-1.77,2.17-.33,2.46l.28.06c1.57.32,2.24-2.09.66-2.41h0Z" fill="#fdf6b0"/>
      <path d="M9.19,66.99c-.29,0-.58-.03-.86-.07l.33.04c-.38-.05-.76-.11-1.12-.25l.3.13c-.11-.05-.21-.1-.31-.18l.25.2c-.06-.05-.11-.1-.16-.16l.2.25c-.04-.06-.08-.12-.11-.19l.13.3c-.03-.07-.05-.13-.06-.21l.04.33c0-.07,0-.14,0-.21l-.04.33s.02-.09.04-.13l-.13.3s.03-.06.05-.09c.17-.26.21-.66.13-.96s-.3-.6-.57-.75c-.62-.33-1.33-.14-1.71.45-.66,1.02-.04,2.41,1,2.87.4.18.79.28,1.22.35.46.07.92.13,1.38.14.32,0,.66-.14.88-.37s.38-.57.37-.88c-.03-.69-.55-1.23-1.25-1.25h0Z" fill="#fdf6b0"/>
      <path d="M7.39,69.17c.79.38,1.66.44,2.52.51s1.65.07,2.47.02c1.6-.09,3.39-.25,4.78-1.12.57-.36.8-1.11.45-1.71s-1.14-.81-1.71-.45c-.97.61-2.32.72-3.52.78-.71.04-1.43.04-2.14,0-.33-.02-.66-.05-.99-.08,0,0-.48-.07-.26-.03-.09-.01-.18-.03-.26-.06-.15-.05-.17-.05-.07-.02-.61-.29-1.35-.17-1.71.45-.32.55-.16,1.42.45,1.71h0Z" fill="#fdf6b0"/>
    </g>
    <g>
      <g>
        <path d="M216.38,57.07h-.67c2.26,0,4.53,0,6.79,0,.13,0,.27,0,.37-.09.27-.23-.11-.64-.44-.77-2.33-.9-5.08-.62-7.18.71-.15.1-.31.21-.37.37-.09.26.1.56.36.67s.56.1.84.07c2.19-.17,4.37-.49,6.51-.94-1.43-.09-2.86-.09-4.28,0-.26.02-.53.04-.74.19s-.33.45-.19.66c.14.2.42.22.66.22,1.53,0,3.06,0,4.6.01.21,0,.45,0,.61-.14.33-.28.05-.86-.37-1s-.86,0-1.29.04-.96-.05-1.14-.44" fill="#dd5b3c"/>
        <path d="M216.38,56.44h-.67v1.25h6.3c.44,0,.96.06,1.31-.27s.34-.81.1-1.18c-.45-.7-1.5-.89-2.26-1.03-1.71-.3-3.47-.11-5.07.57-.65.28-1.67.67-1.83,1.45-.21,1.01.86,1.49,1.68,1.45,2.28-.1,4.59-.51,6.82-.97.72-.15.5-1.19-.17-1.23-1.42-.09-2.86-.11-4.28,0-.59.05-1.19.18-1.49.75s-.04,1.22.54,1.45c.52.21,1.19.11,1.74.11.71,0,1.42,0,2.13,0,.63,0,1.39.12,2-.07.57-.18.87-.75.72-1.32-.17-.64-.74-1-1.37-1.05-.34-.03-.68.06-1.01.1-.18.02-.5.05-.6-.13-.4-.7-1.48-.07-1.08.63.26.46.72.68,1.23.74.48.05.97-.17,1.44-.09.06,0,.14.06.16.06.01.01.02.02.03.04.03.07.06.01.1-.16-.03-.05-.77,0-.88,0-.63,0-1.26,0-1.89,0s-1.26,0-1.89,0c-.09,0-.23-.03-.31,0l-.1-.03c0,.25.06.34.18.26.07.01.21-.04.28-.05.16-.02.32-.02.48-.03,1.29-.07,2.58-.06,3.87.02l-.17-1.23c-1.47.3-2.94.55-4.43.72-.74.09-1.53.24-2.28.2-.02,0-.27-.05-.25-.06-.06.04-.01.17-.02.17,0,0,.09-.07.11-.08.31-.13.59-.35.89-.49,1.13-.52,2.42-.73,3.66-.64.65.04,1.28.18,1.89.39.08.03.23.13.31.14l.05.05.13-.47s-.22,0-.25,0h-1.24c-1.77,0-3.53,0-5.3,0-.8,0-.81,1.25,0,1.25h.67c.8,0,.81-1.25,0-1.25h0Z" fill="#dd5b3c"/>
      </g>
      <g>
        <path d="M215.93,56.5c-.35.23-.87.33-.99.73-.09.3.12.63.4.77s.61.17.93.18c1.56.05,3.11.08,4.67.06.58,0,1.17-.01,1.74-.11.41-.07.9-.26.95-.67.04-.36-.3-.65-.62-.83-1.1-.62-2.41-.81-3.68-.74s-2.5.41-3.71.79c-.34.11-.77.35-.68.7.03.13.14.23.25.31.86.64,2.05.52,3.11.36" fill="#dd5b3c"/>
        <path d="M215.62,55.96c-.32.19-.69.31-.96.58-.34.34-.44.82-.27,1.27.39,1.03,1.58.99,2.49,1.02,1.18.03,2.36.05,3.55.05.96,0,2.1.1,3-.31.85-.38,1.12-1.38.44-2.07-.64-.66-1.72-.97-2.6-1.12-1.03-.17-2.05-.13-3.08.03-.55.09-1.08.21-1.62.35-.49.13-1.02.25-1.47.47s-.82.63-.77,1.16.54.9,1.01,1.11c.99.45,2.1.31,3.14.16.34-.05.51-.47.44-.77-.09-.36-.44-.48-.77-.44-.57.08-1.19.16-1.76.06-.13-.02-.26-.05-.38-.1s-.25-.16-.38-.19c-.1-.03-.08-.18-.09.06.04-1.92.03.14,0,.13.03,0,.37-.16.42-.18,1.38-.43,2.81-.79,4.27-.73.63.03,1.25.14,1.84.36.27.1.56.22.79.39.05.03.09.08.13.11.14.11.01.07.03.02.03-.06-.12.04-.15.05-.56.23-1.32.16-1.92.17-.78,0-1.56,0-2.34,0-.84-.01-1.7,0-2.54-.07-.14,0-.28-.02-.41-.08-.12-.06-.07-.13-.12-.04.08-.16.54-.29.71-.38.69-.42.06-1.5-.63-1.08h0Z" fill="#dd5b3c"/>
      </g>
    </g>
    <g>
      <g>
        <path d="M156.01,56.96h-.7c2.35,0,4.7,0,7.06,0,.14,0,.28,0,.39-.09.28-.23-.11-.64-.46-.77-2.42-.9-5.28-.62-7.46.71-.16.1-.32.21-.38.37-.1.26.11.56.38.67s.58.1.87.07c2.27-.17,4.54-.49,6.77-.94-1.48-.09-2.97-.09-4.45,0-.27.02-.55.04-.77.19s-.35.45-.19.66c.14.2.43.22.68.22,1.59,0,3.18,0,4.77.01.22,0,.46,0,.63-.14.34-.28.05-.86-.38-1s-.89,0-1.35.04-.99-.05-1.18-.44" fill="#dd5b3c"/>
        <path d="M156.01,56.34h-.7v1.25h6.54c.46,0,.98.06,1.34-.27.32-.3.35-.77.13-1.14-.42-.72-1.47-.91-2.22-1.05-1.77-.33-3.64-.17-5.32.52-.68.28-1.81.67-1.96,1.5-.2,1.06.96,1.48,1.8,1.43,2.35-.15,4.7-.5,7.01-.96.72-.14.5-1.19-.17-1.23-1.48-.09-2.97-.11-4.45,0-.6.04-1.22.17-1.53.75s-.04,1.22.55,1.45c.54.21,1.23.11,1.8.11.74,0,1.48,0,2.22,0,.65,0,1.44.12,2.08-.07.57-.17.89-.75.74-1.32-.17-.64-.76-1.01-1.4-1.05-.36-.02-.7.06-1.05.1-.18.02-.53.06-.65-.13-.41-.69-1.5-.06-1.08.63.28.46.74.68,1.26.74.5.05,1.04-.2,1.52-.09-.06-.01.24.1.19.1.02.05.02.06.01.02-.03-.07,0-.13.07-.19-.03-.05-.8,0-.92,0-.65,0-1.31,0-1.96,0s-1.31,0-1.96,0c-.1,0-.24-.03-.33,0l-.1-.03c0,.25.06.33.18.26.07.01.22-.04.3-.05.16-.02.33-.02.49-.03,1.34-.07,2.68-.06,4.02.02l-.17-1.23c-1.53.3-3.06.55-4.61.72-.75.08-1.53.21-2.29.2-.07,0-.22-.03-.27-.02-.14.03.06-.09-.1.06-.17.16.23-.08.23-.09.28-.17.57-.32.87-.44,1.2-.51,2.52-.7,3.82-.61.65.05,1.29.18,1.9.38.06.02.31.17.35.16l.03.03.12-.47s-.36,0-.34,0h-1.2c-1.84,0-3.67,0-5.51,0-.8,0-.81,1.25,0,1.25h.7c.8,0,.81-1.25,0-1.25h0Z" fill="#dd5b3c"/>
      </g>
      <g>
        <path d="M155.54,56.4c-.37.23-.9.33-1.03.73-.09.3.12.63.42.77s.63.17.96.18c1.62.05,3.23.08,4.85.06.61,0,1.21-.01,1.81-.11.43-.07.94-.26.99-.67.04-.36-.31-.65-.64-.83-1.15-.62-2.51-.81-3.83-.74s-2.6.41-3.86.79c-.36.11-.8.35-.7.7.04.13.14.23.26.31.89.64,2.13.52,3.23.36" fill="#dd5b3c"/>
        <path d="M155.22,55.86c-.69.4-1.61.77-1.3,1.78.33,1.08,1.6,1.06,2.51,1.09,1.2.04,2.4.05,3.59.05,1.01,0,2.21.11,3.17-.26s1.3-1.36.56-2.12c-.68-.69-1.86-.99-2.78-1.13-1.09-.16-2.18-.11-3.27.07-.54.09-1.07.21-1.59.35s-1.08.24-1.55.5c-.41.23-.73.61-.68,1.1.05.56.56.9,1.04,1.11,1.03.45,2.17.31,3.24.16.34-.05.51-.47.44-.77-.1-.36-.44-.48-.77-.44-.58.08-1.2.16-1.78.08-.28-.04-.56-.12-.8-.26-.01,0-.14-.1-.15-.1-.01,0,0,.26,0,.26.02,0,.33-.14.36-.16,1.42-.44,2.91-.8,4.4-.76.68.02,1.36.13,2.01.35.29.1.62.23.88.41.07.05.17.19.18.13.02-.08-.18.05-.24.07-.63.21-1.38.15-2.03.15-.81,0-1.62,0-2.43,0s-1.7,0-2.55-.07c-.17-.01-.31-.06-.47-.1-.1-.03-.06-.12-.09-.02.04-.13.61-.31.74-.38.69-.41.07-1.49-.63-1.08h0Z" fill="#dd5b3c"/>
      </g>
    </g>
    <rect x="170.65" y="11.24" width="49.27" height="36.57" fill="#e5f4f8" stroke="#e5f4f8" stroke-miterlimit="10" stroke-width=".75"/>
    <rect x="229.83" y="11.75" width="52.83" height="35.3" fill="#e5f4f8" stroke="#e5f4f8" stroke-miterlimit="10" stroke-width=".75"/>
    <rect x="135.35" y="11.63" width="26.92" height="36.18" fill="#e5f4f8" stroke="#e5f4f8" stroke-miterlimit="10" stroke-width=".75"/>
    <path d="M137.19,11.9c-8-2.12-12.92,6.46-16.46,12.08-4.11,6.53-7.77,13.32-11.01,20.32-.79,1.71.14,3.71,2.16,3.76,4.5.13,9.01.11,13.51.06s8.87.07,13.19-.91c2.48-.56,2.27-4.15,0-4.82-3.7-1.1-7.47-1.85-11.3-2.32-1.74-.21-3.58-.17-5.27-.67-.78-.23-1.48-.58-2.3-.69-.54-.08-1.03-.07-1.58.05-.25.06-.66.28-.87.27l1.26.34-.28-.15.9,3.42c1.09-2.08,2.65-3.85,3.88-5.84s2.18-3.89,3.21-5.86c1.87-3.56,3.88-7.45,7.3-9.76l-3.76-2.16c-.67,6.54-1.33,13.08-2,19.63h5l-.03-11.15c0-2.95-3.96-3.22-4.91-.66-.78,2.1-1.57,4.21-2.35,6.31l-1.13,3.04c-.17.47-.35.93-.52,1.4-.39,1.06-.19.41-.08.36l3.76,2.16c.11-1.39.22-2.78.33-4.17.17-2.14-2.87-3.33-4.27-1.77-.62.69-1.26,1.36-1.93,2-.33.32-.67.63-1.02.93-.15.13-.49.31-.39.3h1.33l-.24-.06,1.1.64-.17-.2.39,3.03c.63-1.28,1.46-2.1,2.78-2.66l-3.67-1.49c.21.58.27.99.24,1.6-.07,1.35,1.2,2.5,2.5,2.5,4.1,0,8.19-.18,12.28-.53,1.44-.13,2.37-1.05,2.5-2.5.45-5.02.68-10.05.66-15.09,0-3.22-5.01-3.22-5,0,.01,5.04-.21,10.07-.66,15.09l2.5-2.5c-4.08.36-8.18.53-12.28.53l2.5,2.5c.05-.99-.08-2-.42-2.93-.59-1.67-2.12-2.15-3.67-1.49-2.01.85-3.61,2.51-4.57,4.45-.53,1.08-.37,2.13.39,3.03,2.67,3.14,6.68-1.71,8.38-3.61l-4.27-1.77c-.11,1.39-.22,2.78-.33,4.17-.16,2.08,2.2,2.86,3.76,2.16,2.17-.98,2.76-4.38,3.5-6.38.96-2.57,1.91-5.14,2.87-7.71l-4.91-.66.03,11.15c0,1.35,1.15,2.5,2.5,2.5,1.47,0,2.36-1.15,2.5-2.5.67-6.54,1.33-13.08,2-19.63.19-1.85-2.28-3.16-3.76-2.16-3.93,2.66-6.48,6.64-8.67,10.76-1.12,2.1-2.17,4.24-3.4,6.28s-2.95,4.02-4.11,6.22c-.61,1.17-.33,2.75.9,3.42.95.51,1.82.61,2.86.32.15-.04.94-.15.51-.19.38.04.78.29,1.15.42,1.88.64,3.91.66,5.86.86,3.78.39,7.5,1.2,11.14,2.27v-4.82c-4.02.91-8.26.69-12.35.73-4.34.05-8.68.05-13.02-.07l2.16,3.76c2.91-6.29,6.17-12.43,9.79-18.34,1.69-2.77,3.38-5.64,5.39-8.19,1.54-1.96,3.91-4.29,6.65-3.57,3.11.82,4.44-4,1.33-4.82h0Z" fill="#e5f4f8"/>
    <path d="M126.91,21.83c1.82-1.93,2.99-4.41,4.99-6.17s4.67-1.56,7.18-1.28c.67.07,1.25-.63,1.25-1.25,0-.74-.58-1.17-1.25-1.25-2.99-.33-5.94-.35-8.43,1.58-2.3,1.79-3.53,4.5-5.51,6.6-1.1,1.17.66,2.94,1.77,1.77h0Z" fill="#e5f4f8"/>
    <path d="M131.54,13.33l-.29-.02.88,2.13c.75-.6,1.59-1.25,2.57-1.39s2.13-.05,3.17-.05c1.09,0,2.2-.04,3.29.03.92.06,1.17.78,1.51,1.55.27.62,1.17.76,1.71.45.64-.37.72-1.09.45-1.71-.52-1.17-1.24-2.27-2.54-2.63s-2.84-.19-4.18-.19-2.83-.11-4.18.16-2.5,1.16-3.56,2.01c-.92.73-.08,2.08.88,2.13l.29.02c1.61.1,1.6-2.4,0-2.5h0Z" fill="#e5f4f8"/>
    <path d="M136.54,14.02c7.35-.06,14.68-.33,22.01.31l-1.08-1.88c-.98,1.35-1.96,2.7-2.94,4.06s1.22,2.55,2.16,1.26,1.96-2.7,2.94-4.06c.61-.84-.23-1.81-1.08-1.88-7.32-.64-14.66-.37-22.01-.31-1.61.01-1.61,2.51,0,2.5h0Z" fill="#e5f4f8"/>
    <path d="M109.73,44.45c-.34.59-.62,1.21-.84,1.86-.11.34-.21.71,0,1.04.24.39.7.39,1.11.43,1.43.13,2.87.17,4.31.13.34,0,.62-.28.62-.62s-.29-.63-.62-.62c-1.18.03-2.36.01-3.54-.07-.29-.02-.58-.04-.87-.07-.06,0-.13-.02-.19-.02-.23-.03-.14.12.29.46l.02-.06c.05-.12.08-.26.12-.38.17-.5.4-.97.67-1.43.41-.7-.67-1.33-1.08-.63h0Z" fill="#e5f4f8"/>
    <path d="M110.09,43.8c-.34.66-.68,1.31-1,1.97-.26.53-.54,1.15-.46,1.76.06.49.39.76.88.78.77.03,1.57-.05,2.34-.07,3.04-.09,6.08-.18,9.13-.26.8-.02.81-1.27,0-1.25-2.5.07-4.99.14-7.49.22-.62.02-1.25.04-1.87.05-.31,0-.62.02-.94.03-.28,0-.66-.04-.94.03-.36-.03-.32.04.13.2.02-.15.06-.29.11-.43.1-.28.25-.54.38-.8.27-.53.54-1.06.81-1.59.37-.71-.71-1.35-1.08-.63h0Z" fill="#e5f4f8"/>
    <path d="M136.26,46.8c-3.32.12-6.64.1-9.95-.05-.8-.04-.8,1.21,0,1.25,3.32.15,6.63.17,9.95.05.8-.03.81-1.28,0-1.25h0Z" fill="#e5f4f8"/>
    <path d="M126.54,48.02c4.65.21,9.32.38,13.93-.4.79-.13.46-1.34-.33-1.21-4.49.75-9.07.55-13.6.35-.8-.04-.8,1.21,0,1.25h0Z" fill="#e5f4f8"/>
    <path d="M218.35,12.19c.21.01.76-.06.95.06l-.29-.37c.12.29.04.83.05,1.15,0,.42.01.83.02,1.25,0,.87,0,1.73,0,2.6-.02,1.73-.09,3.46-.18,5.19-.05.8,1.2.8,1.25,0,.13-2.21.19-4.43.19-6.64,0-1.11,0-2.22-.04-3.32-.01-.4-.05-.79-.46-.99s-1.02-.14-1.47-.17c-.8-.05-.8,1.2,0,1.25h0Z" fill="#e5f4f8"/>
    <path d="M218.57,47.85c.65.1,1.31.18,1.96.2.58.02,1.2.02,1.51-.56.27-.51.17-1.23.17-1.78,0-.75-.02-1.51-.06-2.26-.14-2.91-.55-5.8-1.19-8.64-.16-.68-1.26-.54-1.23.17.18,3.85.21,7.71.11,11.57l1.07-.44c-.23-.19-.39-.38-.53-.65-.36-.72-1.44-.09-1.08.63.18.36.41.65.72.9.41.33,1.05.13,1.07-.44.11-3.86.07-7.72-.11-11.57l-1.23.17c.53,2.31.89,4.64,1.07,7,.09,1.15.13,2.29.14,3.44,0,.31-.03.64,0,.95.02.28.08.25-.19.26-.61.03-1.26-.07-1.86-.16-.79-.12-1.13,1.08-.33,1.21h0Z" fill="#e5f4f8"/>
    <path d="M219.22,12.21c.61-.12.29,3.69.28,4.07-.02,1.14-.02,2.28,0,3.42.04,2.44.18,4.88.35,7.32.35,4.88.86,9.75,1.19,14.64.05.8,1.3.8,1.25,0-.39-5.86-1.05-11.7-1.37-17.57-.16-2.84-.23-5.69-.14-8.54.04-1.48.69-5.03-1.88-4.55-.79.15-.46,1.35.33,1.21h0Z" fill="#e5f4f8"/>
    <path d="M219.45,12.1h.94c-.21-.2-.42-.41-.62-.62.91,9.81,1.45,19.66,1.62,29.51.01.8,1.26.81,1.25,0-.17-9.85-.71-19.7-1.62-29.51-.03-.34-.26-.62-.62-.62h-.94c-.8-.02-.81,1.23,0,1.24h0Z" fill="#e5f4f8"/>
    <path d="M219.11,30.81c.21,1.84.33,3.68.38,5.52.02.8,1.27.81,1.25,0-.05-1.85-.18-3.69-.38-5.52-.04-.34-.26-.62-.62-.62-.31,0-.66.29-.62.62h0Z" fill="#e5f4f8"/>
    <path d="M220.99,34.33c.13,3.31.25,6.63.38,9.94.03.8-.02,1.66.09,2.45.05.32-.05.15.1.15-.19.01-.39-.04-.58-.07-.39-.05-.78-.11-1.17-.15-1.64-.18-3.29-.22-4.95-.14-.8.04-.81,1.29,0,1.25,1.86-.09,3.73-.03,5.57.22.62.08,1.44.33,1.96-.16.55-.52.29-1.59.27-2.26-.14-3.74-.28-7.49-.42-11.23-.03-.8-1.28-.81-1.25,0h0Z" fill="#e5f4f8"/>
    <path d="M221.24,36.24c0,2.78-.01,5.56-.02,8.33,0,.8,1.25.81,1.25,0,0-2.78.01-5.56.02-8.33,0-.8-1.25-.81-1.25,0h0Z" fill="#e5f4f8"/>
    <path d="M221.27,39.33c.08,1.58.13,3.16.16,4.74.02.78.03,1.55.03,2.33,0,.05.01.64,0,.64l.21-.28c-.1.01-.2.02-.31.03-.42.03-.84.02-1.26-.03-.34-.04-.62.31-.62.62,0,.37.29.59.62.62.45.05.89.06,1.34.02.42-.04.9-.06,1.14-.46.2-.34.13-.8.13-1.18,0-.48,0-.96-.02-1.45-.03-1.87-.09-3.75-.18-5.62-.04-.8-1.29-.81-1.25,0h0Z" fill="#e5f4f8"/>
    <path d="M282.05,12.62c1.6-.37,2.89,3.78,3.38,4.9.8,1.82,1.52,3.67,2.21,5.53,1.28,3.47,2.41,6.98,3.52,10.5.55,1.73,1.08,3.46,1.53,5.22.24.91.45,1.83.64,2.76.09.46.18.93.26,1.39.04.25.38,1.5.24,1.7-.34.48-2.13.22-2.67.22-1,0-1.99,0-2.99-.03-1.99-.05-3.98-.16-5.97-.31-.8-.06-.8,1.19,0,1.25,2.48.19,4.97.3,7.46.33,1.31.01,2.68.11,3.98-.03.49-.05,1-.11,1.29-.58.34-.56.09-1.36,0-1.96-.18-1.25-.41-2.48-.7-3.71-.52-2.23-1.19-4.41-1.87-6.59-1.39-4.42-2.82-8.83-4.53-13.14-.83-2.09-1.72-4.16-2.71-6.18-.69-1.41-1.61-2.9-3.41-2.49-.78.18-.45,1.38.33,1.21h0Z" fill="#e5f4f8"/>
    <path d="M282.02,47.4c3.62.09,7.24.17,10.85.26.6.01,1.53.22,2-.27s.22-1.35.11-1.94c-.3-1.54-.87-3.02-1.65-4.38-.4-.7-1.48-.07-1.08.63.65,1.15,1.14,2.37,1.43,3.66.07.32.14.64.18.96.02.11.03.22.04.33l.09-.21c-.17-.01-.33,0-.5-.01l-2.37-.06-9.11-.22c-.8-.02-.8,1.23,0,1.25h0Z" fill="#e5f4f8"/>
    <path d="M282.08,46.74c1.57-.17,3.13-.32,4.71-.28s3.29.16,4.93.24l1.15.06c.31.02.71.09.99-.07.62-.35.29-1.16.14-1.67-.43-1.45-1-2.85-1.68-4.19-.27-.53-1.24-.31-1.16.32.19,1.48.5,2.93.95,4.35l.77-.77c-2.64-.89-5.53-.37-8.12-1.4-.75-.3-1.07.91-.33,1.21,2.6,1.03,5.49.51,8.12,1.4.45.15.91-.33.77-.77-.42-1.31-.73-2.65-.91-4.02l-1.16.32c.38.74.72,1.5,1.01,2.28.14.36.27.73.38,1.1.06.2.13.41.19.61.02.07.1.53.18.38l.54-.31c-.44.05-.93-.03-1.37-.05l-1.49-.08c-.96-.05-1.91-.1-2.87-.15-1.93-.09-3.81.02-5.73.23-.79.09-.8,1.34,0,1.25h0Z" fill="#e5f4f8"/>
    <path d="M280.68,14.36l4.23,12.38,3.43-1.44c-1.11-2.15-2.23-4.35-2.22-6.83l-3.68.5c.81,2.42,1.65,4.83,2.63,7.18.89,2.14,1.88,4.31,1.94,6.66l3.2-1.33c-1.66-1.71-2.92-3.71-4.17-5.73-1.09-1.76-4.07-.65-3.43,1.44,1.08,3.51,1.61,7.08,1.57,10.76l3.49-.95c-.98-1.58-1.74-3.27-2.46-4.98-.37-.87-1.05-1.48-2.06-1.34-.91.12-1.63.9-1.63,1.84.02,2.58.25,5.13.64,7.68.24,1.57,2.76,1.83,3.43.45.44-.92.83-1.85,1.14-2.82.75-2.3-2.87-3.28-3.62-1-.22.66-.46,1.29-.76,1.92l3.43.45c-.33-2.21-.48-4.45-.5-6.68l-3.68.5c.84,2.01,1.68,4.02,2.84,5.87.98,1.57,3.47.94,3.49-.95.05-3.98-.52-7.95-1.7-11.75l-3.43,1.44c1.42,2.29,2.88,4.55,4.76,6.49,1.11,1.15,3.25.3,3.2-1.33-.07-2.57-.92-4.9-1.91-7.24-1.04-2.49-1.94-5.03-2.8-7.59-.66-1.96-3.67-1.69-3.68.5-.01,3.16,1.32,5.97,2.73,8.72.96,1.87,4.12.58,3.43-1.44-1.41-4.13-2.82-8.25-4.23-12.38-.78-2.27-4.4-1.3-3.62,1h0Z" fill="#e5f4f8"/>
    <path d="M283.1,36.4s-.14.33-.02.06c-.04.08-.08.17-.12.25-.09.19-.19.38-.28.57-.22.43-.45.86-.65,1.31-.43.97-.76,1.98-.75,3.06.04,2.2,1.52,3.82,3.46,4.65,1.82.78,3.85,1,5.77.45.54-.15,1.07-.37,1.47-.78.59-.59.61-1.43.71-2.21.11-.95.27-1.92.22-2.89-.06-1.2-.4-2.33-.75-3.47-.32-1.05-.65-2.09-.97-3.14l-2.75,2.12c-.36-.25-.02,0,.06.07.3.28-.15-.29.05.07.07.13.14.26.21.38-.15-.27-.03-.09.03.1.2.57.33,1.17.48,1.76.18.71.38,1.42.57,2.13.1.37.19.74.28,1.11.04.16.07.31.1.47.02.09.04.19.06.28.05.35.07.25.06-.31l.48-.83c.62-.29.75-.37.39-.24l-.17.05c-.38.13.17.03-.2.04-.18,0-.35,0-.53,0,.38.03-.14-.05-.2-.06-.38-.09.16.16-.15-.08.12.09.35.22.33.41,0-.07-.13-.38-.15-.45-.05-.17-.09-.35-.14-.52-.33-1.4-.44-2.85-1-4.19-.31-.75-.92-1.42-1.81-1.38-.78.03-1.65.55-1.81,1.38-.43,2.23-.63,4.51-.52,6.78l3.49-.95c-.48-.83-.93-1.68-1.35-2.55-.2-.42-.4-.84-.59-1.27-.03-.06-.3-.7-.18-.41-.1-.23-.19-.46-.28-.69-.36-.91-1.27-1.65-2.31-1.31-.88.28-1.7,1.33-1.31,2.31.8,2,1.71,3.94,2.78,5.81.9,1.57,3.58.94,3.49-.95-.05-1.02-.04-2.04.03-3.06.08-1.17.14-1.61.36-2.72h-3.62c.7,1.7.65,3.6,1.33,5.3.49,1.22,1.45,1.97,2.73,2.23,1.13.23,2.5.19,3.52-.41.73-.43,1.1-1.21,1.06-2.04-.03-.6-.21-1.22-.34-1.81-.22-.93-.49-1.85-.73-2.78-.2-.77-.36-1.56-.65-2.31-.42-1.08-1.01-1.92-1.97-2.58-1.35-.93-3.22.61-2.75,2.12.3.98.61,1.97.91,2.95.15.49.31.98.44,1.47.07.25.12.5.18.74.04.23.04.25.02.07.01.13.03.25.03.38.05.96-.11,1.93-.22,2.89-.01.13-.03.26-.04.38,1.12-.93,1.38-1.28.78-1.06-.21.04-.42.12-.63.16-.11.02-.21.04-.32.06.23-.03.23-.04.01-.01-.22,0-.43.02-.65.01-.08,0-.77-.07-.32,0-.22-.03-.43-.07-.64-.13s-.42-.13-.63-.19c-.2-.08-.2-.08,0,0-.1-.04-.2-.09-.3-.14-.19-.1-.38-.21-.57-.32-.08-.05-.43-.35-.14-.09-.07-.07-.47-.55-.25-.21-.06-.09-.12-.18-.17-.28.08.2.08.2.01,0-.03-.1-.05-.21-.07-.31.03.23.04.24.02.01,0-.09.1-.75,0-.32.05-.22.1-.43.17-.65.03-.1.07-.21.11-.31-.07.17-.07.15.03-.06.46-.97.98-1.91,1.37-2.91.35-.92-.39-2.1-1.31-2.31-1.07-.24-1.93.33-2.31,1.31h0Z" fill="#e5f4f8"/>
    <path d="M297.33,28.58c1.54,8.06,2.57,16.19,3.09,24.38.09,1.35,1.09,2.5,2.5,2.5,1.29,0,2.59-1.15,2.5-2.5-.55-8.63-1.65-17.21-3.27-25.7-.25-1.33-1.85-2.08-3.08-1.75-1.39.38-2,1.74-1.75,3.08h0Z" fill="#044f59"/>
    <path d="M290.63,15.63c4.71,6.44,8.22,13.58,10.48,21.22,2.11,7.13,3.18,14.5,3.75,21.89.33,4.25.51,8.51.66,12.77.11,3.21,5.11,3.22,5,0-.54-15.69-1.79-31.53-8.33-46.02-1.97-4.37-4.41-8.51-7.25-12.38-.8-1.09-2.17-1.63-3.42-.9-1.07.63-1.7,2.32-.9,3.42h0Z" fill="#044f59"/>
    <path d="M265.59,53.01c-.68.33-1.16.25-1.45-.25-.25-.38-.29-.36-.14.04.01-.07-.01.49-.01.54,0,.74-.09,1.45-.24,2.18l1.15-1.49-.09.04,3.03.39-.09-.07.73,1.77v-.12c-.42.72-.83,1.44-1.25,2.16l.14-.11-1.26.34c2.24-.27,4.69.09,6.94.22,2.37.14,4.76.27,7.14.17s4.77-.37,6.98-1.13c1.34-.46,2.7-1.43,2.7-3.01,0-.79-.27-1.53-.83-2.1-.2-.2-.44-.38-.69-.52-.08-.05-.93-.49-.56-.26l.9.9-.13-.2.25,1.93.03-.21-2.41,1.84c.2-.01.39-.03.59-.04,1.35-.1,2.5-1.08,2.5-2.5,0-1.28-1.15-2.6-2.5-2.5-.2.01-.39.03-.59.04-.99.07-2.24.72-2.41,1.84-.13.88-.13,1.56.35,2.33.23.36.54.67.9.9.16.11.33.2.51.26.47.22.4.16-.2-.17l-.73-1.77.02.25.34-1.26-.14.23.9-.9c-.69.51-1.9.61-2.74.76-1,.18-2.02.26-3.04.31-2.1.09-4.2,0-6.29-.12s-4.22-.27-6.33-.3c-1.21-.02-2.44-.06-3.37.86-.97.97-1.01,2.82.1,3.72.97.79,1.9.87,3.03.39,1.31-.56,1.41-2.29,1.55-3.5s.2-2.42-.11-3.57c-.67-2.51-3.36-3.91-5.71-2.62-2.82,1.55-.3,5.87,2.52,4.32h0Z" fill="#044f59"/>
    <path d="M180.35,60.69c3.22,0,3.22-5,0-5s-3.22,5,0,5h0Z" fill="#044f59"/>
    <path d="M278.45,79.55c3.22,0,3.22-5,0-5s-3.22,5,0,5h0Z" fill="#044f59"/>
    <path d="M279.62,24.3l2.71,9.9c.54,1.97,3.88,1.66,3.68-.5-.34-3.82-.68-7.64-1.03-11.46l-3.49.95c2.9,4.81,7.53,9.46,7.8,15.38.05,1.01.83,1.88,1.88,1.88.98,0,1.92-.86,1.88-1.88-.31-6.79-4.98-11.75-8.31-17.27-.9-1.49-3.67-.99-3.49.95.34,3.82.68,7.64,1.03,11.46l3.68-.5-2.71-9.9c-.64-2.33-4.25-1.34-3.62,1h0Z" fill="#e5f4f8"/>
    <path d="M293.31,46.85c2.41,0,2.42-3.75,0-3.75s-2.42,3.75,0,3.75h0Z" fill="#e5f4f8"/>
    <path d="M293.47,42.76c.15,1.26.29,2.51.44,3.77.04.31.21.57.54.61.28.04.63-.14.69-.45.12-.68.05-1.35-.1-2.02-.13-.6-.3-1.19-.32-1.74l-1.23.17c.31.95.47,1.86.5,2.83,0,.11,0,.21,0,.32,0,.15.03-.05,0,.02-.01.04,0,.04.02-.03l.12-.11c.13-.03.16-.04.09-.04-.02,0-.04,0-.07,0-.03,0-.15-.02-.07,0-.11-.02-.22-.05-.32-.08-.2-.06-.31-.12-.52-.24-.2-.11-.39-.24-.57-.36-.27-.18-.7-.06-.86.22-.17.32-.07.66.22.86.47.32.97.63,1.52.77.3.08.68.15.99.05.4-.12.62-.46.67-.86.08-.61-.02-1.27-.11-1.88s-.23-1.21-.42-1.8c-.1-.3-.37-.49-.69-.45-.29.04-.55.3-.54.61.03.64.18,1.25.32,1.87.03.15.07.3.09.45.01.07.02.14.04.21.02.12,0-.02.01.11.01.14.02.27.02.41,0,.07,0,.14,0,.21,0,.05,0,.09-.01.14,0-.05,0-.04,0,.04l1.23.17c-.15-1.26-.29-2.51-.44-3.77-.04-.32-.26-.64-.62-.62-.31.01-.67.28-.62.62h0Z" fill="#e5f4f8"/>
    <path d="M128.89,27.69c-1.72,1.86-2.37,4.32-2.92,6.73l1.23.17c-.14-1.23.22-2.4,1.09-3.3l-1.04-.28c.99,3.02,2,6.08,3.58,8.85.67,1.18,1.49,2.24,2.9,2.51s2.71-.12,3.99-.54c.7-.23.52-1.15-.17-1.23-1.96-.21-3.91-.41-5.87-.62l.32,1.16c1.74-.76,3.62-.99,5.5-.75.8.1.79-1.15,0-1.25-2.11-.27-4.19.08-6.13.92-.63.28-.22,1.11.32,1.16,1.96.21,3.91.41,5.87.62l-.17-1.23c-1.07.35-2.28.75-3.42.52-1.34-.27-1.94-1.65-2.51-2.75-1.27-2.46-2.14-5.1-3-7.72-.14-.43-.7-.63-1.04-.28-1.08,1.12-1.63,2.64-1.45,4.19.07.65,1.06.91,1.23.17.5-2.18,1.03-4.49,2.6-6.18.55-.59-.34-1.48-.88-.88h0Z" fill="#e5f4f8"/>
    <path d="M109.68,48.27c10.13.1,20.25-.65,30.26-2.24.79-.13.46-1.33-.33-1.21-9.9,1.57-19.91,2.3-29.93,2.19-.8,0-.81,1.24,0,1.25h0Z" fill="#e5f4f8"/>
    <path d="M120.72,58.64c-2.27-1.92-4.47-3.93-6.59-6.02l-1.77,4.27c2.76-.16,4.77.06,7.34.77l.66-4.91c-.18-.02-.36-.04-.53-.06q.18.03,0,0c-.27-.04-.53-.08-.8-.13-.57-.1-1.14-.22-1.71-.36-1.13-.28-2.24-.64-3.32-1.07v4.82c2.23-.73,4.48-1.37,6.76-1.93.55-.13,1.1-.27,1.66-.39.23-.05.46-.09.69-.14.53-.11-.33,0,.27-.04.46-.04.92-.05,1.38-.02-.54-.03.1.03.22.06.15.04.29.08.43.14-.25-.11-.24-.09.02.04,1.15.63,2.78.32,3.42-.9s.33-2.75-.9-3.42c-2.45-1.34-5.12-.96-7.73-.35s-5.07,1.31-7.56,2.12c-1.01.33-1.89,1.29-1.84,2.41.05,1.19.76,1.99,1.84,2.41,2.48.97,5.05,1.52,7.69,1.79,1.23.13,2.31-1.05,2.46-2.17.16-1.22-.58-2.41-1.79-2.74-2.81-.78-5.76-1.11-8.67-.94-1.01.06-1.88.58-2.28,1.54s-.2,2.02.52,2.73c2.12,2.09,4.31,4.09,6.59,6.02,1,.84,2.57,1.05,3.54,0,.85-.93,1.07-2.63,0-3.54h0Z" fill="#044f59"/>
    <path d="M20.41,77.77c-1.11,3.44-1.75,7.03-1.97,10.64l4.91-.66c-.27-1.38-.49-2.76-.7-4.15-.06-.43.04.33-.01-.09-.02-.17-.04-.34-.06-.51-.04-.34-.08-.68-.12-1.01-.08-.72-.15-1.44-.21-2.16h-5c.42,4.22.99,8.42,1.69,12.6.22,1.29,1.88,2.13,3.08,1.75,1.4-.45,1.98-1.69,1.75-3.08-.16-.95-.31-1.89-.46-2.84-.08-.52-.16-1.04-.23-1.55-.03-.22-.06-.43-.09-.65-.02-.13-.04-.26-.05-.39-.04-.28-.05-.35-.03-.19.03.25-.05-.39-.06-.45-.03-.26-.07-.52-.1-.78-.06-.48-.12-.95-.17-1.43-.12-1-.22-2-.32-2.99-.13-1.3-1.06-2.56-2.5-2.5-1.26.06-2.61,1.1-2.5,2.5.25,3.1.68,6.2,1.28,9.25.24,1.22,1.6,1.94,2.74,1.79,1.27-.17,2.09-1.2,2.17-2.46.05-.85.13-1.69.23-2.53.02-.15.05-.37.01-.09.03-.21.06-.42.09-.63.07-.42.14-.84.22-1.25.31-1.63.73-3.23,1.24-4.8.4-1.25-.47-2.78-1.75-3.08-1.37-.31-2.64.41-3.08,1.75h0Z" fill="#044f59"/>
    <path d="M309.1,66c-1.31-.57-2.6-.77-4.01-.42-1.16.28-2.31.97-3.12,1.85-1.8,1.96-2.3,4.97-2.18,7.55.06,1.31.18,2.99.9,4.14,1.07,1.7,2.92,1.57,4.67,1.58,1.2,0,2.42.06,3.62.02.95-.03,1.8-.33,2.47-1.03s.9-1.67.9-2.63c0-2.89-.44-5.82-1.11-8.63-.25-1.02-1.35-1.88-2.41-1.84s-2.21.73-2.41,1.84c-.41,2.25-.62,4.52-.57,6.81l4.66-1.26c-.43-.76-.86-1.51-1.29-2.27-1.05-1.85-4.03-1.48-4.57.6-.4,1.57-.4,3.23.07,4.79.38,1.25,1.77,2.17,3.08,1.75s2.15-1.73,1.75-3.08c-.07-.24-.13-.47-.18-.71-.08-.37-.05.04.01.12-.06-.08-.02-.37-.03-.46,0-.25.02-.49.03-.74.02-.34-.11.44,0,.12.04-.15.07-.3.1-.45l-4.57.6c.43.76.86,1.51,1.29,2.27.52.92,1.79,1.48,2.82,1.15s1.86-1.28,1.84-2.41c-.02-1,0-1.99.08-2.99.04-.47.04-.98.14-1.44-.16.68.02-.15.05-.29.04-.25.08-.51.13-.76h-4.82c.22.93.42,1.87.57,2.82.04.22.07.44.1.66.06.36-.05-.46-.01-.1.01.1.02.19.03.29.06.51.11,1.02.15,1.52.03.45.06.89.08,1.34,0,.25.02.51.02.77,0,.05-.02.14,0,.19.06.24.18-.57.02-.22.24-.56.6-1.07,1.22-1.25.02,0,.54-.01.32-.06-.19-.04-.45,0-.65,0-.52,0-1.03,0-1.55,0-.97,0-1.94,0-2.9-.02-.09,0-.21-.02-.29,0,.4-.05.61.21.91.45l.53.41c.13.37.17.46.11.27-.01-.07-.04-.14-.06-.21-.06-.24-.11-.48-.15-.73-.02-.09-.03-.18-.04-.27-.06-.31.04.51,0,.02-.03-.43-.06-.86-.06-1.3,0-.25.01-.49.03-.74,0-.09.01-.18.02-.28,0-.09.02-.18.03-.28l-.04.3c0-.41.15-.87.25-1.26.06-.23.13-.45.2-.68.02-.06.14-.35,0-.03-.15.36.06-.11.1-.18.04-.08.09-.15.14-.23.17-.28-.08.12-.15.18.15-.13.28-.31.43-.44.4-.36-.41.27.04-.02.22-.14.76-.29.07-.09.17-.05.34-.12.51-.16.06-.02.21-.06.26-.05-.04,0-.63.03-.27.05.08,0,.18,0,.26,0,.41-.02-.47-.14-.21-.04.2.07.83.29.1-.03.64.28,1.23.44,1.93.25.58-.16,1.21-.61,1.49-1.15.57-1.08.38-2.86-.9-3.42h0Z" fill="#e85b49"/>
    <path d="M309.12,38.88c.11,2.05.67,4.06,1.73,5.83.45.76,1.27,1.24,2.16,1.24.45,0,.87-.12,1.26-.34.38-.22.67-.52.9-.9.23-.32.43-.66.59-1.02.23-.52.46-1.05.57-1.61.13-.61.15-1.25.39-1.83l-.25.6c.06-.14.13-.28.23-.4l-.39.51c.07-.09.15-.17.24-.24l-.51.39c.06-.05.13-.09.2-.13.54-.29.99-.91,1.15-1.49s.09-1.4-.25-1.93-.86-1-1.49-1.15c-.67-.15-1.31-.07-1.93.25-1.08.57-1.75,1.72-2,2.88-.15.73-.21,1.45-.5,2.15l.25-.6c-.17.39-.37.75-.62,1.1h4.32c-.24-.4-.45-.81-.63-1.24l.25.6c-.34-.81-.57-1.65-.69-2.52l.09.66c-.04-.27-.06-.54-.07-.81-.03-.66-.26-1.29-.73-1.77-.43-.43-1.15-.76-1.77-.73s-1.32.24-1.77.73-.77,1.1-.73,1.77h0Z" fill="#2f2f2f"/>
    <path d="M117.4,20.11c1.15-1.66,2.31-3.31,3.49-4.95,1-1.39,1.94-3.16,3.27-4.26,1.1-.92,3.02-1.18,4.43-1.38,1.84-.26,3.79-.23,5.62.06,1.33.21,2.69-.34,3.08-1.75.33-1.19-.41-2.86-1.75-3.08-2.38-.38-4.74-.52-7.13-.22s-4.86.69-6.79,2.02-3.08,3.34-4.38,5.15c-1.41,1.94-2.79,3.9-4.16,5.87-.77,1.11-.2,2.78.9,3.42,1.24.73,2.65.22,3.42-.9h0Z" fill="#044f59"/>
    <path d="M130.44,4.39h-2.81c-1.02-.01-2.1-.1-3.09.15-1.67.42-3.07,2.09-4.18,3.33-2.31,2.6-4.06,5.53-5.33,8.76-.48,1.22.53,2.8,1.75,3.08,1.44.33,2.56-.44,3.08-1.75.02-.06.24-.61.12-.31s.14-.31.13-.3c.13-.3.27-.59.42-.88.31-.62.64-1.22.99-1.81.37-.62.78-1.22,1.2-1.81.09-.12.17-.23.26-.35-.28.39.01-.02.08-.09.23-.28.46-.56.7-.83.45-.52.93-1.02,1.42-1.5.23-.23.47-.45.72-.67s.29-.13.03-.04c.34-.11-.01-.07-.16.02-.15.01-.15.02,0,0,.11,0,.23,0,.34,0,.17,0,.34,0,.51,0h1.28c.85,0,1.7,0,2.55.01,1.31,0,2.56-1.15,2.5-2.5s-1.1-2.5-2.5-2.5h0Z" fill="#044f59"/>
    <path d="M115.27,23.46c2.49-3.37,3.74-7.62,6.53-10.76.64-.73,1.35-1.42,2.19-1.92.96-.56,2-.59,3.09-.61,2.77-.04,5.54,0,8.31.05,3.22.07,3.22-4.93,0-5-2.97-.06-5.97-.15-8.94-.04s-5.58,1.28-7.73,3.49c-3.43,3.53-4.88,8.35-7.76,12.27-.8,1.09-.18,2.79.9,3.42,1.27.74,2.62.19,3.42-.9h0Z" fill="#044f59"/>
    <path d="M118.96,9c-1.71,3.63-3.59,7.18-5.62,10.63h4.32l-.05-.12.34,1.26c0,.12-.38,1.04-.14.55.09-.18.17-.36.26-.55.18-.36.35-.72.54-1.08.35-.69.71-1.37,1.08-2.05.75-1.38,1.56-2.74,2.4-4.06.7-1.11.27-2.81-.9-3.42-1.23-.65-2.67-.28-3.42.9-.97,1.53-1.88,3.09-2.73,4.68-.41.77-.81,1.55-1.19,2.33-.25.52-.58,1.08-.74,1.64-.26.89-.11,1.6.24,2.45.33.78,1.37,1.24,2.16,1.24.88,0,1.71-.48,2.16-1.24,2.03-3.46,3.91-7.01,5.62-10.63.56-1.18.37-2.75-.9-3.42-1.11-.59-2.82-.37-3.42.9h0Z" fill="#044f59"/>
    <path d="M120.21,9.92c-5.43,5.16-9.4,11.57-12.55,18.32-.57,1.22-.34,2.7.9,3.42,1.08.63,2.85.33,3.42-.9,3-6.42,6.63-12.42,11.77-17.3.98-.93.94-2.6,0-3.54s-2.55-.93-3.54,0h0Z" fill="#044f59"/>
    <path d="M122.19,12.2c.21-.45.44-.89.72-1.3.03-.05.21-.25.22-.31,0,.08-.41.51-.13.17.14-.16.28-.32.44-.47.13-.13.28-.25.42-.38.33-.29-.52.36-.16.12.09-.06.18-.12.27-.18.32-.21.66-.38,1.01-.53l-.6.25c.69-.28,1.4-.45,2.14-.55l-.66.09c.78-.1,1.57-.14,2.35-.17,1.3-.06,2.56-1.11,2.5-2.5-.06-1.31-1.1-2.56-2.5-2.5-2.22.09-4.47.29-6.44,1.41-1.71.97-3.07,2.55-3.88,4.32-.29.63-.44,1.24-.25,1.93.16.58.61,1.21,1.15,1.49,1.1.58,2.84.37,3.42-.9h0Z" fill="#044f59"/>
    <path d="M119.58,15.16c-4.34,4.76-7.36,10.45-10.45,16.05s-6.58,11.49-8.48,17.83c-.93,3.09,3.9,4.41,4.82,1.33,1.78-5.92,5.01-11.25,7.98-16.63s5.64-10.61,9.67-15.04c2.16-2.37-1.36-5.92-3.54-3.54h0Z" fill="#044f59"/>
    <line x1="106.46" y1="48.83" x2="164.93" y2="48.45" fill="none" stroke="#044f59" stroke-miterlimit="10"/>
    <line x1="139.88" y1="50.83" x2="198.36" y2="50.45" fill="none" stroke="#044f59" stroke-miterlimit="10"/>
    <line x1="189.29" y1="48.77" x2="227.26" y2="48.52" fill="#044f59" stroke="#044f59" stroke-miterlimit="10"/>
    <path d="M132.35,16.93c-.13,3.16-.25,6.32-.38,9.48l-.18,4.65-.1,2.42-.02.56c-.1.52.01.51.34-.02-.06-.03-.34.13-.46.15-.87.14-2.17-.17-2.88-.73-.59-.47-.16-.9.42-1.34,1.99-1.51,4.81-1.7,7.2-1.92,1.01-.09,1.88-.8,1.88-1.88,0-.94-.86-1.97-1.88-1.88-2.91.26-5.92.57-8.5,2.06s-4.41,4.65-2.13,7.25c1.76,2,5.36,2.77,7.78,1.73,1.83-.79,1.93-2.41,2-4.17l.2-5.02c.15-3.78.3-7.56.45-11.33.1-2.41-3.65-2.41-3.75,0h0Z" fill="#e5f4f8"/>
    <path d="M120.58,31.76c2.51-4.84,4.92-9.91,8.52-14.06.71-.82,1.4-1.65,2.45-2.03,1.27-.45,2.65-.52,3.99-.48,2.99.09,6,.7,8.93,1.23,2.36.43,3.37-3.18,1-3.62-3.26-.6-6.61-1.27-9.93-1.37-3-.09-6.09.45-8.25,2.68-4.34,4.47-7.11,10.28-9.95,15.74-1.11,2.14,2.13,4.04,3.24,1.89h0Z" fill="#e5f4f8"/>
    <path d="M134.74,15.04c3.02-.19,6.04-.25,9.06-.18,1.48.04,2.96.11,4.44.21.74.05,1.48.11,2.21.18.37.03.74.07,1.11.11.16.02,1.14.22.77.03l-.67-.67c-.04-.26-.06-.28-.05-.05,0,.16,0,.31-.02.47-.03.26-.11.53-.16.78-.13.63-.26,1.26-.39,1.89-.29,1.31-.59,2.62-.92,3.93-.58,2.34,3.03,3.34,3.62,1s1.26-4.83,1.56-7.28c.15-1.24.03-2.66-1.17-3.35-1.06-.61-2.67-.51-3.86-.61-5.16-.46-10.36-.51-15.53-.19-2.4.15-2.41,3.9,0,3.75h0Z" fill="#e5f4f8"/>
  </g>
</svg>