<?xml version="1.0" encoding="UTF-8"?>
<svg id="Layer_2" data-name="Layer 2" xmlns="http://www.w3.org/2000/svg" viewBox="0 0 289.32 95.02">
  <g id="Layer_1-2" data-name="Layer 1">
    <g>
      <path d="M1.62,50.94c-.36,2.56.13,5.19,1.02,7.62.89,2.43,2.17,4.69,3.45,6.94,1.25,2.19,2.62,4.5,4.87,5.64,1.22.62,2.61.83,3.97.88,1.63.06,3.42-.18,4.54-1.36.76-.81,1.09-1.93,1.32-3.02.4-1.95.57-3.95.49-5.94" fill="#0a151d"/>
      <path d="M.37,50.94c-.51,4.14.91,8.15,2.77,11.79,1.6,3.11,3.32,6.8,6.22,8.9,2.58,1.87,7.25,2.44,10.04.69,1.54-.97,2.23-2.62,2.59-4.33.44-2.06.6-4.17.53-6.28-.05-1.6-2.55-1.61-2.5,0,.06,1.75-.04,3.5-.36,5.22-.26,1.37-.59,2.91-2.02,3.5-2.6,1.07-6.1.16-7.97-1.84-.95-1.01-1.65-2.23-2.34-3.42-.83-1.44-1.65-2.89-2.38-4.38-1.51-3.08-2.51-6.38-2.08-9.83.2-1.59-2.3-1.58-2.5,0H.37Z" fill="#0a151d"/>
    </g>
    <g>
      <g>
        <g>
          <path d="M2.68,51.69c.95,6.36,4.92,11.92,8.78,17.24,1.01,1.38,2.1,2.84,3.75,3.49.96.38,2.02.45,3.06.51,6.63.38,13.28.46,19.92.24.25,0,.51-.02.7-.17.15-.12.23-.29.3-.46,4.21-9.99,13.67-17.92,24.79-20.78" fill="#0a151d"/>
          <path d="M1.48,52.03c.92,5.74,4.05,10.74,7.37,15.39,1.46,2.06,2.93,4.62,5.24,5.84,2.58,1.36,6.1,1.04,8.93,1.14,3.32.12,6.64.16,9.96.13,1.58-.01,3.16-.03,4.73-.09,1.47-.06,2.19-.4,2.79-1.76,2.01-4.55,5.08-8.56,8.83-11.83,4.31-3.76,9.48-6.43,15-7.88,1.55-.41.9-2.82-.66-2.41-9.13,2.4-17.36,8.05-22.61,15.93-.6.91-1.17,1.84-1.68,2.81-.28.53-.55,1.07-.81,1.62-.33.71-.17.99-.86,1.02-3.15.12-6.31.12-9.46.09s-6.31-.14-9.46-.32c-1.35-.07-2.76-.1-3.92-.89-1.07-.73-1.82-1.84-2.57-2.87-3.66-5.03-7.4-10.3-8.4-16.58-.25-1.58-2.66-.91-2.41.66h0Z" fill="#0a151d"/>
        </g>
        <g>
          <path d="M3.95,56.63c-.29-1.9-.59-3.8-.88-5.69-.25,1.22-.16,2.49.26,3.68-2-2.07-2.54-4.87-1.88-7.42.66-2.55,2.43-4.86,4.63-6.8,1.41-1.25,3.03-2.38,4.95-3.09,2.6-.97,5.56-1.12,8.44-1.25,6.93-.31,13.85-.63,20.78-.94,5.25-.24,10.54-.47,15.74.12" fill="#0a151d"/>
          <path d="M5.16,56.3c-.29-1.9-.59-3.8-.88-5.69-.19-1.2-2.2-1.18-2.41,0-.26,1.49-.2,2.9.26,4.34l2.09-1.22c-2.71-2.96-1.94-6.92.31-9.89,2.37-3.13,5.74-5.37,9.61-6.07,4.31-.78,8.88-.62,13.24-.82s8.9-.4,13.35-.6c5.08-.23,10.18-.41,15.24.14,1.6.17,1.58-2.33,0-2.5-5.07-.55-10.16-.37-15.24-.14s-10.06.45-15.08.68c-4.68.21-9.82-.08-14.33,1.36-3.86,1.23-7.37,4.14-9.54,7.54-2.46,3.84-2.49,8.62.67,12.07.83.91,2.47-.04,2.09-1.22-.33-1.01-.45-1.96-.26-3.02H1.86c.29,1.9.59,3.8.88,5.69.25,1.58,2.66.91,2.41-.66h0Z" fill="#0a151d"/>
        </g>
        <g>
          <path d="M12.71,45.3c.45,5.24,2.27,10.37,5.26,14.83.98,1.46,2.18,2.93,3.91,3.55.98.35,2.05.4,3.09.45,1.5.07,2.99.14,4.49.21.63.03,1.27.06,1.86-.13.82-.25,1.44-.87,1.96-1.51,2.09-2.55,3.13-5.89,2.55-9.05-.58-3.16-2.85-6.07-6.02-7.34-1.63-.65-3.42-.87-5.18-1.08-.29-.03-.62-.06-.84.12-.42.34-.06.97.34,1.33,1.31,1.19,2.94,2.07,4.7,2.55.35.09.73.17,1.06.04.76-.3.47-1.55-.34-1.7s-1.58.6-1.62,1.36.47,1.48,1.1,1.98c1.14.91,2.65,1.28,4.13,1.52,1.69.27,3.84.18,4.58-1.26.42-.82.18-1.83-.36-2.58s-1.34-1.31-2.13-1.85c-1.46-.98-3.03-1.97-4.83-2.08.47-.16.94-.31,1.41-.47" fill="#0a151d"/>
          <path d="M11.46,45.3c.4,4.23,1.54,8.31,3.46,12.1,1.76,3.47,4.07,7.3,8.26,7.85,2.27.3,4.75.42,7.04.37,1.96-.05,3.27-1.09,4.41-2.6,2.33-3.1,3.35-7.35,2.05-11.08s-4.15-6.25-7.78-7.25c-1.03-.28-2.1-.44-3.16-.57-.82-.11-1.83-.36-2.58.15-1.8,1.22-.21,3.13.97,4.02,1.41,1.07,3.58,2.36,5.42,2.3,1.65-.06,2.54-1.81,1.7-3.22-.91-1.51-3.02-1.29-3.99.02-1.19,1.59-.26,3.52,1.15,4.59,2.45,1.86,9.01,3.29,10.55-.48.86-2.12-.59-4.04-2.22-5.25-1.89-1.41-3.91-2.61-6.3-2.85l.33,2.46c.47-.16.94-.31,1.41-.47,1.52-.5.87-2.92-.66-2.41-.47.16-.94.31-1.41.47-1.39.46-1.06,2.32.33,2.46,1.23.12,2.31.71,3.34,1.35.91.57,2.78,1.52,2.91,2.74.24,2.17-4.16,1.11-5.19.78-.61-.2-1.21-.45-1.7-.87-.27-.23-.42-.43-.54-.75-.18-.46.1-.9-.3-1.19-.47-.33-1.29-.45-1.83-.73-.65-.34-1.19-.79-1.81-1.17l-.15-.13c-.29-.34-.57-.17-.83.52,0,.01.9.1.74.08.62.07,1.25.16,1.87.28,1.26.24,2.49.59,3.59,1.25,4.17,2.5,5.25,7.78,3.04,11.97-.51.97-1.23,2.25-2.22,2.81-1.06.6-2.73.22-3.88.16-2.61-.12-5.27.12-7.21-1.94s-3.28-4.82-4.29-7.38-1.74-5.51-2.01-8.38c-.15-1.59-2.65-1.6-2.5,0h0Z" fill="#0a151d"/>
        </g>
      </g>
      <g>
        <path d="M7.1,41.39c4.57-3.82,11.28-5.64,17.55-4.75-2.48-.17-5-.33-7.42.13,2.33-.41,4.72-.57,7.1-.47,1.41.06,2.82.21,4.23.36,3.95.42,7.91.85,11.86,1.27" fill="#0a151d"/>
        <path d="M7.98,42.28c4.61-3.77,10.83-5.15,16.67-4.39v-2.5c-2.6-.17-5.17-.27-7.75.18-1.58.28-.91,2.68.66,2.41,3.76-.63,7.47-.44,11.24-.03s7.74.83,11.61,1.25c1.6.17,1.59-2.33,0-2.5-4.03-.43-8.06-.87-12.09-1.3s-7.59-.47-11.42.17l.66,2.41c2.34-.41,4.73-.24,7.09-.09,1.64.11,1.55-2.3,0-2.5-6.53-.86-13.33.94-18.44,5.12-1.25,1.02.53,2.78,1.77,1.77h0Z" fill="#0a151d"/>
      </g>
    </g>
    <g>
      <rect x="4.69" y="37.88" width="284.14" height="37.9" rx="15.08" ry="15.08" fill="#0a151d" stroke="#0a151d" stroke-miterlimit="10" stroke-width=".5"/>
      <rect x="103.95" y=".35" width="112.51" height="37.52" fill="#0a151d" stroke="#0a151d" stroke-miterlimit="10" stroke-width=".5"/>
      <polygon points="132.65 28.83 103.95 .35 63.3 40.69 92 69.16 132.65 28.83" fill="#0a151d" stroke="#0a151d" stroke-miterlimit="10" stroke-width=".5"/>
      <polygon points="222.3 69.94 253.4 44.06 216.46 .35 185.35 26.23 222.3 69.94" fill="#0a151d" stroke="#0a151d" stroke-miterlimit="10" stroke-width=".5"/>
    </g>
    <rect x="108.76" y="5.45" width="43.3" height="26.4" fill="#e6f5f9" stroke="#e6f5f9" stroke-miterlimit="10" stroke-width=".5"/>
    <rect x="159.98" y="5.45" width="44.5" height="26.4" fill="#e6f5f9" stroke="#e6f5f9" stroke-miterlimit="10" stroke-width=".5"/>
    <rect x="82.49" y="16.46" width="41.14" height="24.94" transform="translate(9.73 81.35) rotate(-45)" fill="#e6f5f9" stroke="#e6f5f9" stroke-miterlimit="10" stroke-width=".5"/>
    <rect x="188.17" y="15.48" width="37.81" height="24.94" transform="translate(95.42 -148.67) rotate(50.01)" fill="#e6f5f9" stroke="#e6f5f9" stroke-miterlimit="10" stroke-width=".5"/>
    <circle cx="56.44" cy="75.78" r="13.94" fill="none" stroke="#231f20" stroke-miterlimit="10" stroke-width="10"/>
    <circle cx="55.96" cy="76.08" r="8.51" fill="#a7a9ac" stroke="#a7a9ac" stroke-miterlimit="10" stroke-width="5"/>
    <g>
      <g>
        <path d="M144.85,39.81h-.45c1.51,0,3.02,0,4.53,0,.09,0,.18,0,.25-.06.18-.16-.07-.43-.29-.52-1.55-.61-3.39-.42-4.79.48-.1.06-.2.14-.24.25-.06.18.07.38.24.46s.37.07.56.05c1.46-.12,2.91-.33,4.35-.63-.95-.06-1.91-.06-2.86,0-.17.01-.35.03-.49.13s-.22.31-.13.45c.09.13.28.15.44.15,1.02,0,2.04,0,3.07.01.14,0,.3,0,.4-.1.22-.19.03-.58-.24-.68s-.57,0-.86.03-.64-.03-.76-.3" fill="#ffcc57"/>
        <path d="M144.85,39.19h-.45v1.25h4.2c.36,0,.74.03,1.02-.24s.31-.72.1-1.04c-.33-.52-1.05-.68-1.62-.79-1.2-.22-2.42-.09-3.54.4-.51.22-1.2.52-1.34,1.11-.19.81.64,1.27,1.32,1.24,1.54-.08,3.1-.35,4.61-.66.3-.06.49-.4.45-.69-.05-.32-.3-.52-.61-.54-.95-.06-1.91-.07-2.86,0-.47.04-.93.16-1.17.61s-.06,1.02.4,1.24c.39.19.89.12,1.31.12.47,0,.95,0,1.42,0,.44,0,.97.08,1.39-.06.49-.16.75-.65.63-1.14s-.61-.83-1.12-.86c-.23-.02-.45.04-.68.06-.05,0-.1,0-.15,0,0,0-.11,0-.06,0-.11,0-.05-.04-.02,0-.4-.7-1.48-.07-1.08.63.21.37.59.56,1,.6.16.02.32,0,.48-.02.04,0,.39-.01.43-.05.01-.02-.03-.04-.02-.05,0-.02,0-.03,0-.05,0-.13.06-.24.21-.33-.09-.06-.41,0-.53,0-.42,0-.84,0-1.26,0s-.84,0-1.26,0h-.11c-.08,0-.09,0-.05,0,.08-.05.26.59.05.55.03,0,.1-.02.13-.03.1-.01.21-.01.32-.02.86-.05,1.72-.04,2.58.01l-.17-1.23c-.89.19-1.79.34-2.69.46-.46.06-.92.11-1.39.14-.03,0-.39.01-.39.02,0,0,.03,0,.06.06.24.49-.21.42-.01.34.09-.04.18-.11.27-.16.63-.35,1.35-.55,2.07-.58.36-.02.72,0,1.08.07.19.04.38.08.56.14.08.02.17.07.25.09.03,0,.05.02.07.04-.1.06-.13-.04-.08-.31l.16-.28c.17-.06.21-.08.1-.07h-.17c-.07,0-.15,0-.22,0h-.61c-.39,0-.77,0-1.16,0h-2.32c-.8,0-.81,1.25,0,1.25h.45c.8,0,.81-1.25,0-1.25h0Z" fill="#ffcc57"/>
      </g>
      <g>
        <path d="M144.55,39.43c-.24.16-.58.22-.66.5-.06.2.08.42.27.52s.41.11.62.12c1.04.04,2.08.05,3.12.04.39,0,.78,0,1.16-.07.28-.05.6-.18.63-.46.03-.25-.2-.44-.41-.56-.74-.42-1.61-.55-2.46-.5s-1.67.28-2.48.54c-.23.07-.51.24-.45.47.02.09.09.15.16.21.57.43,1.37.35,2.08.25" fill="#ffcc57"/>
        <path d="M144.23,38.89c-.23.14-.49.23-.68.42-.28.29-.37.7-.22,1.08.3.78,1.15.79,1.85.81.79.02,1.58.03,2.37.03.68,0,1.47.06,2.11-.24.69-.32.88-1.17.34-1.72-.46-.47-1.2-.7-1.83-.81-.73-.12-1.44-.1-2.16.02-.36.06-.72.14-1.08.24s-.71.18-1.03.34c-.37.19-.64.53-.62.96s.4.75.78.92c.72.33,1.5.24,2.26.13.33-.05.52-.47.44-.77-.1-.36-.43-.49-.77-.44-.3.04-.62.08-.92.06-.17-.01-.53-.05-.61-.22l.09.32c-.02.08-.07.15-.13.2.04-.03.09-.05.13-.08.05-.02.22-.06.31-.09.25-.08.5-.15.75-.21.48-.12.95-.2,1.45-.22s.93.04,1.38.18c.19.06.39.14.57.25,0,0,.17.09.14.11-.06-.11-.05-.21.03-.3.03-.02.02-.02-.01,0-.05-.01-.37.08-.48.09-.25.02-.49.02-.74.02-.56,0-1.12,0-1.67,0s-1.1.03-1.63-.05c-.04,0-.09-.04-.12-.02.16-.09-.04.33-.03.29,0,.01.11-.06.17-.09.09-.04.17-.09.26-.14.68-.42.06-1.5-.63-1.08h0Z" fill="#ffcc57"/>
      </g>
    </g>
    <g>
      <path d="M8.66,42.12c-.81,1.47-2.26,2.45-3.49,3.6s-2.32,2.73-2.04,4.38c.02.15.07.3.17.41.15.16.4.17.62.17,1,.02,2,.03,3,.05.91.01,1.95-.03,2.52-.74.28-.35.38-.8.48-1.23.14-.63.29-1.26.43-1.89.22-.97.45-1.99.21-2.96s-1.09-1.87-2.09-1.8c-.8.05-1.43.68-1.97,1.26-.96,1.02-1.93,2.05-2.89,3.07-.56.59-1.13,1.21-1.39,1.99s-.09,1.75.59,2.19c.46.3,1.04.31,1.58.3,1.23,0,2.46-.01,3.69-.02,1.24,0,2.79-.22,3.2-1.39.11-.32.11-.68.11-1.02,0-1.38-.01-2.76-.02-4.14,0-.59,0-1.2-.22-1.76s-.67-1.06-1.26-1.14c-.49-.07-.98.16-1.42.38-2.27,1.17-4.56,2.66-5.66,4.97-.12.25-.22.52-.23.79-.02.79.74,1.4,1.5,1.63,2.21.68,4.84-1.01,5.13-3.31" fill="#e95c46"/>
      <path d="M7.04,41.17c-.09.15-.18.31-.28.45-.04.06-.09.12-.13.19.01-.02.2-.24.06-.08-.24.26-.47.53-.72.78-.52.5-1.07.96-1.61,1.43-1.22,1.07-2.25,2.31-2.83,3.84-.33.88-.38,1.83-.22,2.75.23,1.33,1.35,1.99,2.61,2.04.84.03,1.69.03,2.53.04s1.63.02,2.42-.17c.93-.23,1.76-.8,2.27-1.61.44-.7.58-1.54.76-2.33.39-1.7.99-3.6.39-5.32s-2.11-3.09-3.96-2.91-3.03,1.65-4.23,2.93c-.57.6-1.13,1.2-1.7,1.8s-1.16,1.22-1.56,1.95c-.86,1.56-.88,3.68.53,4.94s3.57.92,5.31.91c1.54,0,3.1.05,4.52-.63.67-.32,1.28-.87,1.61-1.53.46-.91.44-1.89.43-2.88,0-.88,0-1.76-.01-2.63s.02-1.76-.18-2.62c-.46-2.08-2.58-3.48-4.64-2.67-1.35.53-2.66,1.32-3.82,2.19-1.25.94-2.39,2.03-3.17,3.41-.52.92-.86,1.89-.64,2.95.2.94.92,1.73,1.72,2.22,2.66,1.63,6.26.23,7.8-2.27.35-.56.61-1.22.7-1.88.08-.52.09-.97-.19-1.44-.23-.39-.67-.76-1.12-.86-.89-.2-2.16.27-2.31,1.31-.03.18-.06.36-.11.54,0,.03-.09.29-.1.29-.03,0,.22-.43.04-.11-.09.15-.21.31-.28.47-.1.21.25-.24.07-.09-.09.07-.17.19-.25.27-.07.07-.15.14-.23.21-.21.2.09-.06.09-.06,0,.07-.35.23-.42.27-.08.05-.2.08-.27.14-.2.15.43-.14.05-.02-.2.06-.39.11-.59.17-.26.07.04-.1.14,0-.01-.01-.21.02-.24.02-.08,0-.16,0-.24,0h-.12c-.16-.02-.16-.02,0,0l.13.02c-.08-.01-.16-.03-.24-.05-.08-.02-.16-.04-.24-.06-.36-.09.08,0,.07.04,0,0-.36-.2-.35-.2.03-.03.28.24.07.04-.31-.3.15.25.02.02-.09-.14.08.35.08.41,0-.1.04-.27-.02.04.01-.08.13-.32,0-.02.04-.09.09-.18.13-.26.11-.22.24-.42.37-.63.07-.1.14-.2.21-.3.16-.24-.29.33.02-.02.13-.14.25-.29.39-.43.32-.34.68-.64,1.03-.94.23-.19-.36.25.03-.02.08-.06.16-.12.24-.17.18-.13.37-.25.56-.38.4-.26.81-.5,1.22-.73.17-.1.35-.19.52-.28.11-.06.22-.12.34-.17.09-.05.42-.15.09-.05.05-.02.3-.07.32-.09-.06.07-.34.02-.37,0-.37-.11-.18-.11-.08-.03-.38-.31-.01-.03.03.07-.16-.37-.1-.12-.06-.03-.18-.42-.03-.09,0,.03.03.1.09.46.04.05.01.11.02.22.03.32.03.56.02,1.12.02,1.68,0,1.15,0,2.3.01,3.45,0,.12-.09.29,0,.01-.05.14-.16.33.05-.07-.15.28.06-.09.11-.1.04,0-.4.21-.05.08s-.28.08-.3.15c0-.05.44-.14.11-.06-.12.03-.24.07-.36.1-.08.02-.16.03-.25.05-.42.09.33-.02.06,0-.19,0-.38.03-.56.03-.51.01-1.02,0-1.53.01-.55,0-1.11,0-1.66,0-.27,0-.54,0-.81,0-.1,0-.2,0-.3,0-.08,0-.15,0-.23-.01.23.04.27.04.13.02-.11-.03-.41-.14-.04.03-.1-.04-.3-.22.05.06-.23-.18.02.03.06.09-.23-.31.07.11.03.11.04,0-.19-.47-.05-.13.1.26.02-.05,0-.14-.02-.32.04.14-.02.11-.03-.02.11-.38.12-.39-.14.37.09-.09.16-.22.23-.41-.16.17.03-.05.07-.08.13-.16.2-.23.35-.4.73-.79,1.1-1.18.75-.8,1.51-1.61,2.26-2.4.16-.17.33-.35.51-.51.05-.05.16-.17.22-.19-.25.08-.18.12-.03.05.04-.02.18-.13.24-.13l-.19.09c.17-.04.18-.05.02-.02h-.11c.21.02.17,0-.12-.03,0,0,.47.13.14.02-.31-.1.11.03.11.08l-.18-.14c.07.06.13.12.19.18.21.19-.09.02-.05-.07,0,0,.2.35.2.35-.05-.01-.12-.42-.05-.08.02.07.08.52.05.14.02.29.02.58,0,.87-.03.38-.02.11,0,.03-.03.18-.06.35-.1.52-.06.29-.13.58-.19.86-.13.59-.26,1.18-.41,1.76-.03.12-.07.24-.1.36-.1.36.17-.24-.06.09.04-.06.25-.27.02-.07l.17-.14c-.18.1-.15.09.1-.01-.04.04-.21.07-.25.08-.07.02-.13.03-.2.05-.14.03-.09.02.16-.01-.12-.07-.55.03-.7.03-.59,0-1.18-.02-1.78-.03-.34,0-.69-.01-1.03-.02-.13,0-.25,0-.38,0-.08,0-.15,0-.23,0,.57.24.73.27.46.09l.67.67c.08.11.06.27.02.04.02.16.02.27.02.05,0-.1,0-.2,0-.3.01-.32-.02.05,0,.06-.04-.02.14-.52.16-.57.07-.2.06-.1-.02.03.05-.09.09-.18.14-.27.1-.18.21-.36.32-.53.06-.09.12-.17.18-.25-.1.14-.12.15,0,.01.29-.33.59-.64.92-.94,1.31-1.2,2.72-2.26,3.61-3.83.49-.85.23-2.09-.67-2.57s-2.05-.24-2.57.67h0Z" fill="#fff799"/>
    </g>
    <g>
      <g>
        <path d="M220.79,39.71h-.45c1.51,0,3.02,0,4.53,0,.09,0,.18,0,.25-.06.18-.16-.07-.43-.29-.52-1.55-.61-3.39-.42-4.79.48-.1.06-.2.14-.24.25-.06.18.07.38.24.46s.37.07.56.05c1.46-.12,2.91-.33,4.35-.63-.95-.06-1.91-.06-2.86,0-.17.01-.35.03-.49.13s-.22.31-.13.45c.09.13.28.15.44.15,1.02,0,2.04,0,3.07.01.14,0,.3,0,.4-.1.22-.19.03-.58-.24-.68s-.57,0-.86.03-.64-.03-.76-.3" fill="#ffcc57"/>
        <path d="M220.79,39.08h-.45v1.25h4.2c.36,0,.74.03,1.02-.24s.31-.72.1-1.04c-.33-.52-1.05-.68-1.62-.79-1.2-.22-2.42-.09-3.54.4-.51.22-1.2.52-1.34,1.11-.19.81.64,1.27,1.32,1.24,1.54-.08,3.1-.35,4.61-.66.3-.06.49-.4.45-.69-.05-.32-.3-.52-.61-.54-.95-.06-1.91-.07-2.86,0-.47.04-.93.16-1.17.61s-.06,1.02.4,1.24c.39.19.89.12,1.31.12.47,0,.95,0,1.42,0,.44,0,.97.08,1.39-.06.49-.16.75-.65.63-1.14s-.61-.83-1.12-.86c-.23-.02-.45.04-.68.06-.05,0-.1,0-.15,0,0,0-.11,0-.06,0-.11,0-.05-.04-.02,0-.4-.7-1.48-.07-1.08.63.21.37.59.56,1,.6.16.02.32,0,.48-.02.04,0,.39-.01.43-.05.01-.02-.03-.04-.02-.05,0-.02,0-.03,0-.05,0-.13.06-.24.21-.33-.09-.06-.41,0-.53,0-.42,0-.84,0-1.26,0s-.84,0-1.26,0h-.11c-.08,0-.09,0-.05,0,.08-.05.26.59.05.55.03,0,.1-.02.13-.03.1-.01.21-.01.32-.02.86-.05,1.72-.04,2.58.01l-.17-1.23c-.89.19-1.79.34-2.69.46-.46.06-.92.11-1.39.14-.03,0-.39.01-.39.02,0,0,.03,0,.06.06.24.49-.21.42-.01.34.09-.04.18-.11.27-.16.63-.35,1.35-.55,2.07-.58.36-.02.72,0,1.08.07.19.04.38.08.56.14.08.02.17.07.25.09.03,0,.05.02.07.04-.1.06-.13-.04-.08-.31l.16-.28c.17-.06.21-.08.1-.07h-.17c-.07,0-.15,0-.22,0h-.61c-.39,0-.77,0-1.16,0h-2.32c-.8,0-.81,1.25,0,1.25h.45c.8,0,.81-1.25,0-1.25h0Z" fill="#ffcc57"/>
      </g>
      <g>
        <path d="M220.49,39.33c-.24.16-.58.22-.66.5-.06.2.08.42.27.52s.41.11.62.12c1.04.04,2.08.05,3.12.04.39,0,.78,0,1.16-.07.28-.05.6-.18.63-.46.03-.25-.2-.44-.41-.56-.74-.42-1.61-.55-2.46-.5s-1.67.28-2.48.54c-.23.07-.51.24-.45.47.02.09.09.15.16.21.57.43,1.37.35,2.08.25" fill="#ffcc57"/>
        <path d="M220.17,38.79c-.23.14-.49.23-.68.42-.28.29-.37.7-.22,1.08.3.78,1.15.79,1.85.81.79.02,1.58.03,2.37.03.68,0,1.47.06,2.11-.24.69-.32.88-1.17.34-1.72-.46-.47-1.2-.7-1.83-.81-.73-.12-1.44-.1-2.16.02-.36.06-.72.14-1.08.24s-.71.18-1.03.34c-.37.19-.64.53-.62.96s.4.75.78.92c.72.33,1.5.24,2.26.13.33-.05.52-.47.44-.77-.1-.36-.43-.49-.77-.44-.3.04-.62.08-.92.06-.17-.01-.53-.05-.61-.22l.09.32c-.02.08-.07.15-.13.2.04-.03.09-.05.13-.08.05-.02.22-.06.31-.09.25-.08.5-.15.75-.21.48-.12.95-.2,1.45-.22s.93.04,1.38.18c.19.06.39.14.57.25,0,0,.17.09.14.11-.06-.11-.05-.21.03-.3.03-.02.02-.02-.01,0-.05-.01-.37.08-.48.09-.25.02-.49.02-.74.02-.56,0-1.12,0-1.67,0s-1.1.03-1.63-.05c-.04,0-.09-.04-.12-.02.16-.09-.04.33-.03.29,0,.01.11-.06.17-.09.09-.04.17-.09.26-.14.68-.42.06-1.5-.63-1.08h0Z" fill="#ffcc57"/>
      </g>
    </g>
    <line x1="233.77" y1="33.16" x2="261.7" y2="35.14" fill="#0a151d" stroke="#0a151d" stroke-miterlimit="10" stroke-width="4"/>
    <g>
      <path d="M250.06,34.44c7.03-.7,14.31-.26,21.05,1.29,2.6.6,5.15,1.36,7.37,2.46,7.24,3.56,10.05,10.18,9.11,16.2-.94,6.02-5.04,11.58-9.35,16.89-.78.96-1.61,1.95-2.91,2.6-1.86.94-4.34,1.03-6.66,1.09-11.02.27-22.03.54-33.05.82" fill="#0a151d"/>
      <path d="M250.06,35.69c7.6-.73,15.39-.26,22.77,1.75,5.96,1.63,11.65,5.04,13.28,11.39s-1.81,12.26-5.33,17.14c-1,1.39-2.05,2.73-3.13,4.06-1.17,1.44-2.29,2.69-4.14,3.19-1.57.42-3.22.44-4.83.49-2.14.06-4.27.11-6.41.16-8.88.22-17.76.44-26.64.66-1.61.04-1.61,2.54,0,2.5,8.71-.22,17.43-.43,26.14-.65,2.14-.05,4.27-.11,6.41-.16,1.93-.05,3.9-.07,5.79-.54,3.6-.89,5.63-4.03,7.76-6.82,4.11-5.39,8.12-11.92,7.12-18.99-.91-6.41-5.63-11.16-11.45-13.54-4.17-1.71-8.72-2.53-13.18-3.04-4.7-.54-9.45-.56-14.16-.11-1.59.15-1.6,2.65,0,2.5h0Z" fill="#0a151d"/>
    </g>
    <g>
      <path d="M259.48,44.89l10.8,1.16c1.67.18,3.34.36,4.98.74.68.16,1.37.36,1.89.83.45.41.72.97.98,1.52,1.33,2.8,2.67,5.67,2.97,8.75.32,3.21-.56,6.5-2.31,9.21-.82,1.27-1.88,2.45-3.26,3.05-1.01.44-2.14.55-3.24.65-3.52.32-7.04.64-10.56.96-.26.02-.53.04-.75-.08-.4-.22-.45-.77-.45-1.22-.01-4.79-.03-9.57-.04-14.36,0-.41,0-.84.19-1.21.56-1.07,2.18-.8,3.22-.19,1.89,1.12,3.37,2.91,4.12,4.98.74,2.05.81,4.4,2.15,6.12,1.21-2.63.22-5.71-.91-8.37-1.07-2.5-2.26-4.95-3.57-7.33" fill="#0a151d"/>
      <path d="M259.48,46.14l9.08.97c1.37.15,2.75.27,4.11.47,1.17.17,3.04.23,3.86,1.22.7.85,1.1,2.18,1.54,3.18.58,1.32,1.1,2.67,1.44,4.07.65,2.64.47,5.36-.51,7.9-.89,2.3-2.43,4.79-4.99,5.36-2.71.61-5.68.59-8.45.84-.64.06-1.28.12-1.92.17-.4.04-.8.07-1.2.11-.17.02-1.05-.07-.67.29-.22-.2-.01-1.42-.01-1.77,0-.83,0-1.65,0-2.48,0-3.05-.02-6.11-.03-9.16,0-.55-.28-1.77.37-1.92.46-.1,1.14.35,1.49.57,1.12.73,2.05,1.76,2.7,2.92,1.33,2.37,1.17,5.27,2.79,7.52.67.93,1.86.72,2.28-.3,1.11-2.69.45-5.62-.58-8.23-1.14-2.9-2.54-5.71-4.03-8.43-.77-1.41-2.93-.15-2.16,1.26,1.32,2.41,2.57,4.88,3.62,7.43.96,2.33,1.76,4.86.74,7.31l2.28-.3c-.94-1.3-1.2-2.81-1.58-4.33s-.93-2.91-1.84-4.17c-1.41-1.96-4.23-4.55-6.88-3.55-1.3.49-1.66,1.69-1.71,2.98-.07,1.97.01,3.97.02,5.94s.01,3.96.02,5.94c0,1.32-.36,3.35.63,4.42s2.95.51,4.24.4c2.08-.19,4.16-.38,6.24-.57,3.17-.29,6.19-.44,8.4-3.02,2.1-2.43,3.31-5.61,3.59-8.79.31-3.47-.82-6.76-2.22-9.88-.65-1.45-1.24-3.29-2.64-4.19s-3.33-1.05-4.95-1.26c-4.34-.57-8.72-.95-13.07-1.42-1.6-.17-1.59,2.33,0,2.5h0Z" fill="#0a151d"/>
    </g>
    <rect x="81.03" y="34.75" width="37.97" height="16.17" fill="#0a151d" stroke="#0a151d" stroke-miterlimit="10" stroke-width=".5"/>
    <rect x="195.8" y="34.61" width="37.97" height="16.17" fill="#0a151d" stroke="#0a151d" stroke-miterlimit="10" stroke-width=".5"/>
    <line x1="26.55" y1="36.21" x2="74.27" y2="33.73" fill="#0a151d" stroke="#0a151d" stroke-miterlimit="10" stroke-width="3"/>
    <g>
      <path d="M47.59,38.53c7.02.23,14.04.12,21.05-.32" fill="#0a151d"/>
      <path d="M47.59,39.78c7.02.22,14.04.11,21.05-.32,1.6-.1,1.61-2.6,0-2.5-7.01.44-14.03.54-21.05.32-1.61-.05-1.61,2.45,0,2.5h0Z" fill="#0a151d"/>
    </g>
    <g>
      <path d="M246.68,37.39c4.15.03,8.3.59,12.31,1.64" fill="#0a151d"/>
      <path d="M246.68,38.64c4.05.04,8.06.58,11.98,1.6,1.56.41,2.22-2,.66-2.41-4.12-1.08-8.38-1.64-12.64-1.69-1.61-.02-1.61,2.48,0,2.5h0Z" fill="#0a151d"/>
    </g>
    <line x1="77.95" y1="33.13" x2="233.77" y2="33.16" fill="#0a151d" stroke="#0a151d" stroke-miterlimit="10" stroke-width="2"/>
    <path d="M43.92,37.69c8.59-.05,17.18-.02,25.78.09,1.65.02,1.56-2.32,0-2.5-2.41-.28-4.85-.32-7.28-.17-1.6.1-1.61,2.6,0,2.5,2.43-.15,4.86-.11,7.28.17v-2.5c-8.59-.11-17.18-.14-25.78-.09-1.61,0-1.61,2.51,0,2.5h0Z" fill="#0a151d"/>
    <path d="M79.09,36.24c12.62-.12,25.29-.5,37.88.57l-.88-2.13c-4.8,6.14-9.6,12.27-14.41,18.41-1.18,1.5-2.35,3-3.53,4.5-.56.72-1.12,1.44-1.69,2.15-.23.29-.59.61-.77.94-.38.2-.38.26,0,.19l.02-.4c.35-.78.38-1.62.83-2.41s.99-1.39,1.61-1.98c1.29-1.22,2.86-2.11,4.38-3.01.63-.37.9-1.45.25-1.96-1.2-.96-2.65-1.99-4.27-1.47-1.39.44-2.4,1.96-1.83,3.38l2.09-1.22c-1.13-1.41-2.43-2.6-3.9-3.66-.87-.63-2.19.42-1.84,1.41.54,1.5,1.2,2.94,2,4.32.69,1.18,2.79.4,2.28-.96-.29-.79-.58-1.57-.88-2.36-.56-1.49-2.97-.85-2.41.66.29.79.58,1.57.88,2.36l2.28-.96c-.7-1.19-1.29-2.42-1.75-3.72l-1.84,1.41c1.29.93,2.4,2.03,3.39,3.27.76.95,2.54-.08,2.09-1.22-.37-.93,1.8.43,1.92.52l.25-1.96c-3.45,2.03-7.28,4.54-7.97,8.82-.26,1.61.08,3.66,2.15,3.64,1.94-.02,3.12-2.31,4.15-3.63,6.08-7.77,12.16-15.54,18.24-23.3.68-.87.26-2.04-.88-2.13-12.59-1.07-25.26-.69-37.88-.57-1.61.02-1.61,2.52,0,2.5h0Z" fill="#0a151d"/>
    <path d="M283.01,44.36c-1.31.16-2.49.63-3.43,1.58-.87.89-1.43,2.09-1.45,3.34-.02,1.41.66,2.65,1.51,3.72.75.94,1.65,1.89,2.65,2.55,1.24.82,3.51,1.18,4.62-.04.56-.61.63-1.44.68-2.22.05-.66-.01-1.3-.11-1.95-.17-1.14-.57-2.25-1.15-3.24-.64-1.09-1.73-2.71-3.14-2.73-1.05-.02-1.85.77-2.08,1.74-.17.72-.08,1.54.02,2.27.2,1.57.67,3.03,1.43,4.42.7,1.29,2.87,1.05,3.2-.42.38-1.69.39-3.43-.02-5.12-.39-1.6-1.19-3.36-3-3.68s-3.45.49-4.35,2.04c-.81,1.4-.91,3.11-.6,4.66.59,3.03,3.2,5.37,6.15,6.04,1.57.36,4.08.63,4.94-1.11.36-.72.42-1.61.44-2.4.02-.7-.07-1.41-.2-2.11-.56-3.01-2.59-5.67-5.2-7.2-.79-.46-1.95-.21-2.39.63s-.22,1.9.63,2.39c.21.12.42.25.62.39,0,0,.39.27.18.12s.16.13.16.13c.37.31.71.64,1.02,1.01.09.11.18.22.27.33-.04-.05-.2-.28-.02-.01.13.19.27.39.39.59s.24.4.34.61c.04.08.08.17.12.25.07.15.15.38.04.09.16.44.31.87.4,1.32.02.1.12.82.07.35.02.25.05.5.05.75,0,.21,0,.41-.01.62,0,.14-.02.27-.04.41,0-.06.07-.38,0-.06-.05.28-.2.45.19,0,.03-.04.37-.52.56-.39-.03-.02-.26.02-.32.02-.19,0-.37,0-.56,0-.13,0-.26-.02-.4-.03.33.02.07.01,0,0-.26-.05-.52-.1-.77-.18s-.5-.15-.74-.26c.3.13.04.01,0-.01-.16-.09-.32-.17-.48-.26-.2-.12-.39-.24-.58-.38.31.23-.08-.08-.12-.11-.08-.07-.15-.14-.22-.21-.09-.09-.18-.19-.26-.28-.06-.06-.26-.34-.06-.07-.16-.23-.31-.46-.44-.71-.06-.11-.11-.23-.17-.34.14.3.03.07,0,0-.08-.24-.16-.47-.21-.72,0,0-.09-.48-.05-.21s-.02-.21-.02-.21c-.02-.27,0-.54.01-.82s-.09.4,0-.05c.02-.09.04-.19.06-.28.04-.14.08-.28.13-.42-.02.07-.16.29,0,.01.06-.11.13-.21.19-.32l.04-.06c-.12.16-.12.17.01.02l.11-.1c-.14.1-.16.11-.06.05.4-.19-.22,0,.12-.07.03,0,.26-.08.26-.06-.24.03-.26.04-.06.02h.13c-.07,0-.14-.02-.2-.03.09.02.17.04.25.07l-.18-.08c.16.1.15.08-.04-.05.23.27.03.04,0,0,.05.08.1.17.14.26-.07-.18-.08-.2-.03-.07.11.31.22.61.3.93.04.14.07.29.1.43.01.06.12.64.07.32.04.29.06.59.07.88,0,.35,0,.7-.04,1.06s-.01.14,0,.06c-.03.23-.08.46-.14.69l3.2-.42c-.11-.2-.21-.41-.31-.61-.08-.19-.09-.21-.03-.05-.04-.11-.09-.21-.12-.32-.16-.43-.29-.86-.39-1.3-.05-.22-.09-.44-.13-.67.06.35-.03-.31-.03-.38-.02-.22-.02-.45-.02-.68,0-.11,0-.23,0-.34,0,.39-.2.71-.57.95l-.88.24c-.81-.46-1.04-.54-.71-.24l.11.11c.11.11.21.23.31.34.33.37-.18-.27.11.13.09.12.17.25.26.38.16.26.31.52.44.79.03.05.18.49.06.13.05.14.1.28.15.42.09.28.17.57.22.87.02.09.07.54.03.12.01.15.03.3.04.44.01.27.01.54,0,.82,0,.05-.06.52-.02.29s-.07.26-.09.31l.45-.77.73-.28c-.09,0-.18,0-.27,0-.05,0-.45-.01-.16.02-.12-.01-.23-.05-.35-.08l-.17-.06c.14.06.16.06.05,0-.1-.08-.24-.14-.34-.22.15.11.06.05-.02-.04-.18-.17-.35-.33-.53-.51-.37-.36-.71-.74-1.06-1.12-.21-.23.03.07-.07-.09-.06-.09-.12-.17-.18-.26-.07-.11-.14-.22-.2-.33-.02-.04-.2-.41-.11-.2.08.18-.03-.11-.04-.15-.04-.12-.06-.24-.09-.37.12.45-.02-.43,0-.12.02.25.02-.07.04-.15s.06-.16.08-.25c-.07.33-.06.13,0,0,.05-.1.11-.19.17-.28.1-.17.06-.06-.03.03.08-.08.15-.17.23-.25s.17-.15.25-.23c-.11.09-.19.13-.02.03.1-.06.2-.12.3-.17.11-.06.36-.1.03-.02.09-.02.18-.06.27-.08.08-.02.53-.09.09-.04.91-.11,1.8-.73,1.75-1.75-.04-.86-.78-1.87-1.75-1.75h0Z" fill="#e95c46"/>
    <g>
      <g>
        <path d="M216.49,39.72h-.45c1.51,0,3.02,0,4.53,0,.09,0,.18,0,.25-.06.18-.16-.07-.43-.29-.52-1.55-.61-3.39-.42-4.79.48-.1.06-.2.14-.24.25-.06.18.07.38.24.46s.37.07.56.05c1.46-.12,2.91-.33,4.35-.63-.95-.06-1.91-.06-2.86,0-.17.01-.35.03-.49.13s-.22.31-.13.45c.09.13.28.15.44.15,1.02,0,2.04,0,3.07.01.14,0,.3,0,.4-.1.22-.19.03-.58-.24-.68s-.57,0-.86.03-.64-.03-.76-.3" fill="#ffcc57"/>
        <path d="M216.49,39.1h-.45v1.25h4.2c.36,0,.74.03,1.02-.24s.31-.72.1-1.04c-.33-.52-1.05-.68-1.62-.79-1.2-.22-2.42-.09-3.54.4-.51.22-1.2.52-1.34,1.11-.19.81.64,1.27,1.32,1.24,1.54-.08,3.1-.35,4.61-.66.3-.06.49-.4.45-.69-.05-.32-.3-.52-.61-.54-.95-.06-1.91-.07-2.86,0-.47.04-.93.16-1.17.61s-.06,1.02.4,1.24c.39.19.89.12,1.31.12.47,0,.95,0,1.42,0,.44,0,.97.08,1.39-.06.49-.16.75-.65.63-1.14s-.61-.83-1.12-.86c-.23-.02-.45.04-.68.06-.05,0-.1,0-.15,0,0,0-.11,0-.06,0-.11,0-.05-.04-.02,0-.4-.7-1.48-.07-1.08.63.21.37.59.56,1,.6.16.02.32,0,.48-.02.04,0,.39-.01.43-.05.01-.02-.03-.04-.02-.05,0-.02,0-.03,0-.05,0-.13.06-.24.21-.33-.09-.06-.41,0-.53,0-.42,0-.84,0-1.26,0s-.84,0-1.26,0h-.11c-.08,0-.09,0-.05,0,.08-.05.26.59.05.55.03,0,.1-.02.13-.03.1-.01.21-.01.32-.02.86-.05,1.72-.04,2.58.01l-.17-1.23c-.89.19-1.79.34-2.69.46-.46.06-.92.11-1.39.14-.03,0-.39.01-.39.02,0,0,.03,0,.06.06.24.49-.21.42-.01.34.09-.04.18-.11.27-.16.63-.35,1.35-.55,2.07-.58.36-.02.72,0,1.08.07.19.04.38.08.56.14.08.02.17.07.25.09.03,0,.05.02.07.04-.1.06-.13-.04-.08-.31l.16-.28c.17-.06.21-.08.1-.07h-.17c-.07,0-.15,0-.22,0h-.61c-.39,0-.77,0-1.16,0h-2.32c-.8,0-.81,1.25,0,1.25h.45c.8,0,.81-1.25,0-1.25h0Z" fill="#ffcc57"/>
      </g>
      <g>
        <path d="M216.19,39.34c-.24.16-.58.22-.66.5-.06.2.08.42.27.52s.41.11.62.12c1.04.04,2.08.05,3.12.04.39,0,.78,0,1.16-.07.28-.05.6-.18.63-.46.03-.25-.2-.44-.41-.56-.74-.42-1.61-.55-2.46-.5s-1.67.28-2.48.54c-.23.07-.51.24-.45.47.02.09.09.15.16.21.57.43,1.37.35,2.08.25" fill="#ffcc57"/>
        <path d="M215.88,38.8c-.23.14-.49.23-.68.42-.28.29-.37.7-.22,1.08.3.78,1.15.79,1.85.81.79.02,1.58.03,2.37.03.68,0,1.47.06,2.11-.24.69-.32.88-1.17.34-1.72-.46-.47-1.2-.7-1.83-.81-.73-.12-1.44-.1-2.16.02-.36.06-.72.14-1.08.24s-.71.18-1.03.34c-.37.19-.64.53-.62.96s.4.75.78.92c.72.33,1.5.24,2.26.13.33-.05.52-.47.44-.77-.1-.36-.43-.49-.77-.44-.3.04-.62.08-.92.06-.17-.01-.53-.05-.61-.22l.09.32c-.02.08-.07.15-.13.2.04-.03.09-.05.13-.08.05-.02.22-.06.31-.09.25-.08.5-.15.75-.21.48-.12.95-.2,1.45-.22s.93.04,1.38.18c.19.06.39.14.57.25,0,0,.17.09.14.11-.06-.11-.05-.21.03-.3.03-.02.02-.02-.01,0-.05-.01-.37.08-.48.09-.25.02-.49.02-.74.02-.56,0-1.12,0-1.67,0s-1.1.03-1.63-.05c-.04,0-.09-.04-.12-.02.16-.09-.04.33-.03.29,0,.01.11-.06.17-.09.09-.04.17-.09.26-.14.68-.42.06-1.5-.63-1.08h0Z" fill="#ffcc57"/>
      </g>
    </g>
    <circle cx="223.39" cy="76.08" r="13.94" fill="none" stroke="#231f20" stroke-miterlimit="10" stroke-width="10"/>
    <circle cx="223.39" cy="76.08" r="8.51" fill="#a7a9ac" stroke="#a7a9ac" stroke-miterlimit="10" stroke-width="5"/>
  </g>
</svg>