<?xml version="1.0" encoding="UTF-8"?>
<svg id="Layer_2" data-name="Layer 2" xmlns="http://www.w3.org/2000/svg" viewBox="0 0 233.03 88.63">
  <g id="Layer_1-2" data-name="Layer 1">
    <g>
      <g>
        <path d="M129.4,10.25c8.34.47,16.71,1.08,24.98,2.23,7.65,1.06,15.34,2.78,22.05,6.77,4.11,2.44,8.09,5.11,12.11,7.68l1.44-3.43c-2.73-.46-5.09-1.9-7.64-2.9-2.97-1.17-6.13-1.19-9.26-1.5-5.92-.59-11.2-3.59-16.28-6.48l-1.44,3.43c1.4.56,2.81,1.12,4.21,1.68.95.38,2.05-.41,2.31-1.31.3-1.06-.37-1.93-1.31-2.31-1.4-.56-2.81-1.12-4.21-1.68-2-.8-3.25,2.4-1.44,3.43,5.25,2.98,10.68,5.99,16.75,6.82,3.12.43,6.31.29,9.3,1.39,2.7.99,5.14,2.56,8.02,3.04,2.04.34,3.33-2.23,1.44-3.43-7.03-4.48-13.83-9.44-21.85-12s-16.05-3.31-24.15-4.08c-5.01-.47-10.02-.83-15.04-1.12-2.41-.14-2.4,3.61,0,3.75h0Z" fill="#e5f4f8"/>
        <g>
          <path d="M125.62,10.13c.11,5.15.03,10.3-.23,15.45-.07,1.34,1.2,2.51,2.5,2.5,13.59-.08,27.19-.17,40.78-.25,3.22-.02,3.22-5.02,0-5-13.59.08-27.19.17-40.78.25l2.5,2.5c.26-5.15.33-10.3.23-15.45-.07-3.21-5.07-3.22-5,0h0Z" fill="#e6f5f8"/>
          <path d="M129.87,13.51c13.3.02,25.65,5.81,36.54,13.02l1.93-4.57-9.68-2.45c-3.3-.83-6.59-1.81-9.98-2.19-3.14-.35-6.22.73-9.33.36-1.28-.15-2.56-.59-3.71-1.16-.64-.32-1.25-.67-1.85-1.06-.32-.2-1.14-.68-1.25-.89l.34,1.26v-.28c-.13.42-.24.84-.35,1.26l-.05.09-1.1.64c.82-.32,2.3.29,3.18.64,1.33.54,2.61,1.24,3.89,1.88,2.76,1.37,5.52,2.74,8.28,4.12l1.93-4.57c-3.15-.47-6.3-.93-9.44-1.41-.99-.15-2.11-.23-2.85-.95-.96-.95-1.54-1.99-3.02-2.27-1.26-.24-2.78.34-3.08,1.75-.4,1.91-.81,3.82-1.21,5.73-.3,1.4.69,3.39,2.41,3.16,5.96-.78,11.96-.42,17.94-.03,2.96.19,5.92.38,8.88.42,1.44.02,2.88.01,4.32-.05,1.52-.07,3.21-.05,4.5-.97,1.53-1.09,1.68-3.25,0-4.32-4.95-3.14-10.58-4.91-16.42-5.38-1.35-.11-2.5,1.23-2.5,2.5,0,1.44,1.15,2.39,2.5,2.5,4.96.39,9.7,2.03,13.89,4.69v-4.32c-.78.55-2.48.31-3.41.33-1.36.03-2.72.02-4.08-.02-2.89-.08-5.77-.28-8.65-.46-5.66-.36-11.34-.64-16.98.09l2.41,3.16c.4-1.91.81-3.82,1.21-5.73l-3.08,1.75s-.16-.32.02.01c.11.2.34.42.49.61.42.53.9.98,1.47,1.35,1.17.74,2.53,1.04,3.88,1.25,3.15.49,6.3.94,9.44,1.41,1.23.18,2.45-.2,2.95-1.45.44-1.08.11-2.56-1.02-3.12-3.94-1.96-7.83-4.07-11.85-5.86-1.89-.84-3.99-1.66-6.1-1.54-2.44.14-4.4,2.56-2.95,4.89.97,1.55,3.18,2.69,4.77,3.49,1.94.97,3.95,1.61,6.11,1.83s4.21-.28,6.32-.43,4.35.24,6.5.76c5,1.21,9.98,2.52,14.96,3.78,2.8.71,4.27-3.02,1.93-4.57-11.61-7.69-24.9-13.69-39.06-13.71-3.22,0-3.22,5,0,5h0Z" fill="#e6f5f8"/>
          <path d="M123.92,7.21c.08,6.84.17,13.68.25,20.52,0,.69.57,1.23,1.25,1.25,12.9.38,25.81.4,38.71.07,1.61-.04,1.61-2.54,0-2.5-12.9.33-25.81.31-38.71-.07l1.25,1.25c-.08-6.84-.17-13.68-.25-20.52-.02-1.61-2.52-1.61-2.5,0h0Z" fill="#e6f5f8"/>
          <path d="M125.29,8.48c4.61.72,9.26.64,13.91.78s9.02.75,13.44,1.85c8.67,2.15,16.85,5.83,24.93,9.55,2.22,1.02,4.46,2.02,6.56,3.26,2.23,1.32,4.15,3,6.07,4.72,1.19,1.07,2.97-.69,1.77-1.77-1.62-1.45-3.25-2.9-5.04-4.14-1.89-1.3-3.95-2.31-6.02-3.28-4.05-1.89-8.12-3.75-12.24-5.48-8.33-3.5-17.02-6.36-26.08-7.05-5.54-.42-11.14,0-16.64-.86-1.57-.25-2.25,2.16-.66,2.41h0Z" fill="#e6f5f8"/>
          <path d="M125.32,8.29c13.77-.64,28.13,1.21,39.72,9.22,1.33.92,2.58-1.25,1.26-2.16-11.92-8.24-26.81-10.22-40.98-9.56-1.6.07-1.61,2.57,0,2.5h0Z" fill="#e6f5f8"/>
          <path d="M160.93,29.11l30.15.28c1.61.01,1.61-2.48,0-2.5l-30.15-.28c-1.61-.01-1.61,2.48,0,2.5h0Z" fill="#e6f5f8"/>
          <path d="M159.43,21.17c4.06,1.4,8.23,2.49,12.47,3.22s8.43.74,12.21,2.51l.96-2.28c-4.35-1.75-8.12-4.67-12.42-6.52-4.57-1.97-9.61-2.18-14.23-3.94-1.34-.51-2.18,1.6-.96,2.28,5.98,3.36,12.28,6.13,18.79,8.3,1.36.45,2.18-1.59.96-2.28-6.41-3.66-12.88-7.31-19.84-9.83-3.49-1.26-7.08-2.2-10.75-2.69s-7.33-.38-10.56-2.1l-.96,2.28c8.2,3.22,16.39,6.45,24.59,9.67,3.95,1.56,7.89,3.18,11.95,4.47,3.68,1.17,7.82,1.62,11.06,3.87l.63-2.33c-5.28-.35-10.57-.44-15.86-.26v2.5c4.31-.19,8.61-.37,12.92-.56,1.17-.05,1.8-1.74.63-2.33-3.54-1.8-7.29-3.11-11.19-3.88-1.4-.27-2.15,1.47-.96,2.28,1.69,1.16,3.55,2.06,5.51,2.67.94.29,1.89.5,2.86.65.78.12,1.72.34,2.44-.11,1.61-.99.52-2.79-.53-3.68-1.85-1.57-3.76-3.09-5.63-4.63l-.88,2.13c5.69-.09,9.54,5.15,14.35,7.39l.96-2.28c-5-1.16-10.04-2.33-15.18-2.57s-10.55.56-15.77,1.1c-1.4.14-1.71,1.96-.33,2.46,3.59,1.28,7.38,1.52,11.12.82,1.18-.22,1.2-2.2,0-2.41-7.21-1.27-14.54-1.67-21.78-2.76-3.11-.47-6.81-.79-9.35-2.85-2.28-1.84-3.42-4.65-3.89-7.47-.26-1.58-2.67-.91-2.41.66.49,2.94,1.71,5.83,3.85,7.95,2.49,2.48,5.86,3.24,9.21,3.8,7.86,1.33,15.85,1.69,23.7,3.06v-2.41c-3.3.62-6.63.31-9.79-.82l-.33,2.46c5.07-.52,10.19-1.29,15.3-1.12s10.06,1.35,15,2.5c1.31.31,2.31-1.66.96-2.28-5.33-2.47-9.27-7.83-15.61-7.73-1,.02-1.76,1.41-.88,2.13,1.25,1.03,2.5,2.06,3.76,3.09.56.46,1.13.93,1.69,1.39.13.11.63.69.78.67l.42-.85c-.24-.02-.47-.05-.71-.09-2.73-.41-5.29-1.47-7.56-3.03l-.96,2.28c3.69.72,7.24,1.92,10.59,3.62l.63-2.33c-4.31.19-8.61.37-12.92.56-1.6.07-1.61,2.55,0,2.5,5.29-.17,10.58-.09,15.86.26,1.34.09,1.56-1.68.63-2.33-3.18-2.21-7.11-2.74-10.74-3.84-4.22-1.28-8.3-2.96-12.4-4.57-8.35-3.28-16.7-6.57-25.05-9.85-1.32-.52-2.2,1.63-.96,2.28,3.16,1.69,6.69,1.88,10.19,2.25,3.72.39,7.36,1.28,10.89,2.5,7.07,2.45,13.61,6.18,20.08,9.87l.96-2.28c-6.31-2.1-12.39-4.79-18.19-8.05l-.96,2.28c4.68,1.78,9.83,1.92,14.41,4.03,4.2,1.94,7.94,4.7,12.25,6.43,1.3.53,2.24-1.69.96-2.28-3.89-1.82-8.17-1.99-12.34-2.68-4.4-.73-8.72-1.84-12.93-3.29-1.52-.53-2.18,1.89-.66,2.41h0Z" fill="#e6f5f8"/>
        </g>
        <path d="M139.16,15.37c.2.09.21.09.03.01.08.03.16.07.24.1.19.08.37.16.56.24.32.14.63.27.95.41.71.31,1.42.64,2.11.98,1.36.67,2.67,1.42,3.89,2.31l1.44-3.43c-.79-.3-1.58-.62-2.36-.94-.21-.09-.22-.09-.05-.02-.11-.05-.22-.09-.33-.14-.17-.07-.33-.14-.5-.22-.42-.18-.83-.37-1.24-.56-1.56-.72-3.1-1.49-4.61-2.31-.86-.47-2.08-.24-2.57.67s-.25,2.07.67,2.57c3.22,1.75,6.57,3.27,10,4.56.87.33,1.88-.3,2.21-1.09.39-.91,0-1.78-.77-2.34-2.64-1.92-5.68-3.17-8.67-4.43-.91-.38-2.1.41-2.31,1.31-.25,1.1.34,1.9,1.31,2.31h0Z" fill="#e5f4f8"/>
      </g>
      <g>
        <g>
          <path d="M66.51,28.77c3.31-2.82,6.93-5.26,10.79-7.27,4.23-2.19,8.73-3.88,13.16-5.62,8.8-3.45,17.83-6.01,27.24-7.1,1.58-.18,1.6-2.69,0-2.5-9.81,1.14-19.18,3.75-28.36,7.36-4.48,1.77-9.03,3.48-13.3,5.69-4.05,2.1-7.83,4.7-11.3,7.66-1.23,1.05.55,2.81,1.77,1.77h0Z" fill="#e5f4f8"/>
          <path d="M116.33,8.1c.07,6.44-.03,12.88-.3,19.32-.07,1.61,2.43,1.61,2.5,0,.27-6.43.37-12.88.3-19.32-.02-1.61-2.52-1.61-2.5,0h0Z" fill="#e5f4f8"/>
          <path d="M66.41,29.71c16.76-.47,33.53-.63,50.29-.47,2.41.02,2.42-3.73,0-3.75-16.77-.15-33.53,0-50.29.47-2.41.07-2.42,3.82,0,3.75h0Z" fill="#e5f4f8"/>
        </g>
        <path d="M71.87,27.87c6.69-3.66,13.61-6.93,20.71-9.71s14.41-4.74,22.07-5.24l-1.88-1.88c0,2.25,0,4.5,0,6.75,0,1.12,0,2.25,0,3.37v1.45c0,.32,0,.64,0,.96-.03.55-.02.64.04.28l1.12-.86c-.63.27-1.73-.01-2.41-.05-.89-.05-1.79-.08-2.68-.12-1.7-.06-3.41-.09-5.12-.1-3.49-.02-6.99.08-10.47.28-6.84.39-13.84,1.89-20.69.98v3.75c7.77-1,15.59-2.01,23.03-4.57,1.93-.66,1.71-3.7-.5-3.68-4.02.03-8.01.43-11.96,1.15l1.44,3.43c3.02-1.72,6.14-3.23,9.38-4.49,1.97-.76,1.68-3.51-.5-3.68-4.99-.4-9.11,2.73-13.72,4.01-2.02.57-1.64,3.69.5,3.68,1.82,0,3.61-.62,5.42-.52.76.04,2.23.35,2.24,1.33l.26-.95c.5-.27.56-.35.18-.25-.22.04-.45.08-.67.12-.37.06-.73.12-1.1.17-.82.11-1.65.19-2.47.25l.5,3.68c8.67-1.36,17.41-2.77,25.57-6.14,1.37-.56,2.02-2.6.45-3.43-2.31-1.22-4.71-2.27-7.17-3.14-1.28-.45-2.81,1-2.31,2.31,1.13,2.96,2.75,5.7,4.96,7.98,1.09,1.13,2.56,1.98,4.15,1.31,1.32-.55,1.94-1.9,2.22-3.23l-3.68-.5c.03.36-.18,1.21.2.89s-.25-.19-.58-.21c-.4-.02-.79-.05-1.19-.07-1.66-.1-3.33-.2-4.99-.3-.79-.05-1.59-.1-2.38-.15-.19,0-.37-.02-.56-.04-.38-.06-.25.21.4.82.08-.04.24-.56.31-.68.69-1.15,1.61-2.14,2.6-3.03,1.99-1.81,4.35-3.22,6.66-4.58.68-.4,1.4-.65,2.09-1.01l.42-.11c-.64-.91-.92-1.08-.85-.51-.1.3,0,.77,0,1.11-.07,1.57-.42,3.17-1.04,4.62l2.94-.38c-.54-.49-1-1.01-1.31-1.67-.26-.54-.4-.91-.2-1.13.42-.47,1.42-.8,1.98-1.12.84-.47,1.68-.94,2.52-1.42l-2.75-1.12c.51,3.38.5,6.82.09,10.21-.12,1.01.95,1.88,1.88,1.88,1.12,0,1.75-.87,1.88-1.88.46-3.75.34-7.48-.22-11.21-.19-1.24-1.81-1.65-2.75-1.12-1.26.71-2.52,1.41-3.78,2.12-1.06.6-2.12,1.25-2.53,2.46-.79,2.35.89,5.12,2.57,6.64.79.72,2.45.8,2.94-.38.77-1.83,1.29-3.66,1.49-5.63.17-1.68.34-3.91-1.37-4.87s-3.83.13-5.3.95-3.03,1.8-4.48,2.78c-2.71,1.84-5.76,4.2-7.09,7.29-.75,1.75-.33,3.9,1.7,4.51,1.78.54,3.98.37,5.83.48,1.11.07,2.22.14,3.33.2,1,.06,2.1.26,3.08-.04,1.86-.57,2.37-2.59,2.23-4.32-.16-1.97-3.21-2.7-3.68-.5-.04.21-.2.53-.18.74-.31.43-.14.41.5-.06l-.29-.28c-.29-.67-1.26-1.39-1.7-2-1-1.38-1.83-2.89-2.44-4.48l-2.31,2.31c2.17.77,4.25,1.69,6.28,2.77l.45-3.43c-8.16,3.37-16.9,4.78-25.57,6.14-2.08.33-1.6,3.84.5,3.68,1.08-.08,2.15-.2,3.22-.34.96-.13,2.13-.18,3.01-.64,1.92-1.01,1.46-3.51.33-4.93-1.05-1.33-2.69-2.02-4.35-2.21-2.04-.23-4.04.46-6.07.47l.5,3.68c4.23-1.18,8.18-4.24,12.72-3.88l-.5-3.68c-3.54,1.38-6.97,2.99-10.27,4.87-1.94,1.11-.57,3.79,1.44,3.43,3.63-.66,7.28-.99,10.97-1.01l-.5-3.68c-7.12,2.45-14.59,3.47-22.03,4.43-2.41.31-2.4,3.43,0,3.75,4.96.66,9.91-.08,14.85-.54s9.89-.7,14.84-.72c2.52-.01,5.04.04,7.55.14,1.88.08,5.28.98,6.38-1.08.53-1,.32-2.32.32-3.41s0-2.25,0-3.37c0-2.57,0-5.14-.01-7.71,0-.96-.86-1.94-1.88-1.88-8,.53-15.62,2.46-23.07,5.38s-14.63,6.27-21.61,10.09c-2.12,1.16-.23,4.4,1.89,3.24h0Z" fill="#e5f4f8"/>
        <path d="M101.52,13.94c-2.67.39-5.23,1.38-7.48,2.87-1.3.86-1.18,3.01.45,3.43,3.24.83,6.46.02,9.74.23,1.52.1,2.62.66,3.79,1.59,1.47,1.17,3.02,2.03,4.86,2.46,1.22.29,2.33-.56,2.37-1.81s-.17-2.43-.38-3.62c-.18-1.01-.4-2.09-.09-3.1.26-.82.81-1.53,1.23-2.27.59-1.03.94-2.04,1.05-3.21.09-1.01-.93-1.88-1.88-1.88-1.09,0-1.78.86-1.88,1.88-.07.8-.67,1.54-1.07,2.2-.55.92-1.04,1.89-1.23,2.95-.41,2.4.57,4.67.48,7.05l2.37-1.81c-1.79-.42-2.98-1.39-4.41-2.46-1.36-1.01-2.94-1.49-4.61-1.68-3.11-.35-6.3.64-9.37-.15l.45,3.43c2.01-1.33,4.19-2.14,6.58-2.49,1-.15,1.55-1.42,1.31-2.31-.3-1.08-1.3-1.46-2.31-1.31h0Z" fill="#e5f4f8"/>
      </g>
      <g>
        <g>
          <path d="M175.71,43.76c2.63.26,5.27.46,7.91.6,1.26.07,2.53.12,3.79.16.69.02,1.38.04,2.07.05.52,0,1.31-.08,1.7-.01l-1.1-.64c-.22-.2-.24-.37-.03-.01.13.22.27.44.4.66.24.4.48.8.72,1.2l1.49-3.67c-4.27.92-8.82-.69-13.2-.75-1.35-.02-2.5,1.16-2.5,2.5s1.14,2.48,2.5,2.5c4.89.07,9.6,1.63,14.53.57,1.58-.34,2.29-2.35,1.49-3.67-.43-.71-.82-1.44-1.28-2.13-.65-.97-1.49-1.44-2.65-1.52-1.77-.13-3.57-.05-5.35-.12-3.5-.13-7-.38-10.49-.72-1.35-.13-2.5,1.24-2.5,2.5,0,1.46,1.15,2.37,2.5,2.5h0Z" fill="#6fc5ce"/>
          <path d="M56.74,31.36c16.82-12.39,36.19-21.47,56.87-24.95,19.29-3.25,39.62-1.11,57.49,7.01,9.93,4.51,18.98,10.74,26.51,18.64,2.22,2.34,5.75-1.2,3.54-3.54-13.93-14.64-32.98-23.86-52.82-27.13-21.02-3.47-42.6-.29-62.26,7.72-11.33,4.62-22.01,10.67-31.86,17.93-1.09.8-1.63,2.17-.9,3.42.63,1.07,2.33,1.7,3.42.9h0Z" fill="#6fc5ce"/>
          <path d="M15.59,60c4.86-8.76,14.54-12.51,24.09-13.61,5.77-.66,11.63-.51,17.42-.39,3.28.07,6.56.15,9.84.23,1.44.03,3.55.52,4.96.12,1.64-.47,1.63,1.28.43-.74l2.69-10.26c-9.7,5.65-21.17,6.33-31.89,8.9-5.37,1.29-10.5,3.16-15.44,5.63-2.67,1.34-5.24,2.89-7.99,4.07-1.2.51-2.45,1-3.72,1.28l-1.6.36c-2.46-.34-2.48,1.53-.05,5.62l-12.8-5.3.02,1.01,1.02-3.79c-3.3,5.96-3.79,12.42,3.27,15.89,6.13,3.01,15.13,1.85,21.78,1.92,16.49.16,32.96-.78,49.34-2.7,4.02-.47,7.5-3.11,7.5-7.5,0-3.69-3.45-7.97-7.5-7.5-11.46,1.34-22.97,2.22-34.51,2.56-5.6.16-11.21.2-16.81.12-2.64-.04-5.27-.11-7.91-.2-1.23-.04-3.69-.54-4.94-.21-1.97.52-1.4-2.3,1.15,1.58l1.02,3.79c.16,1.71.65-.32.93-1.06.49-1.3.65-2.51.63-3.9-.1-5.97-8.49-10.59-12.8-5.3-5.75,7.05-2.88,17.47,6.49,19.55,8.63,1.91,16.96-3.17,24.32-6.93,15.16-7.76,33.14-6.21,48.06-14.91,3.48-2.03,4.77-6.78,2.69-10.26-4.21-7.07-12.07-6.66-19.33-6.83-8.74-.21-17.56-.71-26.27.18-14.78,1.52-29.51,7.46-37.04,21.04-4.69,8.45,8.26,16.02,12.95,7.57h0Z" fill="#6fc5ce"/>
          <path d="M18.28,71.94c50.54-.07,101.08-.13,151.62-.2,9.65-.01,9.67-15.01,0-15-50.54.07-101.08.13-151.62.2-9.65.01-9.67,15.01,0,15h0Z" fill="#6fc5ce"/>
          <path d="M174.9,66.38c1.19-3.34,6.81-3.89,9.72-4.47,4.64-.93,9.76-2.1,14.48-1.03,3.61.82,5.07,2.6,6.58,5.66,2.44,4.94,7.33,6.99,12.58,5.11,8.23-2.94,14.38-13.98,11.72-22.34-1.36-4.26-4.57-7.44-8.14-9.97-2.94-2.09-6.72-3.28-8.35-6.69l-10.26,10.26c4.35,3.06,9.37,5.86,13.35,9.39,1.96,1.74,1.67,4.95-1.4,3.19-8.39-4.82-15.95,8.14-7.57,12.95,10.44,6,24.22.08,25.35-12.41,1.19-13.19-13.01-19.65-22.16-26.08-6.7-4.71-13.18,4.16-10.26,10.26,2.39,4.99,6.9,7.78,11.44,10.59.83.52,3.65,1.84,3.76,3.09s-2.94,3.74-3.64,3.84l5.78.76c1.54,2.6,1.99,3.16,1.34,1.69-.32-.81-.66-1.62-1.01-2.42-.7-1.36-1.6-2.63-2.59-3.8-1.57-1.84-3.54-3.47-5.62-4.71-5.51-3.27-12.12-4.14-18.42-3.53-12.24,1.18-26.53,3.64-31.15,16.68-3.23,9.11,11.25,13.04,14.46,3.99h0Z" fill="#6fc5ce"/>
          <path d="M57.9,43.95c47.11-.63,94.22-1.67,141.32-3.13,9.63-.3,9.67-15.3,0-15-47.1,1.45-94.2,2.5-141.32,3.13-9.64.13-9.67,15.13,0,15h0Z" fill="#6fc5ce"/>
          <path d="M20.1,41.15c12.73-3.18,25.1-7.59,37.28-12.43s23.96-10.2,36.15-14.77,24.4-7.89,37.28-7.7,24.84,2.91,36.56,6.76,22.32,9.28,29.43,18.95c.6.82,1.62,1.21,2.57.67.81-.46,1.27-1.75.67-2.57-6.58-8.95-16.1-14.76-26.32-18.75-5.27-2.06-10.72-3.64-16.21-4.98-6.56-1.61-13.23-2.87-19.97-3.47-13.29-1.18-26.25,1.06-38.84,5.28s-24.56,9.76-36.77,14.74c-13.98,5.7-28.16,10.99-42.82,14.65-2.34.59-1.35,4.2,1,3.62h0Z" fill="#6fc5ce"/>
          <path d="M153.53,6.08c14.7,1.6,28.53,7.54,40.92,15.42,6.31,4.01,12.29,8.53,18,13.36,2.85,2.42,5.64,4.91,8.38,7.46,2.52,2.35,5.3,4.77,5.49,8.47s-1.44,7.02-4.26,9.19c-3.12,2.4-7.15,3.18-11.01,2.9-2.41-.18-2.4,3.58,0,3.75,7.64.56,15.69-3.1,18.29-10.7,1.17-3.43.99-7.36-.79-10.54-1.98-3.54-5.61-6.27-8.59-8.94-12.06-10.82-25.36-20.67-40.32-27.1-8.35-3.59-17.07-6.04-26.12-7.02-1.01-.11-1.88.94-1.88,1.88,0,1.1.86,1.77,1.88,1.88h0Z" fill="#6fc5ce"/>
          <path d="M118.13,4.43c0,7.68-.02,15.35-.03,23.03v11.39c-.02,3.7-.16,7.44.67,11.08.54,2.35,4.15,1.36,3.62-1-.81-3.52-.55-7.24-.55-10.83v-11.14c.02-7.51.03-15.02.04-22.53,0-2.41-3.75-2.42-3.75,0h0Z" fill="#6fc5ce"/>
          <path d="M122.42,3.29c-.58,17.66-.33,35.33.74,52.97.15,2.4,3.9,2.41,3.75,0-1.07-17.63-1.32-35.31-.74-52.97.08-2.41-3.67-2.41-3.75,0h0Z" fill="#6fc5ce"/>
          <path d="M21.76,40.41c3.53-1.31,7.04-2.65,10.59-3.92s7.09-1.86,10.9-2.06c6.57-.33,13.84-.83,19.84,2.36,2.13,1.13,4.03-2.1,1.89-3.24-6.51-3.47-14.13-3.25-21.29-2.9-3.95.2-7.74.62-11.5,1.91s-7.62,2.81-11.43,4.22c-2.24.83-1.27,4.46,1,3.62h0Z" fill="#6fc5ce"/>
          <path d="M23.79,54.9c1.44.1,2.96-.04,4.33-.54,1.26-.46,2.38-1.14,3.5-1.86,2.4-1.53,4.79-3.06,7.19-4.59,1.1-.7,1.65-2.26.9-3.42-.71-1.1-2.24-1.65-3.42-.9-2.24,1.43-4.48,2.86-6.72,4.29-.95.61-1.89,1.28-2.94,1.72.45-.19-.44.12-.53.15-.24.06-.48.12-.73.15.47-.07-.48.02-.58.02-.33,0-.66,0-1-.03-1.31-.09-2.56,1.21-2.5,2.5.06,1.43,1.1,2.4,2.5,2.5h0Z" fill="#6fc5ce"/>
          <path d="M84.77,45.73l5.73.65,2.86.32,1.19.13.72.08c.68.14.65.05-.11-.29l-.64-1.1.03.23,2.41-3.16c-5.18.31-10.41.78-15.52,1.71s-9.05,4.24-13.19,6.92c-1.73,1.12-1.59,4.04.6,4.57,4.51,1.09,9.14.71,13.68,1.46,2.26.37,4.36,1.22,6.55,1.88s4.46.89,6.74.83c4.91-.12,9.82-.53,14.73-.81,2.4-.14,4.8-.27,7.21-.41,1.16-.07,2.32-.13,3.48-.2,1.22-.07,2.61.03,3.69-.62,2.84-1.71.66-4.72.31-7.08s-.02-4.86.29-7.22c.16-1.21-1.08-2.33-2.17-2.46-1.19-.14-2.45.56-2.74,1.79-.49,2.05-.99,4.1-1.48,6.15-.03.13-.36,1.44-.35,1.44l.02-.02c.59-.43.64-.56.14-.38-.36-.07-.97.2-1.36.27-.54.09-1.08.18-1.62.24-4.19.53-8.42.74-12.62,1.2-7.01.76-15.97,2.77-21.88-2.38l-1.77,4.27c13.34-.9,26.69-1.84,39.91-3.88l-1.93-4.57c-4.15,2.17-8.58,3.71-13.18,4.63-2.22.44-4.46.71-6.72.82-1.2.06-2.41.08-3.61.04-.53-.02-1.06-.04-1.58-.13-.29-.06-.58-.13-.87-.22-.32-.11-.22.05.3.47v1.33c.07-.41,1.55-1.07,1.96-1.29.85-.45,1.79-.75,2.58-1.29,2.02-1.39,2.47-3.65,2.48-5.96l-4.66,1.26c.57,1.11,1.27,2.13,2.05,3.1.74.92,1.73,2.16,2.91,2.48,3.66,1,4.03-3.67,4.59-6.08l-4.57.6c.67.94,1.21,1.92,1.66,2.98.73,1.71,3.54,1.55,4.32,0,.69-1.37,1.05-2.7,1.23-4.22l-4.27,1.77c1,.92,2.01,1.85,3.01,2.77,1.26,1.16,3.84.86,4.18-1.1.24-1.37.24-2.61-.05-3.98-.61-2.82-4.85-2.09-4.91.66-.08,3.82,3.57,5.35,6.82,5.49,3.52.15,7.04.13,10.51-.49,1.33-.23,2.08-1.86,1.75-3.08-.39-1.4-1.74-1.98-3.08-1.75-1.13.2-11.02.97-11-.18l-4.91.66c.1.44.13.86.05,1.32l4.18-1.1c-1-.92-2.01-1.85-3.01-2.77-1.72-1.58-4.01-.34-4.27,1.77-.07.59-.29,1.17-.55,1.7h4.32c-.45-1.06-1-2.04-1.66-2.98-1.16-1.63-4.05-1.66-4.57.6-.32,1.38-.54,2.83-1,4.17l.64-1.1-.22.2,1.77-.73-.3-.03,1.26.34c-1.12-.81-1.96-2.34-2.57-3.53-1.16-2.26-4.65-1.13-4.66,1.26,0,.46.13,1.36-.2,1.77-.44.55-1.78.84-2.38,1.16-1.62.87-3.66,2.06-4.2,3.95-1.49,5.2,6.27,5.29,9.39,5.21,8.22-.21,16.28-2.36,23.55-6.17,1.09-.57,1.5-2.04,1.02-3.12-.54-1.22-1.68-1.64-2.95-1.45-12.78,1.97-25.69,2.83-38.58,3.7-1.99.13-3.52,2.74-1.77,4.27,7.49,6.53,17.37,4.67,26.39,3.74,4.86-.5,9.78-.67,14.59-1.52,2.35-.41,4.1-1.21,4.77-3.67s1.17-4.86,1.75-7.29l-4.91-.66c-.27,2.04-.51,4.1-.39,6.16.06,1.08.2,2.18.45,3.24.1.42.22.84.37,1.24.12.33.47.81.47,1.14l.34-1.26-.14.28.9-.9c.63-.09.62-.11-.03-.05l-.99.06-1.49.08c-1.16.07-2.32.13-3.48.2-2.32.13-4.64.26-6.96.39-4.65.26-9.31.67-13.96.76-2.13.04-4.02-.26-6.04-.93s-4.02-1.36-6.15-1.68c-4.38-.66-8.89-.35-13.22-1.39l.6,4.57c3.76-2.44,7.49-5.59,11.99-6.42s9.46-1.25,14.19-1.53c1.77-.11,2.66-1.5,2.41-3.16-.42-2.85-4.62-2.57-6.72-2.81l-7.88-.89c-1.34-.15-2.5,1.26-2.5,2.5,0,1.48,1.15,2.35,2.5,2.5h0Z" fill="#6fc5ce"/>
          <path d="M74.73,54.68c8.57-1.66,17.39-.8,26,0,1.35.13,2.5-1.24,2.5-2.5,0-1.46-1.15-2.37-2.5-2.5-9.12-.85-18.27-1.58-27.33.17-1.33.26-2.08,1.85-1.75,3.08.38,1.39,1.75,2,3.08,1.75h0Z" fill="#6fc5ce"/>
          <path d="M122.59,43.4c-.07,4.84-1.16,11.82,2.66,15.58,4.59,4.51,11.83,1.88,17.28,1.05,5.87-.89,11.22-.27,17.06.09,2.82.18,5.55-.26,8.16-1.32,2.44-.99,4.34-2.37,7.09-1.81,9.39,1.92,13.45-12.32,3.99-14.46-6.45-1.46-13.05-2.6-19.68-2.67-6.24-.07-12.58,1.17-18.73-.3-9.38-2.24-13.39,12.22-3.99,14.46,6.38,1.52,12.57,1.14,19.06.9s12.92.61,19.35,2.07l3.99-14.46c-4.12-.84-8.08-.93-12.11.42-1.73.58-3.39,1.85-5.18,2.21-1.62.32-3.52-.23-5.13-.42-4.13-.49-8.2-.42-12.33.05-2.14.25-4.28.55-6.41.9-1.38.23-3.73,1.2-5.11.73l4.48,3.45-.32-.61,1.02,3.79c-.34-3.18-.19-6.47-.14-9.66.14-9.66-14.86-9.66-15,0h0Z" fill="#6fc5ce"/>
          <path d="M182.14,60.03c4.01.08,8-.02,11.99-.4,3.33-.32,7.22-2.03,9.59.68l9.09-11.78c-1.65-1.1-3.27-2.02-3.84-3.93-.81-2.76-.11-6.71-.16-9.59-.14-9.64-15.14-9.67-15,0,.08,5.42-.56,11.46,1.7,16.53,1.98,4.45,5.77,7.31,9.72,9.95,7.44,4.95,14.43-5.67,9.09-11.78-8.25-9.44-21.18-4.46-32.19-4.68-9.66-.19-9.66,14.81,0,15h0Z" fill="#6fc5ce"/>
          <path d="M64.6,51.54c9.65,0,9.67-15,0-15s-9.67,15,0,15h0Z" fill="#6fc5ce"/>
          <path d="M1.34,59.18c.31-3.78,2.12-7.33,4.94-9.85.6-.54-.29-1.42-.88-.88C2.32,51.19.43,55.08.09,59.18c-.07.8,1.18.8,1.25,0h0Z" fill="#6fc5ce"/>
          <path d="M1.25,59.13c.03-5.35,3.43-9.69,7.09-13.26s7.79-6.37,12.96-7.45c.79-.16.45-1.37-.33-1.21-5.5,1.15-9.84,4.15-13.79,8.04S.03,53.59,0,59.13c0,.8,1.25.81,1.25,0h0Z" fill="#6fc5ce"/>
          <path d="M10.02,70.02c1.04.48,2.1.87,3.2,1.17,1.16.32,2.36.66,3.57.68s2.36-.31,3.52-.51c.27-.05.53-.09.8-.13.3-.04.31-.04.03,0,.12-.01.23-.03.35-.04.58-.07,1.15-.12,1.73-.16,1.3-.09,2.56-1.08,2.5-2.5-.06-1.28-1.1-2.6-2.5-2.5-1.15.08-2.29.22-3.43.38-.54.08-1.07.17-1.6.27-.21.04-.43.09-.64.12-.14.03-.29.05-.43.07.27-.04.31-.04.12-.03-.25-.01-.51.01-.77,0,.45.03-.04-.02-.22-.06-.46-.1-.92-.23-1.38-.35s-.89-.24-1.33-.38c-.2-.07-.4-.13-.6-.21-.13-.05-.27-.1-.4-.15.27.11.28.11.01,0-1.18-.55-2.75-.37-3.42.9-.58,1.1-.37,2.83.9,3.42h0Z" fill="#6fc5ce"/>
          <path d="M148.35,47.58c9.65,0,9.67-15,0-15s-9.67,15,0,15h0Z" fill="#6fc5ce"/>
          <path d="M20.87,41.44c4.05-.54,7.65-2.6,11.44-4.02s7.61-2.58,11.52-3.52,7.7-1.82,11.44-3.17,7.62-3.11,11.28-4.98c2.87-1.47.34-5.78-2.52-4.32-3.42,1.75-6.91,3.35-10.53,4.64s-7.29,2.12-11,3.02-7.45,2.02-11.08,3.36c-1.83.68-3.64,1.41-5.43,2.18-1.64.7-3.34,1.59-5.12,1.82-1.34.18-2.5,1.02-2.5,2.5,0,1.21,1.15,2.68,2.5,2.5h0Z" fill="#6fc5ce"/>
        </g>
        <path d="M151.2,6.18c13.81,5.32,27.64,10.67,40.84,17.41,6.45,3.3,12.75,6.92,18.74,11s12.21,8.18,15.48,14.48c1.68,3.24,2.47,7.32,1.07,10.81-1.13,2.82-3.73,5.25-6.87,5.35-2.41.08-2.42,3.83,0,3.75,7.37-.23,11.93-7.67,11.25-14.51-.8-8.01-6.5-13.78-12.57-18.45-12.69-9.76-27.05-17.07-41.72-23.36-8.32-3.57-16.77-6.84-25.22-10.1-.95-.37-2.05.41-2.31,1.31-.3,1.05.37,1.94,1.31,2.31h0Z" fill="#6fc5ce"/>
        <path d="M173.29,14.85c10,3.76,18.23,11.32,24.3,19.97,1.38,1.96,4.63.09,3.24-1.89-6.67-9.51-15.56-17.56-26.54-21.69-2.26-.85-3.24,2.77-1,3.62h0Z" fill="#6fc5ce"/>
        <path d="M188.07,21.92c1.8,1.12,3.56,2.31,5.26,3.58.2.15.4.31.61.46.29.21-.34-.26-.05-.04.1.08.2.16.3.23.42.33.84.67,1.26,1.01.83.68,1.65,1.39,2.45,2.11.97.87,2.59,1.03,3.54,0,.88-.95,1.04-2.6,0-3.54-3.36-3.02-6.99-5.75-10.83-8.13-1.11-.69-2.8-.27-3.42.9s-.29,2.68.9,3.42h0Z" fill="#6fc5ce"/>
        <path d="M173.98,15.12c7.11,2.63,13.04,7.5,18.86,12.23,1.05.85,2.51,1.02,3.54,0,.88-.88,1.05-2.68,0-3.54-3.31-2.69-6.66-5.35-10.14-7.81s-7.04-4.27-10.92-5.7c-1.27-.47-2.74.52-3.08,1.75-.38,1.4.47,2.61,1.75,3.08h0Z" fill="#6fc5ce"/>
        <path d="M134.36,5.13c3.91-.27,7.68.73,11.46,1.6s7.91,1.81,11.87,2.72c3.13.72,4.47-4.1,1.33-4.82-4.11-.94-8.22-1.88-12.33-2.82s-8.15-1.96-12.33-1.67c-1.35.09-2.5,1.08-2.5,2.5,0,1.28,1.15,2.6,2.5,2.5h0Z" fill="#6fc5ce"/>
      </g>
      <path d="M207.65,72.69c5.89.62,12.08-.45,17.34-3.22,2.26-1.19,4.41-2.89,5.65-5.17,1.5-2.77,1.4-5.92,1.14-8.97-.2-2.39-3.95-2.41-3.75,0s.51,5.16-.79,7.36c-1.06,1.79-2.91,2.95-4.74,3.84-4.58,2.23-9.81,2.93-14.84,2.4-1.01-.11-1.88.94-1.88,1.88,0,1.1.86,1.77,1.88,1.88h0Z" fill="#6fc5ce"/>
      <path d="M166.6,71.75c3.37.06,6.73,0,10.1-.16,1.3-.06,2.56-1.1,2.5-2.5-.06-1.3-1.1-2.57-2.5-2.5-3.36.17-6.73.22-10.1.16-1.31-.02-2.56,1.17-2.5,2.5s1.1,2.48,2.5,2.5h0Z" fill="#6fc5ce"/>
      <path d="M5.59,69c2.51,1.41,5.21,2.26,8.06,2.62,1.46.18,2.93.24,4.4.25s2.73-.05,4.03-.63c.62-.27.76-1.17.45-1.71-.37-.64-1.09-.72-1.71-.45-.97.43-2.18.3-3.21.28-1.32-.02-2.64-.07-3.94-.25-2.4-.32-4.71-1.09-6.82-2.28-1.4-.79-2.66,1.37-1.26,2.16h0Z" fill="#6fc5ce"/>
      <circle cx="192.31" cy="71.49" r="8.51" fill="#a7a9ac" stroke="#a7a9ac" stroke-miterlimit="10" stroke-width="5"/>
      <path d="M119.15,8.24c.11,8.78.73,17.55,1.86,26.26.13,1,.77,1.88,1.88,1.88.91,0,2.01-.86,1.88-1.88-1.12-8.71-1.74-17.47-1.86-26.26-.03-2.41-3.78-2.42-3.75,0h0Z" fill="#6fc5ce"/>
      <path d="M120.82,5.19c-.3,14.26.38,28.52,2.05,42.69.12,1.01.78,1.88,1.88,1.88.92,0,1.99-.86,1.88-1.88-1.67-14.16-2.36-28.43-2.05-42.69.05-2.41-3.7-2.41-3.75,0h0Z" fill="#6fc5ce"/>
      <path d="M72.51,17.95c-7.75,5.16-14.52,11.56-20.14,18.97-.61.81-.13,2.1.67,2.57.96.56,1.95.14,2.57-.67,5.21-6.87,11.62-12.85,18.79-17.63,2-1.33.12-4.58-1.89-3.24h0Z" fill="#6fc5ce"/>
      <path d="M78.19,15.6c-5.67,3.26-11.33,6.55-16.85,10.04-5,3.16-9.86,6.68-13.63,11.28-.65.79-.76,1.88,0,2.65.66.67,2.01.78,2.65,0,3.68-4.48,8.36-7.86,13.24-10.93,5.41-3.4,10.95-6.62,16.49-9.81,2.09-1.2.21-4.44-1.89-3.24h0Z" fill="#6fc5ce"/>
      <path d="M95.87,23.04c3.22,0,3.22-5,0-5s-3.22,5,0,5h0Z" fill="#e5f4f8"/>
      <path d="M222.9,45.48c.14-.4-.27.49,0,.04s-.32.3-.01.02c.05-.05.1-.09.15-.14.21-.22-.45.29-.18.14.1-.06.65-.35.25-.16-.47.23.19-.09.23-.03.03.04-.59.03-.32.05.06,0,.14,0,.21,0,.44-.01-.27,0-.26-.04,0,0,.19.05.2.05.1.03.39.15.02-.01s-.07-.02.01.02.15.1.23.15c.21.12-.23-.17-.24-.18,0,.04.48.53.18.15s.04.17.09.21c-.28-.21-.05-.94-.02-1.06-.03-.62.23-1.09.79-1.41l.39-.17s-.16.04-.17.04c-.3.09.68-.05.29-.05-.22,0-.44.03-.66.04-.44.02-.88.04-1.32.05-.91.02-1.82.02-2.73-.02-.07,0-.17-.02-.25-.01l.36.04,1.29,1.3c.05.21.06.41.03.62-.01.09-.28.72-.14.49.14-.21-.18.22-.18.22.04-.02.17-.2.19-.22.14-.16.28-.31.41-.47.22-.27.44-.54.7-.78.07-.06.33-.31.06-.06-.25.23-.04.06.02.01.1-.09.47-.17-.15.06.32-.12-.07.01-.2,0-.07,0-.57-.16-.2-.03-.01,0-.45-.26-.26-.1.04.03.14.1.19.12-.33-.11-.34-.29-.15-.1.3.3.61.6.91.91.59.6,1.17,1.21,1.77,1.79.22.21-.26-.43-.12-.15.02.05.07.16.11.19-.14-.12-.21-.62-.21-.75l.27-.65c.02-.35.16-.61.43-.77.17-.13.33-.2.52-.28-.38.15.29-.02.28-.02-.15.08-.48.03-.64.03-.85.03-1.7.06-2.54.05-.39,0-.78-.02-1.17-.05-.08,0-.17-.02-.25-.02-.34-.02.51.09.17.03-.22-.04-.43-.08-.65-.13-.19-.04-.37-.09-.55-.15-.08-.03-.15-.06-.23-.08-.26-.07.21.09.22.1-.12-.09-.37-.21-.51-.26-.25-.1.21.22.27.3.08.09.14.2.18.31.07.2.1.24.06.11-.1-.28,0,.55.04.22,0-.05.02-.2,0-.24.03.07-.14.59-.01.19.02-.07.06-.16.07-.23.04-.24-.08.19-.1.22.06-.06.1-.21.15-.29.04-.07.08-.14.13-.21.23-.35.12-.04-.05.05.13-.07.28-.32.39-.42.13-.13.28-.26.42-.39.12-.11.25-.21.38-.31.33-.27-.07.06-.12.09.09-.05.17-.13.25-.19-.02.01.27-.17.27-.17,0,0-.49.19-.24.11.28-.09-.4.02-.49.01-.35-.02-.16-.03-.05,0-.06-.02-.53-.3-.2-.07.06.04.13.09.19.12.22.12-.19-.14-.2-.15.05.08.22.19.29.27.67.65,1.29,1.33,1.98,1.96.35.32.72.63,1.09.94.19.15.37.3.56.45s.4.28.58.45c-.51-.47-.21-.17-.1-.06.05.05.1.12.15.16-.25-.17-.37-.54-.41-.82l-.03-.2.94-1.62c.38-.14.48-.18.29-.13-.13.03-.09.02.12,0,.4-.04.1-.01.02,0-.14,0-.27.02-.41.02-.22,0-.44-.02-.66-.02-.27,0,.25.04.26.04-.12-.04-.28-.05-.4-.08-.21-.05-.43-.11-.63-.17-.06-.02-.17-.08-.23-.08.32.14.39.17.22.09-.05-.02-.1-.05-.15-.07-.22-.11-.44-.23-.64-.36-1.11-.7-2.8-.27-3.42.9-.65,1.23-.29,2.68.9,3.42,1.27.8,2.71,1.21,4.2,1.32,1.84.14,3.99-.41,4.51-2.44.3-1.16-.08-2.29-.82-3.19-.16-.2-.33-.35-.53-.51l-.51-.39c.27.21.33.25.18.13-.16-.13-.33-.26-.49-.39-.94-.78-1.83-1.62-2.67-2.5-1.22-1.28-2.69-2.17-4.52-1.85-.69.12-1.28.47-1.83.89-.6.46-1.21.91-1.73,1.47-1.11,1.19-1.91,2.73-1.86,4.39.02.99.35,1.96,1.07,2.67.65.63,1.57,1.02,2.41,1.32,1.25.44,2.63.55,3.94.56.59,0,1.18,0,1.77-.02.75-.02,1.54,0,2.27-.17.92-.21,1.67-.74,2.18-1.53.67-1.03.53-2.37-.02-3.41-.62-1.17-1.82-2.11-2.74-3.04-.49-.5-.98-1-1.57-1.39-.92-.6-2-.77-3.07-.57-1.53.29-2.47,1.4-3.44,2.49-.54.61-1.06,1.21-1.29,2.02-.31,1.11-.04,2.37.79,3.2,1.22,1.23,3.2,1.02,4.79,1,.75,0,1.51-.03,2.26-.07.97-.05,1.86-.17,2.64-.78,1.93-1.49,1.16-4.19-.47-5.59-1.35-1.15-3.15-1.67-4.89-1.18s-3.06,1.86-3.66,3.57c-.43,1.24.49,2.79,1.75,3.08,1.4.32,2.61-.42,3.08-1.75h0Z" fill="#c04c34"/>
      <path d="M15.12,42.9c-.12.15-.25.29-.39.43-.05.05-.61.52-.33.31s-.24.15-.3.19c-.19.12-.39.22-.6.31-.95.44-1.46,1.85-1.15,2.82.36,1.1,1.27,1.76,2.41,1.84,1,.07,2,.14,2.99.2.94.06,1.89.19,2.83.06,1.3-.17,2.4-.88,3.03-2.05.53-.97.99-2.12.96-3.24-.05-2.36-1.87-4.41-4.2-4.73s-4.33,1.07-6.26,2.15c-.98.55-1.96,1.1-2.94,1.64-.57.32-1.19.62-1.65,1.1-.7.74-1.09,1.87-.73,2.87.39,1.06,1.24,1.82,2.41,1.84,2.11.03,4.23.1,6.34.08,1.04,0,2.09-.05,3.12-.18,1.32-.16,2.86-.24,3.88-1.21s1.13-2.32,1.18-3.6c.03-.64.01-1.29-.18-1.9-.32-1.02-1.15-1.73-2.14-2.06-2.17-.72-4.68-.23-6.65.8-1.16.61-1.61,2.32-.9,3.42.76,1.18,2.18,1.55,3.42.9.09-.05.68-.28.15-.09.16-.06.32-.12.49-.17s.33-.08.5-.13c.62-.17-.49,0,.15-.03.35-.02.68-.02,1.03,0,.25.02.27.03.08,0-.2-.03-.17-.02.07.02l.17.04c-.19-.07-.37-.16-.54-.27l-.64-1.1c.09.27.1.22.01-.13,0,.15,0,.31,0,.46,0,.29.02.65-.06.93.05-.32.05-.35,0-.1.08-.23.21-.42.42-.55.14-.2.33-.33.56-.41-.13.03-.26.06-.39.08-.1.02-1.04.16-.48.09-.31.04-.61.07-.92.09-.54.04-1.08.07-1.62.08-2.34.06-4.7-.03-7.04-.07l2.41,1.84-.05-.13v1.33c-.14.4-.38.71-.71.94l.21-.12c.21-.11.42-.24.63-.35.42-.23.84-.47,1.26-.7.8-.45,1.61-.9,2.41-1.35.41-.23.81-.46,1.23-.68.16-.09.32-.16.48-.25.49-.27-.29.05.2-.08.2-.05.4-.14.61-.16-.73.06.42.15-.3.01.21.06.21.06.01-.03-.2-.09-.2-.09,0,0,.18.12.18.11.01-.01-.16-.13-.17-.13,0,.02l.11.12c-.22-.3-.25-.33-.11-.11.26.41-.17-.49,0,0,.14.43-.02-.4-.02-.1,0,.18.01.11.04-.22-.02.1-.05.2-.08.29-.03.1-.06.19-.1.29.11-.25.13-.3.05-.13-.07.13-.14.27-.2.41-.14.38.16-.15.34-.25.34-.12.38-.15.12-.07l.32-.05c-.04.09-1.06-.04-1.17-.05-.46-.03-.92-.06-1.38-.09-.92-.06-1.84-.13-2.76-.19l1.26,4.66c1-.46,1.92-1.18,2.63-2.02.84-1,1.05-2.57,0-3.54-.93-.85-2.64-1.07-3.54,0h0Z" fill="#cbb9b0"/>
      <path d="M186.12,41.79h-.45v1.25h4.2c.36,0,.74.03,1.02-.24s.31-.72.1-1.04c-.33-.52-1.05-.68-1.62-.79-1.2-.22-2.42-.09-3.54.4-.51.22-1.2.52-1.34,1.11-.19.81.64,1.27,1.32,1.24,1.54-.08,3.1-.35,4.61-.66.3-.06.49-.4.45-.69-.05-.32-.3-.52-.61-.54-.95-.06-1.91-.07-2.86,0-.47.04-.93.16-1.17.61s-.06,1.02.4,1.24c.39.19.89.12,1.31.12.47,0,.95,0,1.42,0,.44,0,.97.08,1.39-.06.49-.16.75-.65.63-1.14s-.61-.83-1.12-.86c-.23-.02-.45.04-.68.06-.05,0-.1,0-.15,0,0,0-.11,0-.06,0-.11,0-.05-.04-.02,0-.4-.7-1.48-.07-1.08.63.21.37.59.56,1,.6.16.02.32,0,.48-.02.04,0,.39-.01.43-.05.01-.02-.03-.04-.02-.05,0-.02,0-.03,0-.05,0-.13.06-.24.21-.33-.09-.06-.41,0-.53,0-.42,0-.84,0-1.26,0s-.84,0-1.26,0h-.11c-.08,0-.09,0-.05,0,.08-.05.26.59.05.55.03,0,.1-.02.13-.03.1-.01.21-.01.32-.02.86-.05,1.72-.04,2.58.01l-.17-1.23c-.89.19-1.79.34-2.69.46-.46.06-.92.11-1.39.14-.03,0-.39.01-.39.02,0,0,.03,0,.06.06.24.49-.21.42-.01.34.09-.04.18-.11.27-.16.63-.35,1.35-.55,2.07-.58.36-.02.72,0,1.08.07.19.04.38.08.56.14.08.02.17.07.25.09.03,0,.05.02.07.04-.1.06-.13-.04-.08-.31l.16-.28c.17-.06.21-.08.1-.07h-.17c-.07,0-.15,0-.22,0h-.61c-.39,0-.77,0-1.16,0h-2.32c-.8,0-.81,1.25,0,1.25h.45c.8,0,.81-1.25,0-1.25h0Z" fill="#cbb9b0"/>
      <ellipse cx="15.9" cy="56.44" rx="3.9" ry="1.56" fill="#c04c34" stroke="#c04c34" stroke-miterlimit="10" stroke-width=".25"/>
      <path d="M15.82,42.67c-.47.05-.94.1-1.41.1l.66.09h-.09c.2.07.4.15.6.24l-.07-.03.51.39-.05-.06.64,1.1-.02-.09v1.33c.04-.23.11-.45.2-.67l-.25.6c.13-.31.3-.6.51-.87l-.39.51c.19-.24.4-.45.64-.64l-.51.39c.22-.16.45-.3.69-.41l-.6.25c.27-.11.54-.19.83-.23l-.66.09c.29-.04.57-.04.86,0l-.66-.09c.29.04.56.11.83.21l-.6-.25c.23.1.45.22.65.36l-.51-.39c.11.08.21.17.3.28l-.39-.51c.06.09.11.16.15.26l-.25-.6.03.1-.09-.66c.01.07.02.13.01.2l.09-.66c-.02.1-.04.19-.08.29l.25-.6c-.05.09-.1.18-.17.26l.39-.51c-.12.14-.24.25-.39.37l.51-.39c-.48.36-1,.64-1.55.87l.6-.25c-1.05.43-2.2.75-3.33.9l.66-.09c-.39.05-.77.06-1.16.01l.66.09c-.09-.01-.17-.03-.26-.04-.67-.13-1.32-.1-1.93.25-.52.3-1.01.9-1.15,1.49-.15.64-.11,1.36.25,1.93.34.52.86,1.03,1.49,1.15,1.17.23,2.23.16,3.39-.08.68-.14,1.35-.32,2.01-.54,1.82-.62,4.04-1.66,4.59-3.69.44-1.6-.49-3.04-1.8-3.87-.83-.52-1.81-.76-2.78-.81s-2.02.23-2.91.68c-.85.43-1.49,1.11-2.05,1.85-.69.92-1.25,2.31-.96,3.46.32,1.26,1.46,2.03,2.72,2.03.44,0,.89-.05,1.32-.1.68-.07,1.26-.23,1.77-.73.43-.43.76-1.15.73-1.77s-.24-1.32-.73-1.77c-.46-.42-1.12-.8-1.77-.73h0Z" fill="#fdf6b0"/>
      <ellipse cx="223.83" cy="55.68" rx="3.9" ry="1.56" fill="#c04c34" stroke="#c04c34" stroke-miterlimit="10" stroke-width=".25"/>
      <path d="M220.82,42.98c.42.12.82.26,1.22.42l-.6-.25c.86.37,1.66.84,2.4,1.41l-.51-.39c.71.56,1.34,1.19,1.89,1.9l-.39-.51c.33.43.65.89.88,1.38l-.25-.6c.06.14.09.28.12.42l-.09-.66c0,.09,0,.18-.01.27l.09-.66c-.01.06-.03.12-.05.17l.25-.6c-.02.05-.05.11-.08.15l.39-.51s-.07.09-.12.13l.51-.39s-.1.07-.16.09l.6-.25c-.06.02-.12.04-.19.05l.66-.09c-.42.05-.86,0-1.29-.02-.45-.02-.9-.03-1.35-.05-.92-.03-1.84-.06-2.76-.1-1.31-.05-2.56,1.18-2.5,2.5.06,1.39,1.1,2.45,2.5,2.5,1.28.04,2.56.09,3.84.13.77.03,1.59.12,2.35-.1,1.4-.4,2.25-1.69,2.3-3.11.06-1.55-1.13-3.02-2.08-4.14-.77-.9-1.71-1.68-2.7-2.33-1.09-.72-2.32-1.26-3.58-1.62s-2.78.43-3.08,1.75.4,2.7,1.75,3.08h0Z" fill="#c04c34"/>
      <path d="M222.17,43.03c.15-.09.3-.18.47-.25l-.6.25c.11-.04.22-.07.34-.09l-.66.09c.09,0,.18,0,.27,0l-.66-.09c.15.02.29.06.43.12l-.6-.25c.34.15.66.36.95.59l-.51-.39c.55.43,1.02.95,1.45,1.49l-.39-.51c.43.56.82,1.14,1.2,1.73.35.54.86.97,1.49,1.15.6.16,1.4.09,1.93-.25s1-.86,1.15-1.49.12-1.36-.25-1.93c-.76-1.17-1.55-2.37-2.57-3.33-.56-.53-1.21-1.07-1.93-1.39-.3-.14-.61-.29-.94-.36-.62-.14-1.07-.13-1.69-.01-.49.1-.97.34-1.4.6-.54.33-.98.88-1.15,1.49s-.09,1.4.25,1.93.86,1,1.49,1.15,1.34.1,1.93-.25h0Z" fill="#c04c34"/>
      <path d="M220.47,42.36c.32.24.62.5.97.7.18.1.36.19.54.28.36.18.73.36,1.05.61l-.51-.39c.2.16.37.33.53.53l-.39-.51c.26.34.47.73.68,1.11.16.29.37.53.64.7.24.22.52.37.85.45.33.1.66.12,1,.04.33-.02.64-.11.93-.3.53-.34,1-.86,1.15-1.49.15-.67.08-1.31-.25-1.93-.18-.33-.36-.67-.58-.98s-.45-.62-.72-.9-.58-.5-.89-.72c-.6-.43-1.33-.65-1.92-1.1l.51.39-.04-.03c-.23-.24-.49-.42-.8-.52-.3-.16-.62-.23-.96-.22-.34-.01-.67.06-.96.22-.31.1-.58.27-.8.52-.44.48-.76,1.1-.73,1.77l.09.66c.12.42.33.79.64,1.1h0Z" fill="#c04c34"/>
      <path d="M218.67,48.81c1.45.8,3.1.99,4.73.93.71-.02,1.42-.07,2.13-.11,1.03-.06,1.99-.15,2.92-.64.52-.27,1.02-.92,1.15-1.49.16-.69.04-1.28-.25-1.93-.64-1.41-2.47-1.86-3.76-2.4l.6.25c-.46-.19-.91-.41-1.33-.67-1.11-.7-2.8-.27-3.42.9-.65,1.23-.29,2.67.9,3.42.92.58,1.97.93,2.97,1.35l-.6-.25c.32.13.64.26.92.46l-.51-.39c.08.06.14.12.21.2l-.39-.51c.04.05.07.11.09.17l.9-3.42c-.07.04-.13.07-.2.1l.6-.25c-.18.06-.36.1-.56.13l.66-.09c-.82.09-1.66.12-2.49.16-.76.04-1.52.06-2.28-.03l.66.09c-.45-.06-.87-.16-1.29-.33l.6.25c-.15-.06-.29-.13-.43-.21-1.14-.63-2.78-.32-3.42.9s-.32,2.74.9,3.42h0Z" fill="#c04c34"/>
      <path d="M111.38,43.5c.52.95,1.68.76,2.58.7.99-.06,1.98-.1,2.96-.19.43-.04.84-.15,1.05-.56.28-.54-.09-1.1-.52-1.42-.77-.56-1.73-.45-2.61-.31-.33.05-.52.47-.44.77.1.35.43.49.77.44.48-.08,1.04-.18,1.48.07.02.01.16.13.17.13l.1-.32c.12-.06.14-.08.07-.06,0,0-.03,0-.04.01-.33.05-.68.04-1.02.06-.66.04-1.32.08-1.97.12-.34.02-.68.05-1.02.06-.18,0-.39.01-.47-.14-.39-.71-1.47-.08-1.08.63h0Z" fill="#cbb9b0"/>
      <path d="M185.4,43.51c.42.18.9.2,1.35.2.21,0,.41,0,.62,0,.1,0,.2,0,.31.02.03,0,.06,0,.09,0-.09-.01-.11-.02-.04,0,.06.01.11.02.17.03.32.07.69-.1.77-.44.07-.32-.1-.69-.44-.77-.46-.1-.92-.1-1.39-.1-.2,0-.41,0-.61-.02-.07,0-.06,0,.04,0-.03,0-.06,0-.08-.01-.04,0-.08-.02-.13-.03-.11-.03-.22-.06-.33-.11-.14-.06-.36,0-.48.06-.13.08-.25.22-.29.37-.04.16-.03.34.06.48s.21.22.37.29h0Z" fill="#cbb9b0"/>
      <path d="M185.4,42.23c-.76.03-.98,1.04-.31,1.4.23.12.5.14.74.17.22.03.45.04.67.04.89,0,1.77-.17,2.65-.13.33.02.64-.3.62-.62-.02-.35-.27-.61-.62-.62-.64-.03-1.27.04-1.9.09-.31.02-.62.04-.93.03-.15,0-.31-.01-.46-.03.08.01-.1-.02-.12-.02-.04,0-.08-.02-.12-.02.04.02.08.04.12.07l.16.28-.04.34-.22.22.03-.02-.32.09h.04c.33-.01.64-.28.62-.63s-.27-.64-.62-.62h0Z" fill="#cbb9b0"/>
      <path d="M186.39,43.75l2.81.05c.72.01,2.36.28,2.26-.91-.04-.44-.42-.82-.77-1.05s-.78-.35-1.21-.4-.89-.02-1.33,0c-.47.02-.93.04-1.4.06v1.25c.47-.03.94-.06,1.41-.12.42-.05.86-.14,1.29-.12.08,0,.15.01.23.03.03,0,.23.08.16.05.02.01.21.13.15.08.03.02.16.18.12.11.09.13.08.34.26.53.21.23.52.3.81.19.56-.22.63-.9.39-1.38-.21-.42-.64-.69-1.08-.8-.93-.22-1.97-.11-2.89.06-.33.06-.52.46-.44.77.1.35.44.5.77.44.56-.1,1.12-.14,1.68-.11.24.01.48,0,.7.1.07.03.1.05.12.07-.04-.04.07.08.02.02l.02.06c-.03-.13.02-.24.16-.34l.32-.09h-.05c.11.03.21.06.32.09l.04.03.16.28c-.07-.19-.11-.38-.22-.55-.13-.2-.3-.36-.49-.5-.35-.26-.78-.36-1.21-.39s-.89.06-1.33.11c-.47.06-.94.1-1.41.12-.34.02-.62.27-.62.62,0,.33.29.64.62.62.75-.03,1.5-.09,2.25-.09.28,0,.6.04.83.13.05.02.22.12.24.14.05.04.1.09.15.14.02.02.02.03.03.07v-.33c.05-.12.13-.2.24-.24h-.06c.07,0,.07,0,0,0h-.09c-.19,0-.38,0-.56-.01l-1.13-.02-2.25-.04c-.8-.01-.8,1.24,0,1.25h0Z" fill="#cbb9b0"/>
      <g>
        <circle cx="44.96" cy="71.19" r="13.94" fill="none" stroke="#231f20" stroke-miterlimit="10" stroke-width="7"/>
        <circle cx="191.87" cy="71.19" r="13.94" fill="none" stroke="#231f20" stroke-miterlimit="10" stroke-width="7"/>
      </g>
      <circle cx="44.48" cy="71.49" r="8.51" fill="#a7a9ac" stroke="#a7a9ac" stroke-miterlimit="10" stroke-width="5"/>
      <path d="M168.16,15.71c-2.9-.77-5.82-1.46-8.75-2.08-.96-.2-2.07.28-2.31,1.31-.21.94.28,2.09,1.31,2.31,2.93.62,5.85,1.31,8.75,2.08.95.25,2.08-.32,2.31-1.31s-.3-2.04-1.31-2.31h0Z" fill="#e5f4f8"/>
      <path d="M106.79,42.96c1.31,2.89,4.49,4.8,7.64,4.71,1.74-.05,3.42-.58,5.11-.91s3.09-.53,4.81-.67c1.3-.11,2.56-1.07,2.5-2.5-.06-1.26-1.1-2.62-2.5-2.5-3.11.26-6.1.9-9.15,1.51-.32.05-.38.06-.19.04-.19.02-.38.03-.57.04-.27,0-.54,0-.8-.03.58.06-.33-.12-.43-.14-.27-.1-.28-.1-.03,0-.14-.06-.27-.13-.4-.2-.2-.11-.39-.23-.57-.36.41.29-.27-.26-.35-.34-.1-.11-.2-.22-.3-.34.16.21.16.2,0-.04-.14-.27-.3-.52-.42-.79-.54-1.2-2.37-1.58-3.42-.9-1.23.8-1.48,2.14-.9,3.42h0Z" fill="#6fc5ce"/>
      <g>
        <path d="M112.63,42.14h-.45v1.25h4.2c.36,0,.74.03,1.02-.24s.31-.72.1-1.04c-.33-.52-1.05-.68-1.62-.79-1.2-.22-2.42-.09-3.54.4-.51.22-1.2.52-1.34,1.11-.19.81.64,1.27,1.32,1.24,1.54-.08,3.1-.35,4.61-.66.3-.06.49-.4.45-.69-.05-.32-.3-.52-.61-.54-.95-.06-1.91-.07-2.86,0-.47.04-.93.16-1.17.61s-.06,1.02.4,1.24c.39.19.89.12,1.31.12.47,0,.95,0,1.42,0,.44,0,.97.08,1.39-.06.49-.16.75-.65.63-1.14s-.61-.83-1.12-.86c-.23-.02-.45.04-.68.06-.05,0-.1,0-.15,0,0,0-.11,0-.06,0-.11,0-.05-.04-.02,0-.4-.7-1.48-.07-1.08.63.21.37.59.56,1,.6.16.02.32,0,.48-.02.04,0,.39-.01.43-.05.01-.02-.03-.04-.02-.05,0-.02,0-.03,0-.05,0-.13.06-.24.21-.33-.09-.06-.41,0-.53,0-.42,0-.84,0-1.26,0s-.84,0-1.26,0h-.11c-.08,0-.09,0-.05,0,.08-.05.26.59.05.55.03,0,.1-.02.13-.03.1-.01.21-.01.32-.02.86-.05,1.72-.04,2.58.01l-.17-1.23c-.89.19-1.79.34-2.69.46-.46.06-.92.11-1.39.14-.03,0-.39.01-.39.02,0,0,.03,0,.06.06.24.49-.21.42-.01.34.09-.04.18-.11.27-.16.63-.35,1.35-.55,2.07-.58.36-.02.72,0,1.08.07.19.04.38.08.56.14.08.02.17.07.25.09.03,0,.05.02.07.04-.1.06-.13-.04-.08-.31l.16-.28c.17-.06.21-.08.1-.07h-.17c-.07,0-.15,0-.22,0h-.61c-.39,0-.77,0-1.16,0h-2.32c-.8,0-.81,1.25,0,1.25h.45c.8,0,.81-1.25,0-1.25h0Z" fill="#cbb9b0"/>
        <path d="M112.02,41.84c-.23.14-.49.23-.68.42-.28.29-.37.7-.22,1.08.3.78,1.15.79,1.85.81.79.02,1.58.03,2.37.03.68,0,1.47.06,2.11-.24.69-.32.88-1.17.34-1.72-.46-.47-1.2-.7-1.83-.81-.73-.12-1.44-.1-2.16.02-.36.06-.72.14-1.08.24s-.71.18-1.03.34c-.37.19-.64.53-.62.96s.4.75.78.92c.72.33,1.5.24,2.26.13.33-.05.52-.47.44-.77-.1-.36-.43-.49-.77-.44-.3.04-.62.08-.92.06-.17-.01-.53-.05-.61-.22l.09.32c-.02.08-.07.15-.13.2.04-.03.09-.05.13-.08.05-.02.22-.06.31-.09.25-.08.5-.15.75-.21.48-.12.95-.2,1.45-.22s.93.04,1.38.18c.19.06.39.14.57.25,0,0,.17.09.14.11-.06-.11-.05-.21.03-.3.03-.02.02-.02-.01,0-.05-.01-.37.08-.48.09-.25.02-.49.02-.74.02-.56,0-1.12,0-1.67,0s-1.1.03-1.63-.05c-.04,0-.09-.04-.12-.02.16-.09-.04.33-.03.29,0,.01.11-.06.17-.09.09-.04.17-.09.26-.14.68-.42.06-1.5-.63-1.08h0Z" fill="#cbb9b0"/>
      </g>
      <path d="M2.09,66.29c.4.32.8.64,1.19.96.36.29.72.59,1.15.77.48.21,1.11.33,1.58.02.24-.16.42-.4.47-.69.05-.24.02-.47.02-.71,0-.33-.28-.64-.62-.62s-.63.27-.62.62c0,.04.03.45.01.45.01-.08.02-.09,0-.05,0,.02,0,.03-.01.05-.01.03,0,.03,0,0,0-.03.03-.06.06-.08-.04.05-.03.03.01,0,.06-.04.06-.03-.01,0-.07.02.13,0,0,0-.03,0-.07,0-.1,0,.09,0,.04,0-.02,0-.04,0-.07-.02-.1-.03-.04-.01-.08-.03-.13-.04.06.02.05.03,0,0-.08-.04-.16-.08-.24-.13-.07-.04-.14-.09-.21-.14-.03-.02-.06-.04-.09-.07-.04-.03-.1-.08-.03-.02-.15-.11-.29-.23-.43-.35l-.99-.8c-.25-.21-.64-.27-.88,0-.21.23-.27.66,0,.88h0Z" fill="#2d2628"/>
      <g>
        <path d="M.34,63.28c.63,2.13,2.23,3.92,4.22,4.87.54.26,1.2.46,1.77.17s.76-1.03.92-1.62c.17-.64.28-1.3.32-1.97.04-.61.11-1.35-.18-1.91-.28-.53-.84-.77-1.4-.85-.65-.09-1.31-.09-1.97-.12-.69-.03-1.38-.08-2.07-.1-.55-.02-1.18.09-1.45.63-.31.61.16,1.28.49,1.78s.72.97,1.15,1.39.9.79,1.4,1.12c.54.35,1.13.65,1.79.52.78-.15,1.02-.84,1.16-1.54s.25-1.51.11-2.22c-.07-.39-.33-.71-.7-.84-.34-.12-.69-.06-1.04-.06-.74.01-1.47-.09-2.19-.28-.51-.14-1,.45-.71.92.87,1.39,1.77,2.73,3.08,3.74.45.35,1.06-.22.92-.71-.28-.98-.61-1.94-.99-2.88l-.77.77c.23.05.46.1.69.14l.35.07.12.02c.14.04.15.04.04-.03l-.16-.28v-.12c.04-.09.09-.18.15-.28,0,0-.09.04-.15.06-.78.19-.45,1.39.33,1.21.27-.06.51-.17.7-.38.26-.29.28-.72.06-1.03-.2-.28-.51-.33-.82-.39-.33-.07-.65-.14-.98-.2-.41-.09-.96.29-.77.77.38.94.71,1.9.99,2.88l.92-.71c-1.13-.87-1.89-2.11-2.63-3.3l-.71.92c.51.14,1.03.23,1.56.28.25.02.49.04.74.04.13,0,.27,0,.4,0,.1,0,.3.02.4-.01-.07.03.06,0,.05,0,0,0-.11-.09-.11-.09,0,0,.01.17.01.2,0,.26,0,.52-.02.78-.03.42-.09.9-.25,1.29-.04.09,0,0,.03-.01-.59.29,0,.03-.08.03-.05,0-.12.01-.17,0-.19-.03-.37-.15-.53-.25-.38-.23-.74-.5-1.07-.79-.64-.57-1.17-1.23-1.58-1.98-.1-.17-.07-.1-.16.04-.07.1-.05.03.08,0,.14-.02.38,0,.54,0l1.6.08c.53.03,1.07.05,1.6.08.25.01.75,0,.9.23.07.1.05.29.06.4,0,.26,0,.52,0,.77-.02.48-.09.95-.19,1.42-.05.24-.11.47-.18.7-.04.12-.07.43-.18.51-.17.14-.68-.17-.84-.26-1.59-.84-2.88-2.25-3.39-3.99-.23-.77-1.43-.44-1.21.33H.34Z" fill="#2d2628"/>
        <path d="M1.35,64.1l3.16,3.08c.47.46,1.31.5,1.77,0s.5-1.28,0-1.77l-3.16-3.08c-.47-.46-1.31-.5-1.77,0s-.5,1.28,0,1.77h0Z" fill="#2d2628"/>
        <path d="M.96,61.99l-.42.48.44-.18.51.38c.02.06.02.12,0,.18-.02.11-.1.28-.21.33-.01,0-.14.05-.06.03.03,0,.05-.01.08-.02.05-.01.11-.02.16-.03.03,0,.06-.01.09-.02.1-.02.01,0-.04,0,.11-.03.24-.02.35-.01.05,0,.12.03-.04,0,.02,0,.05,0,.07.01.03,0,.06.01.09.02.06.02.07.06-.03-.02.04.03.09.05.14.08.06.03-.12-.11-.04-.03.02.02.03.03.05.04.07.07.14.16.2.24.16.21.32.38.55.53.27.18.7.06.86-.22.17-.31.07-.66-.22-.86-.14-.09.07.07,0,0-.03-.03-.06-.06-.09-.09-.06-.06-.11-.13-.17-.2-.1-.13-.2-.26-.33-.36-.39-.32-.87-.43-1.37-.37-.21.02-.45.05-.66.11-.35.12-.62.41-.61.8.02.5.57.92,1.04.64.13-.08.23-.21.32-.32l.23-.26c.22-.25.26-.65,0-.88-.24-.22-.65-.26-.88,0h0Z" fill="#2d2628"/>
        <path d="M1.57,63.11c.02-.13.01-.22-.01-.35v-.09c-.04-.13-.06-.12-.05.05l-.16.28c-.05.05-.01,0,.07,0,.12-.02.26-.01.38-.02.27,0,.54-.01.81,0,.51,0,1.02.04,1.52.09.25.03.49.06.74.1.15.02.45.02.56.11.15.12.07.46-.03.58-.22.26-.25.63,0,.88.22.22.67.26.88,0,.48-.58.65-1.43.23-2.1-.46-.73-1.52-.73-2.29-.81-.81-.09-1.62-.12-2.43-.1-.39.01-.8.03-1.14.23-.21.12-.35.33-.39.57-.03.21.08.39.05.59-.04.34.32.62.62.62.37,0,.58-.29.62-.62h0Z" fill="#2d2628"/>
        <path d="M2.35,66.62c.55.51,1.14.98,1.77,1.38s1.44.84,2.19.52.93-1.33,1.02-2.06.03-1.51-.18-2.23c-.09-.31-.44-.54-.77-.44s-.54.43-.44.77c.17.58.22,1.06.16,1.7,0,0-.02.2,0,.1-.01.08-.02.16-.04.23-.03.14-.06.29-.1.43-.02.08-.05.15-.07.22,0,.03-.02.06-.03.09.03-.06.03-.06,0,0,0,0-.1.17-.03.06.06-.04.05-.04,0,0,.06-.02.07-.03.02-.02-.05.01-.04.01.03,0-.04,0-.07,0-.11,0-.11,0,.05.02-.08,0-.06-.01-.13-.03-.19-.05-.04-.01-.08-.03-.12-.04.05.02.04.01-.03-.02-.26-.13-.5-.28-.74-.44-.51-.34-.89-.64-1.35-1.07-.24-.22-.65-.25-.88,0s-.25.65,0,.88h0Z" fill="#2d2628"/>
        <path d="M2.49,66.74c.51.61,1.15,1.13,1.86,1.5.77.41,1.74.75,2.48.08.59-.53.75-1.49.86-2.23.07-.46.12-.93.13-1.4,0-.44.01-.92-.11-1.34-.15-.5-.52-.87-1-1.07s-1.02-.19-1.54-.13c-.34.03-.62.26-.62.62,0,.31.29.66.62.62.36-.03.81-.1,1.12.06.25.13.26.4.27.69.04.89-.05,1.77-.29,2.63-.06.24-.17.57-.31.65-.21.12-.57-.07-.79-.17-.7-.34-1.3-.81-1.8-1.4-.22-.26-.66-.22-.88,0-.26.26-.22.63,0,.88h0Z" fill="#2d2628"/>
        <path d="M5.25,63.17c.12,0,.23.01.35.02.05,0,.09,0,.14.01.22.03-.05,0,.08.01.17.03.33.06.49.11,0,0,.14.06.06.02s.04.02.06.03c.02,0,.12.09.05.03s.04.04.04.04c-.03-.02-.06-.08-.01-.02.07.09,0-.05.01.02,0,.04.03.13.02.04,0,.05,0,.1,0,.15.02.39,0,.79-.03,1.18,0,.02-.02.16,0,.05,0,.04-.01.08-.02.12-.02.1-.04.2-.06.3s-.05.2-.09.3c-.01.04-.03.08-.04.12-.07.19.05-.1-.03.08-.14.3-.09.69.22.86.28.15.71.09.86-.22.23-.51.36-1.02.42-1.57.05-.49.07-1.01,0-1.51-.16-1.21-1.53-1.39-2.52-1.44-.33-.02-.64.3-.62.62.02.35.27.61.62.62h0Z" fill="#2d2628"/>
      </g>
      <path d="M222.68,64.05c.04-.07.08-.13.13-.19l-.2.25c.07-.08.15-.16.23-.22l-.25.2c.11-.08.24-.15.37-.21l-.3.13c.19-.07.38-.12.57-.15l-.33.04c.61-.08,1.26-.08,1.87-.05.65.03,1.28-.6,1.25-1.25-.03-.71-.55-1.21-1.25-1.25-.76-.04-1.54-.02-2.29.11-.79.13-1.58.62-1.96,1.33-.16.29-.22.64-.13.96.08.29.3.6.57.75.58.31,1.38.17,1.71-.45h0Z" fill="#2d2628"/>
      <path d="M228.09,63.95c.07.03.15.06.22.1.03.01.22.11.08.03-.07-.06-.07-.06.02.02l-.18-.32v-.34s-.02.08-.03.11c.04-.1.05-.11.01-.03-.02.03-.03.07-.05.1-.04.08-.09.17-.14.25-.04.07-.08.13-.12.19-.02.02-.19.26-.11.15s-.14.15-.13.15c-.05.06-.11.12-.17.17-.13.13-.26.25-.4.37s-.27.24-.41.35c-.08.06-.16.13-.24.19-.17.14.23-.17-.08.06-.58.43-1.19.83-1.83,1.18-.18.1-.36.19-.54.28-.07.03-.16.06-.04.02-.1.03-.19.07-.29.09-.03,0-.27.06-.12.04.17-.03-.13,0-.17,0-.22,0,0-.02,0,0-.12-.04-.14-.04-.06,0,.08.04.06.03-.05-.03-.58-.31-1.39-.16-1.71.45-.31.58-.17,1.38.45,1.71,1.17.63,2.39.33,3.51-.26.94-.49,1.81-1.09,2.63-1.74s1.57-1.33,2.07-2.23c.32-.58.59-1.25.4-1.92-.18-.63-.7-1.07-1.28-1.32s-1.37-.2-1.71.45c-.29.54-.19,1.43.45,1.71h0Z" fill="#2d2628"/>
      <g>
        <path d="M222.78,67.28c3.22,0,3.22-5,0-5s-3.22,5,0,5h0Z" fill="#2d2628"/>
        <g>
          <path d="M223.6,61.47c-1.16-.24-2.49-.19-3.14.98-.53.95-.59,2.17-.6,3.23,0,.95,0,1.97.47,2.83.56,1.03,1.77,1.49,2.88,1.1,1.04-.37,1.9-1.2,2.77-1.85s1.8-1.36,2.7-2.04,1.98-1.36,1.95-2.65c-.02-1.14-1.04-1.9-2.05-2.15-1.17-.28-2.47-.21-3.66-.11-.61.05-1.23.13-1.84.2-.8.1-1.69.27-1.89,1.22-.12.56.08,1.11.57,1.41,1.09.66,2.24,1.34,3.52,1.54,1.39.21,2.74-.07,3.81-1,.66-.58.37-1.95-.55-2.09-1.29-.19-2.55-.15-3.81.19-.65.18-1.05.89-.87,1.54s.88,1.05,1.54.87c.8-.22,1.71-.31,2.48-.19l-.55-2.09c-.24.21.13-.04-.15.1-.07.04-.14.08-.22.12.19-.09-.15.05-.17.05-.1.03-.2.05-.31.07-.13.02.11,0-.11,0-.11,0-.21,0-.32,0s-.21,0-.32-.02c.23.03-.16-.04-.17-.04-.93-.21-1.68-.69-2.54-1.22l.57,1.41.02-.09-.32.55s-.36.22-.38.18c0,0,.22-.03.24-.03.19-.02.37-.05.56-.07.43-.05.85-.1,1.28-.13.77-.06,1.55-.09,2.32-.04.19.01.38.02.56.05-.3-.05.14.05.2.06.02,0,.19.07.06.01-.14-.06.06.03.09.05.01,0,.12.09.13.08-.06.02-.23-.27-.15-.13.07.12-.04-.07-.04-.08-.02-.07-.04-.17-.03-.24.04-.17.1-.17-.05-.03-.02.02-.21.19-.11.1s-.11.08-.1.08c-.18.13-.35.26-.53.4-1.32.99-2.63,1.99-3.95,2.98-.27.21-.55.41-.84.59.01,0-.19.1-.1.05.11-.05-.21.05-.07.02.11-.02-.08,0-.09,0,.09.03.15.02.24.08.15.09-.07-.12.02.03.08.15-.01-.01-.02-.03-.05-.2-.03-.02,0,.03-.02-.05-.04-.1-.05-.15-.03-.12-.05-.24-.09-.36.06.23,0,.08,0,.01,0-.09-.01-.18-.02-.27-.02-.38-.02-.76-.01-1.14,0-.23.01-.45.03-.68.02-.21.02-.26.06-.41.04-.2.09-.39.15-.58.05-.18-.02-.07-.1.03-.12.17-.08-.05.02,0l-.1.02c.06,0,.12,0,.18,0,.06,0,.12,0,.18.01-.24-.02.13.03.15.04.64.13,1.38-.18,1.54-.87.14-.62-.19-1.4-.87-1.54h0Z" fill="#2d2628"/>
          <path d="M220.72,68.68c.81,1.57,2.93,1.45,4.29.81,1.28-.6,2.47-1.47,3.53-2.41,1.12-.99,2.42-2.29,2.2-3.93-.12-.9-.65-1.64-1.58-1.82-.86-.17-1.75.03-2.49.48-1.36.81-2.4,2.3-3.19,3.64-.33.56-.15,1.39.45,1.71s1.36.15,1.71-.45c.17-.29.35-.58.54-.86.21-.3.32-.45.49-.66.2-.24.4-.47.62-.69.09-.09.18-.18.28-.27.06-.06.13-.11.2-.17-.08.07-.06.06.06-.03.32-.18.28-.21.65-.27-.12.01-.1.01.05,0,.16,0,.17,0,.03-.01l.11.03c-.14-.04-.26-.13-.34-.27-.07-.16-.07-.16-.03,0-.02-.11-.03-.09-.02.06.07-.18-.07.19-.07.19.05-.13-.15.24-.18.29-.09.12-.1.15-.05.06-.04.05-.09.1-.13.15-.88.98-1.75,1.67-2.8,2.33-.27.17-.54.33-.81.48-.15.08-.31.17-.47.24.17-.07-.21.06-.2.06-.09.02-.18.05-.27.06.1-.02.07-.02-.09,0-.1,0-.41-.06-.16,0-.07-.01-.14-.03-.2-.05.13.07.14.07.01,0-.12-.08-.12-.07.01.01.09.12.1.13.03,0-.3-.58-1.16-.8-1.71-.45-.59.38-.77,1.09-.45,1.71h0Z" fill="#2d2628"/>
        </g>
      </g>
      <path d="M128.08,5.24c6.29-.3,12.44.32,18.67,1.09,2.82.34,5.71.54,8.47,1.27s5.54,2.03,8.2,3.31c1.22.58,2.7.33,3.42-.9.64-1.09.33-2.83-.9-3.42-2.84-1.36-5.71-2.74-8.74-3.63s-6.31-1.12-9.47-1.51c-6.56-.8-13.03-1.52-19.65-1.21-3.2.15-3.22,5.15,0,5h0Z" fill="#6fc5ce"/>
      <path d="M79.24,14.16c-7.75,3.22-14.76,7.94-20.52,14.07-2.2,2.34,1.33,5.89,3.54,3.54,5.13-5.46,11.38-9.9,18.31-12.78,1.25-.52,2.14-1.66,1.75-3.08-.32-1.18-1.82-2.27-3.08-1.75h0Z" fill="#6fc5ce"/>
      <path d="M141.69,5.55c5.68.73,11.31,1.44,16.82,3.04s10.5,3.79,15.35,6.58c2.79,1.61,5.31-2.71,2.52-4.32-5.2-3-10.77-5.4-16.54-7.09s-12.03-2.44-18.15-3.22c-1.34-.17-2.5,1.27-2.5,2.5,0,1.49,1.15,2.33,2.5,2.5h0Z" fill="#6fc5ce"/>
      <g>
        <path d="M11.34,48.64c1.11-1.36,2.46-2.52,3.81-3.65.1-.08.56-.42.2-.17.18-.13.37-.26.56-.38s.39-.22.59-.33c-.4.2.26-.08.3-.09.43-.13.86-.19,1.29-.3.18-.03.16-.03-.07,0,.12-.01.24-.03.36-.04.24-.02.48-.04.72-.04.44-.01.88.01,1.32.05-.51-.05.23.05.28.06.25.05.59.26.15,0l-.75-.92c-.03-.37-.05-.4-.04-.12l.04-.3c-.08.27-.06.24.07-.07,0,.12-.37.44-.11.21.12-.15.1-.15-.06.02.24-.18.29-.22.13-.12-.18.11.33-.06-.09.03-.22.05-.44.12-.66.17-.47.12-.95.23-1.42.34-.24.05-.48.1-.72.14-.1.02-.79.12-.29.06-.48.06-.96.08-1.45.08-1.31,0-2.56,1.15-2.5,2.5s1.1,2.5,2.5,2.5,2.87-.24,4.26-.56,2.74-.61,3.77-1.59,1.61-2.37,1.52-3.76c-.13-1.96-1.52-3.16-3.37-3.48-2.73-.47-5.88-.23-8.29,1.26-1.08.66-2.04,1.54-2.99,2.37s-1.82,1.65-2.6,2.6c-.83,1.01-1.06,2.56,0,3.54.92.84,2.65,1.08,3.54,0h0Z" fill="#fdf6b0"/>
        <path d="M7.65,45.41c-.59.9-1.07,2.12-.25,3.06.39.44.93.53,1.47.62s1.06.15,1.6.21c1.91.21,3.92.34,5.83.07.65-.09,1.06-.95.87-1.54-.23-.71-.84-.97-1.54-.87.11-.02.09-.02-.07,0-.09,0-.18.01-.27.02-.18,0-.37.01-.55.02-.35,0-.7,0-1.05,0-.73,0-1.45-.04-2.18-.1-.37-.03-.75-.07-1.12-.11-.34-.04-.57-.07-.86-.11-.18-.03-.37-.08-.55-.09-.52-.02.67.46.44.83.02-.07.04-.14.06-.21-.04.11-.03.1.04-.05.1-.16.18-.32.29-.48.36-.55.13-1.41-.45-1.71-.63-.33-1.33-.14-1.71.45h0Z" fill="#fdf6b0"/>
        <path d="M7.1,46.54c-.43,1.19,0,2.51,1.31,2.84,1.08.27,2.23-.03,3.3-.18.94-.13,1.88,0,2.83-.02,1.13-.01,2.27-.17,3.37-.45.65-.17,1.05-.9.87-1.54s-.88-1.04-1.54-.87c-.75.19-1.5.32-2.27.35s-1.59-.05-2.39-.04-1.61.19-2.42.29c-.17.02-.35.04-.52.05-.09,0-.6-.06-.65,0,.09-.09.36.32.32.24.02.46.05.55.1.27.03-.09.06-.19.1-.28.23-.63-.26-1.37-.87-1.54-.7-.19-1.3.24-1.54.87h0Z" fill="#fdf6b0"/>
        <path d="M8.37,49.35c2.53.65,5.15.12,7.72.14,2.16.02,5.37-.14,6.62-2.25.82-1.39-1.34-2.65-2.16-1.26-.35.59-1.44.72-2.05.86-1.04.22-2.11.14-3.17.15-2.09.01-4.24.48-6.3-.05-1.56-.4-2.22,2.01-.66,2.41h0Z" fill="#fdf6b0"/>
        <path d="M22.39,39.08l-.28-.06-.33,2.46c.46-.01,1.12.52,1.37.92.33.52.24,1.3.22,1.89-.05,1.33-1.01,2.17-2.22,2.59-1.49.51-3.13.63-4.68.75-1.69.13-3.42.22-5.1-.1-.66-.13-1.35.19-1.54.87-.17.61.21,1.41.87,1.54,2.26.43,4.54.33,6.82.1,2.08-.21,4.43-.4,6.17-1.68s2.34-3.19,2.15-5.34c-.09-1.07-.46-2.02-1.28-2.75-.77-.69-1.72-1.31-2.79-1.28-1.35.04-1.77,2.17-.33,2.46l.28.06c1.57.32,2.24-2.09.66-2.41h0Z" fill="#fdf6b0"/>
        <path d="M10.94,47.5c-.29,0-.58-.03-.86-.07l.33.04c-.38-.05-.76-.11-1.12-.25l.3.13c-.11-.05-.21-.1-.31-.18l.25.2c-.06-.05-.11-.1-.16-.16l.2.25c-.04-.06-.08-.12-.11-.19l.13.3c-.03-.07-.05-.13-.06-.21l.04.33c0-.07,0-.14,0-.21l-.04.33s.02-.09.04-.13l-.13.3s.03-.06.05-.09c.17-.26.21-.66.13-.96s-.3-.6-.57-.75c-.62-.33-1.33-.14-1.71.45-.66,1.02-.04,2.41,1,2.87.4.18.79.28,1.22.35.46.07.92.13,1.38.14.32,0,.66-.14.88-.37s.38-.57.37-.88c-.03-.69-.55-1.23-1.25-1.25h0Z" fill="#fdf6b0"/>
        <path d="M9.14,49.68c.79.38,1.66.44,2.52.51s1.65.07,2.47.02c1.6-.09,3.39-.25,4.78-1.12.57-.36.8-1.11.45-1.71s-1.14-.81-1.71-.45c-.97.61-2.32.72-3.52.78-.71.04-1.43.04-2.14,0-.33-.02-.66-.05-.99-.08,0,0-.48-.07-.26-.03-.09-.01-.18-.03-.26-.06-.15-.05-.17-.05-.07-.02-.61-.29-1.35-.17-1.71.45-.32.55-.16,1.42.45,1.71h0Z" fill="#fdf6b0"/>
      </g>
    </g>
  </g>
</svg>